<?xml version="1.0" standalone="no"?>
<!DOCTYPE svg PUBLIC "-//W3C//DTD SVG 1.1//EN" "http://www.w3.org/Graphics/SVG/1.1/DTD/svg11.dtd" >
<svg xmlns="http://www.w3.org/2000/svg">
<metadata>
Created by FontPrep 20130207 at Mon Jun 29 17:04:49 2015
 By Pathum Egodawatta
Copyright (c) 2015, Pathum Egodawatta
</metadata>
<defs>
<font id="59d87ad9f31f9656e933fda32e9c2abf" horiz-adv-x='1024' >
  <font-face 
    font-family="AbhayaLibre-Bold"
    font-weight="700"
    font-stretch="normal"
    units-per-em="2048"
    panose-1="2 0 8 3 0 0 0 0 0 0"
    ascent="1638"
    descent="-410"
    x-height="858"
    cap-height="1220"
    bbox="-96 -508 1898 1492"
    underline-thickness="100"
    underline-position="-200"
    unicode-range="U+0020-FB02"
  />
<missing-glyph horiz-adv-x="1000" 
d="M666 -144h-332v-66h140l-140 -94v-66h332v66h-204l140 94h64v66zM600 62v-94h-200v94h200zM666 128h-332v-226h332v226zM666 474h-200v-112h68v46h66v-94h-200v160h-66v-226h332v226zM666 718h-66v-132h-266v-68h332v200zM666 838h-332v-66h132v-74h-132v-66h200v140h132
v66zM466 1032v-72h-66v72h66zM534 1100h-200v-208h332v68h-132v140zM666 1358h-330v-66h130v-74h-132v-66h332v66h-132v74h132v66zM820 1492v-2000h-634v2000h634z" />
    <glyph glyph-name=".notdef" horiz-adv-x="1000" 
d="M666 -144h-332v-66h140l-140 -94v-66h332v66h-204l140 94h64v66zM600 62v-94h-200v94h200zM666 128h-332v-226h332v226zM666 474h-200v-112h68v46h66v-94h-200v160h-66v-226h332v226zM666 718h-66v-132h-266v-68h332v200zM666 838h-332v-66h132v-74h-132v-66h200v140h132
v66zM466 1032v-72h-66v72h66zM534 1100h-200v-208h332v68h-132v140zM666 1358h-330v-66h130v-74h-132v-66h332v66h-132v74h132v66zM820 1492v-2000h-634v2000h634z" />
    <glyph glyph-name=".null" horiz-adv-x="0" 
 />
    <glyph glyph-name="nonmarkingreturn" horiz-adv-x="682" 
 />
    <glyph glyph-name="space" unicode=" " horiz-adv-x="400" 
 />
    <glyph glyph-name="dot" unicode="." horiz-adv-x="416" 
d="M102 130q18 46 66 54q34 14 70 -1t46 -59q12 -32 -2 -67t-60 -45q-34 -14 -69 1t-46 49t-5 68z" />
    <glyph glyph-name="zero" unicode="0" horiz-adv-x="908" 
 />
    <glyph glyph-name="one" unicode="1" horiz-adv-x="930" 
d="M650 1220v-1138l178 -30q34 -6 48 -16t14 -36h-790v52l296 30v994l-310 -182l-36 56l436 270h164z" />
    <glyph glyph-name="two" unicode="2" horiz-adv-x="894" 
 />
    <glyph glyph-name="three" unicode="3" horiz-adv-x="802" 
 />
    <glyph glyph-name="four" unicode="4" horiz-adv-x="922" 
 />
    <glyph glyph-name="five" unicode="5" horiz-adv-x="814" 
 />
    <glyph glyph-name="six" unicode="6" horiz-adv-x="862" 
 />
    <glyph glyph-name="seven" unicode="7" horiz-adv-x="844" 
 />
    <glyph glyph-name="eight" unicode="8" horiz-adv-x="798" 
 />
    <glyph glyph-name="nine" unicode="9" horiz-adv-x="862" 
 />
    <glyph glyph-name="A" unicode="A" 
 />
    <glyph glyph-name="B" unicode="B" 
 />
    <glyph glyph-name="C" unicode="C" 
 />
    <glyph glyph-name="D" unicode="D" 
 />
    <glyph glyph-name="E" unicode="E" 
 />
    <glyph glyph-name="F" unicode="F" 
 />
    <glyph glyph-name="G" unicode="G" 
 />
    <glyph glyph-name="H" unicode="H" horiz-adv-x="1458" 
d="M1400 1146h-138v-1092h90q30 0 39 -10t9 -44h-538v54h154v534h-574v-534h108q30 0 39 -10t9 -44h-540v54h138v1092h-138v54h540v-54h-156v-504h574v504h-154v54h538v-54z" />
    <glyph glyph-name="I" unicode="I" 
 />
    <glyph glyph-name="J" unicode="J" 
 />
    <glyph glyph-name="K" unicode="K" 
 />
    <glyph glyph-name="L" unicode="L" 
 />
    <glyph glyph-name="M" unicode="M" 
 />
    <glyph glyph-name="N" unicode="N" 
 />
    <glyph glyph-name="O" unicode="O" horiz-adv-x="1408" 
d="M702 34q334 0 334 567t-331 567t-331 -570q0 -304 83 -434t245 -130zM1328 603q0 -287 -185 -455t-440 -168t-439 168t-184 453t184 452t440 167t440 -165t184 -452z" />
    <glyph glyph-name="P" unicode="P" 
 />
    <glyph glyph-name="Q" unicode="Q" 
 />
    <glyph glyph-name="R" unicode="R" 
 />
    <glyph glyph-name="S" unicode="S" 
 />
    <glyph glyph-name="T" unicode="T" 
 />
    <glyph glyph-name="U" unicode="U" 
 />
    <glyph glyph-name="V" unicode="V" 
 />
    <glyph glyph-name="W" unicode="W" 
 />
    <glyph glyph-name="X" unicode="X" 
 />
    <glyph glyph-name="Y" unicode="Y" 
 />
    <glyph glyph-name="Z" unicode="Z" 
 />
    <glyph glyph-name="a" unicode="a" horiz-adv-x="982" 
d="M399 64q49 0 97 55t68 135v184q-146 -4 -209 -49t-63 -139t29 -140t78 -46zM780 -20q-174 0 -202 190q-30 -90 -107 -140t-179 -50t-173 62t-71 178q0 264 516 272v130q0 214 -130 214q-76 0 -100 -79q-10 -33 -21 -67q-26 -80 -117 -80q-46 0 -73 29t-27 67q0 78 92 129
t257 51t261 -78t96 -240v-418q0 -104 46 -104q60 0 72 144l52 -2q-6 -104 -46 -156t-146 -52z" />
    <glyph glyph-name="b" unicode="b" horiz-adv-x="1110" 
d="M595 30q85 0 140 106t55 290t-48 276t-133 92t-149 -112t-64 -289t57 -270t142 -93zM704 886q150 0 245 -119t95 -329t-121 -334t-295 -124t-272 154l-14 -134h-306v52q66 0 94 22t28 82v1094h-122v50h360v-626q100 212 308 212z" />
    <glyph glyph-name="c" unicode="c" 
 />
    <glyph glyph-name="d" unicode="d" horiz-adv-x="1128" 
d="M500 72q84 0 149 111t65 289t-57 271t-142 93t-140 -106t-55 -289t48 -276t132 -93zM1092 0h-348l-28 200q-98 -220 -310 -220q-148 0 -244 119t-96 324t115 334t293 129q142 0 238 -102v466h-148v50h386v-1250h94q30 0 39 -9t9 -41z" />
    <glyph glyph-name="e" unicode="e" horiz-adv-x="932" 
d="M484 838q-156 0 -164 -338l140 -6q90 -4 125 23t35 105q0 216 -136 216zM508 -20q-188 0 -315 116t-127 332t127 338t294 122t273 -79t106 -209q0 -94 -85 -129t-273 -31l-188 4q8 -406 230 -406q86 0 159 52t107 132l50 -10q-40 -114 -135 -173t-223 -59z" />
    <glyph glyph-name="f" unicode="f" horiz-adv-x="694" 
d="M610 1302q124 0 190 -44t66 -94t-30 -79t-75 -29t-75 30t-43 66t-38 66t-61 30q-60 0 -81 -74t-21 -304v-22h218v-52h-218v-744h132q30 0 39 -10t9 -42h-570v52q152 0 152 104v640h-162v52h162v44q0 200 121 305t285 105z" />
    <glyph glyph-name="g" unicode="g" 
 />
    <glyph glyph-name="h" unicode="h" horiz-adv-x="1138" 
d="M640 52q54 0 72 21t18 83v430q0 94 -38 146t-103 52t-122 -68t-57 -196v-468h60q30 0 39 -10t9 -42h-472v52q126 0 126 104v1092h-126v52h364v-602q36 84 115 136t184 52t182 -81t77 -245v-508h76q30 0 40 -10t10 -42h-454v52z" />
    <glyph glyph-name="i" unicode="i" horiz-adv-x="568" 
d="M534 0h-488v52q64 0 94 22t30 82v650h-124v52h362v-806h78q30 0 39 -10t9 -42zM410 1116q0 -52 -36 -88t-89 -36t-90 36t-37 88t37 89t89 37t89 -37t37 -89z" />
    <glyph glyph-name="j" unicode="j" horiz-adv-x="578" 
d="M86 806v52h364v-808q0 -210 -106 -313t-244 -103q-92 0 -144 39t-52 83t26 69t66 25t64 -25t33 -56q24 -81 69 -81q34 0 42 83t8 347v688h-126zM326 992q-52 0 -89 36t-37 88t37 89t88 37t89 -37t38 -89t-37 -88t-89 -36z" />
    <glyph glyph-name="k" unicode="k" 
 />
    <glyph glyph-name="l" unicode="l" horiz-adv-x="622" 
d="M588 0h-542v52q152 0 152 104v1092h-152v52h390v-1248h104q30 0 39 -10t9 -42z" />
    <glyph glyph-name="m" unicode="m" horiz-adv-x="1622" 
d="M1126 52q56 0 77 22t21 82v434q0 96 -37 148t-92 52t-101 -56t-58 -156v-526h50q30 0 40 -10t10 -42h-434v52q54 0 76 22t22 82v434q0 94 -36 145t-92 51t-105 -63t-57 -175l-2 -496h50q30 0 39 -10t9 -42h-460v52q124 0 124 104v650h-124v52h350l8 -160q90 188 274 188
q80 0 145 -51t93 -145q96 196 284 196q110 0 186 -85t76 -233v-516h74q30 0 40 -10t10 -42h-460v52z" />
    <glyph glyph-name="n" unicode="n" horiz-adv-x="1128" 
d="M630 52q54 0 77 22t23 82v434q0 98 -39 147t-101 49t-117 -64t-63 -176l-2 -494h62q30 0 39 -10t9 -42h-472v52q124 0 124 104v650h-124v52h350l10 -166q40 88 118 141t182 53t183 -82t79 -244v-508h76q30 0 40 -10t10 -42h-464v52z" />
    <glyph glyph-name="o" unicode="o" horiz-adv-x="1032" 
d="M514 30q112 0 155 101t43 309t-41 303t-154 95t-155 -98t-42 -306t41 -306t153 -98zM968 441q0 -199 -130 -330t-326 -131t-321 130t-125 330t129 324t328 124t322 -124t123 -323z" />
    <glyph glyph-name="p" unicode="p" horiz-adv-x="1118" 
d="M406 392q0 -180 55 -269t139 -89q198 0 198 380t-182 380q-92 0 -151 -111t-59 -291zM512 -328q30 0 40 -10t10 -42h-516v52q66 0 95 22t29 82v1030h-124v52h348l10 -198q36 108 121 167t189 59q156 0 248 -119t92 -327t-123 -334t-285 -126t-238 94v-402h104z" />
    <glyph glyph-name="q" unicode="q" horiz-adv-x="1128" 
d="M512 56q80 0 133 106t53 292t-47 282t-131 96t-134 -104t-50 -296q0 -376 176 -376zM564 -380v52q74 0 104 21t30 83v386q-82 -184 -278 -184q-158 0 -260 117t-102 327t110 337t278 127t256 -92l16 64h374v-52h-134v-1134h86q30 0 39 -9t9 -43h-528z" />
    <glyph glyph-name="r" unicode="r" horiz-adv-x="798" 
d="M667 872q77 0 118 -37t41 -87t-33 -85t-81 -35q-86 0 -115 64t-54 64t-51 -23t-52 -90t-32 -163v-428h138q30 0 39 -10t9 -42h-548v52q64 0 94 22t30 82v650h-124v52h346l12 -186q32 90 109 145t154 55z" />
    <glyph glyph-name="s" unicode="s" horiz-adv-x="830" 
d="M162 260q0 -222 238 -222q150 0 150 134q0 98 -164 173q-68 31 -136 64t-116 90t-48 133q0 128 98 191t249 63t239 -56q0 38 11 53t41 15v-250h-68l-4 40q0 66 -55 107t-127 41t-121 -35t-48 -95t49 -101t116 -70t136 -61t116 -90t48 -140q0 -128 -88 -195t-254 -67
t-282 64q0 -38 -10 -50t-44 -12v304h74v-28z" />
    <glyph glyph-name="t" unicode="t" 
 />
    <glyph glyph-name="u" unicode="u" horiz-adv-x="1122" 
d="M1086 0h-348l-12 174q-40 -88 -118 -141t-184 -53t-185 78t-79 252v496h-124v52h362v-580q0 -100 41 -149t103 -49t117 64t63 176l2 486h-112v52h350v-806h76q30 0 39 -9t9 -43z" />
    <glyph glyph-name="v" unicode="v" horiz-adv-x="978" 
d="M956 808h-34q-22 0 -37 -12t-29 -50l-298 -746h-62q-56 0 -82 26t-64 118l-260 664h-84v50h456v-50h-120l230 -602l244 602h-166v50h324v-21q0 -29 -18 -29z" />
    <glyph glyph-name="w" unicode="w" 
 />
    <glyph glyph-name="x" unicode="x" 
 />
    <glyph glyph-name="y" unicode="y" 
 />
    <glyph glyph-name="z" unicode="z" 
 />
    <glyph glyph-name="ordfeminine" unicode="&#xaa;" horiz-adv-x="982" 
d="M399 64q49 0 97 55t68 135v184q-146 -4 -209 -49t-63 -139t29 -140t78 -46zM780 -20q-174 0 -202 190q-30 -90 -107 -140t-179 -50t-173 62t-71 178q0 264 516 272v130q0 214 -130 214q-76 0 -100 -79q-10 -33 -21 -67q-26 -80 -117 -80q-46 0 -73 29t-27 67q0 78 92 129
t257 51t261 -78t96 -240v-418q0 -104 46 -104q60 0 72 144l52 -2q-6 -104 -46 -156t-146 -52z" />
    <glyph glyph-name="uni00B2" unicode="&#xb2;" horiz-adv-x="894" 
 />
    <glyph glyph-name="uni00B3" unicode="&#xb3;" horiz-adv-x="802" 
 />
    <glyph glyph-name="uni00B9" unicode="&#xb9;" horiz-adv-x="930" 
d="M650 1220v-1138l178 -30q34 -6 48 -16t14 -36h-790v52l296 30v994l-310 -182l-36 56l436 270h164z" />
    <glyph glyph-name="ordmasculine" unicode="&#xba;" horiz-adv-x="1032" 
d="M514 30q112 0 155 101t43 309t-41 303t-154 95t-155 -98t-42 -306t41 -306t153 -98zM968 441q0 -199 -130 -330t-326 -131t-321 130t-125 330t129 324t328 124t322 -124t123 -323z" />
    <glyph glyph-name="onequarter" unicode="&#xbc;" 
 />
    <glyph glyph-name="onehalf" unicode="&#xbd;" 
 />
    <glyph glyph-name="threequarters" unicode="&#xbe;" 
 />
    <glyph glyph-name="Agrave" unicode="&#xc0;" 
 />
    <glyph glyph-name="Aacute" unicode="&#xc1;" 
 />
    <glyph glyph-name="Acircumflex" unicode="&#xc2;" 
 />
    <glyph glyph-name="Atilde" unicode="&#xc3;" 
 />
    <glyph glyph-name="Adieresis" unicode="&#xc4;" 
 />
    <glyph glyph-name="Aring" unicode="&#xc5;" 
 />
    <glyph glyph-name="AE" unicode="&#xc6;" horiz-adv-x="2400" 
 />
    <glyph glyph-name="Ccedilla" unicode="&#xc7;" 
 />
    <glyph glyph-name="Egrave" unicode="&#xc8;" 
 />
    <glyph glyph-name="Eacute" unicode="&#xc9;" 
 />
    <glyph glyph-name="Ecircumflex" unicode="&#xca;" 
 />
    <glyph glyph-name="Edieresis" unicode="&#xcb;" 
 />
    <glyph glyph-name="Igrave" unicode="&#xcc;" 
 />
    <glyph glyph-name="Iacute" unicode="&#xcd;" 
 />
    <glyph glyph-name="Icircumflex" unicode="&#xce;" 
 />
    <glyph glyph-name="Idieresis" unicode="&#xcf;" 
 />
    <glyph glyph-name="Eth" unicode="&#xd0;" 
 />
    <glyph glyph-name="Ntilde" unicode="&#xd1;" 
 />
    <glyph glyph-name="Ograve" unicode="&#xd2;" horiz-adv-x="1408" 
d="M702 34q334 0 334 567t-331 567t-331 -570q0 -304 83 -434t245 -130zM1328 603q0 -287 -185 -455t-440 -168t-439 168t-184 453t184 452t440 167t440 -165t184 -452z" />
    <glyph glyph-name="Oacute" unicode="&#xd3;" horiz-adv-x="1408" 
d="M702 34q334 0 334 567t-331 567t-331 -570q0 -304 83 -434t245 -130zM1328 603q0 -287 -185 -455t-440 -168t-439 168t-184 453t184 452t440 167t440 -165t184 -452z" />
    <glyph glyph-name="Ocircumflex" unicode="&#xd4;" 
 />
    <glyph glyph-name="Otilde" unicode="&#xd5;" 
 />
    <glyph glyph-name="Odieresis" unicode="&#xd6;" horiz-adv-x="1408" 
d="M702 34q334 0 334 567t-331 567t-331 -570q0 -304 83 -434t245 -130zM1328 603q0 -287 -185 -455t-440 -168t-439 168t-184 453t184 452t440 167t440 -165t184 -452z" />
    <glyph glyph-name="Oslash" unicode="&#xd8;" horiz-adv-x="1408" 
d="M702 34q334 0 334 567t-332 567h-12l20 46h-74l-25 -59q-239 -72 -239 -557v-9l-163 -386q-131 159 -131 421t184 429t440 167t440 -165t184 -452t-185 -455t-440 -168t-439 168l-3 3l120 283q17 -178 76 -270q83 -130 245 -130zM98 -64l113 267q23 -28 50 -52l-91 -215
h-72zM613 1155q37 11 79 13l-311 -734q-7 71 -7 155z" />
    <glyph glyph-name="Ugrave" unicode="&#xd9;" 
 />
    <glyph glyph-name="Uacute" unicode="&#xda;" 
 />
    <glyph glyph-name="Ucircumflex" unicode="&#xdb;" 
 />
    <glyph glyph-name="Udieresis" unicode="&#xdc;" 
 />
    <glyph glyph-name="Yacute" unicode="&#xdd;" 
 />
    <glyph glyph-name="Thorn" unicode="&#xde;" 
 />
    <glyph glyph-name="germandbls" unicode="&#xdf;" 
 />
    <glyph glyph-name="agrave" unicode="&#xe0;" horiz-adv-x="982" 
d="M399 64q49 0 97 55t68 135v184q-146 -4 -209 -49t-63 -139t29 -140t78 -46zM780 -20q-174 0 -202 190q-30 -90 -107 -140t-179 -50t-173 62t-71 178q0 264 516 272v130q0 214 -130 214q-76 0 -100 -79q-10 -33 -21 -67q-26 -80 -117 -80q-46 0 -73 29t-27 67q0 78 92 129
t257 51t261 -78t96 -240v-418q0 -104 46 -104q60 0 72 144l52 -2q-6 -104 -46 -156t-146 -52z" />
    <glyph glyph-name="aacute" unicode="&#xe1;" horiz-adv-x="982" 
d="M399 64q49 0 97 55t68 135v184q-146 -4 -209 -49t-63 -139t29 -140t78 -46zM780 -20q-174 0 -202 190q-30 -90 -107 -140t-179 -50t-173 62t-71 178q0 264 516 272v130q0 214 -130 214q-76 0 -100 -79q-10 -33 -21 -67q-26 -80 -117 -80q-46 0 -73 29t-27 67q0 78 92 129
t257 51t261 -78t96 -240v-418q0 -104 46 -104q60 0 72 144l52 -2q-6 -104 -46 -156t-146 -52z" />
    <glyph glyph-name="acircumflex" unicode="&#xe2;" 
 />
    <glyph glyph-name="atilde" unicode="&#xe3;" 
 />
    <glyph glyph-name="adieresis" unicode="&#xe4;" horiz-adv-x="982" 
d="M399 64q49 0 97 55t68 135v184q-146 -4 -209 -49t-63 -139t29 -140t78 -46zM780 -20q-174 0 -202 190q-30 -90 -107 -140t-179 -50t-173 62t-71 178q0 264 516 272v130q0 214 -130 214q-76 0 -100 -79q-10 -33 -21 -67q-26 -80 -117 -80q-46 0 -73 29t-27 67q0 78 92 129
t257 51t261 -78t96 -240v-418q0 -104 46 -104q60 0 72 144l52 -2q-6 -104 -46 -156t-146 -52z" />
    <glyph glyph-name="aring" unicode="&#xe5;" horiz-adv-x="982" 
d="M399 64q49 0 97 55t68 135v184q-146 -4 -209 -49t-63 -139t29 -140t78 -46zM780 -20q-174 0 -202 190q-30 -90 -107 -140t-179 -50t-173 62t-71 178q0 264 516 272v130q0 214 -130 214q-76 0 -100 -79q-10 -33 -21 -67q-26 -80 -117 -80q-46 0 -73 29t-27 67q0 78 92 129
t257 51t261 -78t96 -240v-418q0 -104 46 -104q60 0 72 144l52 -2q-6 -104 -46 -156t-146 -52z" />
    <glyph glyph-name="ae" unicode="&#xe6;" horiz-adv-x="1914" 
d="M399 64q49 0 97 55t68 135v184q-146 -4 -209 -49t-63 -139t29 -140t78 -46zM1466 838q-156 0 -164 -340l140 -4q90 -4 125 23t35 105q0 216 -136 216zM848 46q60 0 72 144l52 -2q-6 -104 -46 -156t-146 -52q-174 0 -202 190q-30 -90 -107 -140t-179 -50t-173 62t-71 178
q0 264 516 272v130q0 214 -130 214q-76 0 -100 -79q-10 -33 -21 -67q-26 -80 -117 -80q-46 0 -73 29t-27 67q0 78 92 129t257 51t261 -78t96 -240v-418q0 -104 46 -104zM1532 38q86 0 159 52t107 132l50 -10q-40 -114 -135 -173t-223 -59q-188 0 -315 116t-127 332t127 338
t294 122t273 -79t106 -209q0 -94 -85 -129t-273 -31l-188 4q8 -406 230 -406z" />
    <glyph glyph-name="ccedilla" unicode="&#xe7;" 
 />
    <glyph glyph-name="egrave" unicode="&#xe8;" horiz-adv-x="932" 
d="M484 838q-156 0 -164 -338l140 -6q90 -4 125 23t35 105q0 216 -136 216zM508 -20q-188 0 -315 116t-127 332t127 338t294 122t273 -79t106 -209q0 -94 -85 -129t-273 -31l-188 4q8 -406 230 -406q86 0 159 52t107 132l50 -10q-40 -114 -135 -173t-223 -59z" />
    <glyph glyph-name="eacute" unicode="&#xe9;" horiz-adv-x="932" 
d="M484 838q-156 0 -164 -338l140 -6q90 -4 125 23t35 105q0 216 -136 216zM508 -20q-188 0 -315 116t-127 332t127 338t294 122t273 -79t106 -209q0 -94 -85 -129t-273 -31l-188 4q8 -406 230 -406q86 0 159 52t107 132l50 -10q-40 -114 -135 -173t-223 -59z" />
    <glyph glyph-name="ecircumflex" unicode="&#xea;" 
 />
    <glyph glyph-name="edieresis" unicode="&#xeb;" horiz-adv-x="932" 
d="M484 838q-156 0 -164 -338l140 -6q90 -4 125 23t35 105q0 216 -136 216zM508 -20q-188 0 -315 116t-127 332t127 338t294 122t273 -79t106 -209q0 -94 -85 -129t-273 -31l-188 4q8 -406 230 -406q86 0 159 52t107 132l50 -10q-40 -114 -135 -173t-223 -59z" />
    <glyph glyph-name="igrave" unicode="&#xec;" 
 />
    <glyph glyph-name="iacute" unicode="&#xed;" 
 />
    <glyph glyph-name="icircumflex" unicode="&#xee;" 
 />
    <glyph glyph-name="idieresis" unicode="&#xef;" 
 />
    <glyph glyph-name="eth" unicode="&#xf0;" 
 />
    <glyph glyph-name="ntilde" unicode="&#xf1;" 
 />
    <glyph glyph-name="ograve" unicode="&#xf2;" horiz-adv-x="1032" 
d="M514 30q112 0 155 101t43 309t-41 303t-154 95t-155 -98t-42 -306t41 -306t153 -98zM968 441q0 -199 -130 -330t-326 -131t-321 130t-125 330t129 324t328 124t322 -124t123 -323z" />
    <glyph glyph-name="oacute" unicode="&#xf3;" horiz-adv-x="1032" 
d="M514 30q112 0 155 101t43 309t-41 303t-154 95t-155 -98t-42 -306t41 -306t153 -98zM968 441q0 -199 -130 -330t-326 -131t-321 130t-125 330t129 324t328 124t322 -124t123 -323z" />
    <glyph glyph-name="ocircumflex" unicode="&#xf4;" 
 />
    <glyph glyph-name="otilde" unicode="&#xf5;" 
 />
    <glyph glyph-name="odieresis" unicode="&#xf6;" horiz-adv-x="1032" 
d="M514 30q112 0 155 101t43 309t-41 303t-154 95t-155 -98t-42 -306t41 -306t153 -98zM968 441q0 -199 -130 -330t-326 -131t-321 130t-125 330t129 324t328 124t322 -124t123 -323z" />
    <glyph glyph-name="oslash" unicode="&#xf8;" horiz-adv-x="1032" 
d="M320 434v28l-142 -338q-112 124 -112 317t122 315t312 130l-24 -52q24 4 38 4t38 -4l-228 -534q-4 80 -4 134zM968 434q0 -192 -130 -323t-311 -131t-297 94l-60 -138h-72l80 188q26 -30 52 -50l94 226q12 -136 55 -203t145 -67t145 101t43 301t-34 294t-126 108l20 52
l-48 2q-16 0 -24 -2l138 328h74l-140 -328q178 -16 287 -138t109 -314zM320 462l156 372q-84 -16 -119 -106t-37 -266z" />
    <glyph glyph-name="ugrave" unicode="&#xf9;" horiz-adv-x="1122" 
d="M1086 0h-348l-12 174q-40 -88 -118 -141t-184 -53t-185 78t-79 252v496h-124v52h362v-580q0 -100 41 -149t103 -49t117 64t63 176l2 486h-112v52h350v-806h76q30 0 39 -9t9 -43z" />
    <glyph glyph-name="uacute" unicode="&#xfa;" horiz-adv-x="1122" 
d="M1086 0h-348l-12 174q-40 -88 -118 -141t-184 -53t-185 78t-79 252v496h-124v52h362v-580q0 -100 41 -149t103 -49t117 64t63 176l2 486h-112v52h350v-806h76q30 0 39 -9t9 -43z" />
    <glyph glyph-name="ucircumflex" unicode="&#xfb;" 
 />
    <glyph glyph-name="udieresis" unicode="&#xfc;" horiz-adv-x="1122" 
d="M1086 0h-348l-12 174q-40 -88 -118 -141t-184 -53t-185 78t-79 252v496h-124v52h362v-580q0 -100 41 -149t103 -49t117 64t63 176l2 486h-112v52h350v-806h76q30 0 39 -9t9 -43z" />
    <glyph glyph-name="yacute" unicode="&#xfd;" 
 />
    <glyph glyph-name="thorn" unicode="&#xfe;" 
 />
    <glyph glyph-name="ydieresis" unicode="&#xff;" 
 />
    <glyph glyph-name="Amacron" unicode="&#x100;" 
 />
    <glyph glyph-name="amacron" unicode="&#x101;" horiz-adv-x="982" 
d="M399 64q49 0 97 55t68 135v184q-146 -4 -209 -49t-63 -139t29 -140t78 -46zM780 -20q-174 0 -202 190q-30 -90 -107 -140t-179 -50t-173 62t-71 178q0 264 516 272v130q0 214 -130 214q-76 0 -100 -79q-10 -33 -21 -67q-26 -80 -117 -80q-46 0 -73 29t-27 67q0 78 92 129
t257 51t261 -78t96 -240v-418q0 -104 46 -104q60 0 72 144l52 -2q-6 -104 -46 -156t-146 -52z" />
    <glyph glyph-name="Abreve" unicode="&#x102;" 
 />
    <glyph glyph-name="abreve" unicode="&#x103;" 
 />
    <glyph glyph-name="Aogonek" unicode="&#x104;" 
 />
    <glyph glyph-name="aogonek" unicode="&#x105;" 
 />
    <glyph glyph-name="Cacute" unicode="&#x106;" 
 />
    <glyph glyph-name="cacute" unicode="&#x107;" 
 />
    <glyph glyph-name="Ccaron" unicode="&#x10c;" 
 />
    <glyph glyph-name="ccaron" unicode="&#x10d;" 
 />
    <glyph glyph-name="Dcaron" unicode="&#x10e;" 
 />
    <glyph glyph-name="dcaron" unicode="&#x10f;" 
 />
    <glyph glyph-name="Dcroat" unicode="&#x110;" 
 />
    <glyph glyph-name="dcroat" unicode="&#x111;" horiz-adv-x="1128" 
d="M500 72q84 0 149 111t65 289t-57 271t-142 93t-140 -106t-55 -289t48 -276t132 -93zM1092 0h-348l-28 200q-98 -220 -310 -220q-148 0 -244 119t-96 324t115 334t293 129q142 0 238 -102v466h-148v50h386v-1250h94q30 0 39 -9t9 -41z" />
    <glyph glyph-name="Emacron" unicode="&#x112;" 
 />
    <glyph glyph-name="emacron" unicode="&#x113;" horiz-adv-x="932" 
d="M484 838q-156 0 -164 -338l140 -6q90 -4 125 23t35 105q0 216 -136 216zM508 -20q-188 0 -315 116t-127 332t127 338t294 122t273 -79t106 -209q0 -94 -85 -129t-273 -31l-188 4q8 -406 230 -406q86 0 159 52t107 132l50 -10q-40 -114 -135 -173t-223 -59z" />
    <glyph glyph-name="Edotaccent" unicode="&#x116;" 
 />
    <glyph glyph-name="edotaccent" unicode="&#x117;" 
 />
    <glyph glyph-name="Eogonek" unicode="&#x118;" 
 />
    <glyph glyph-name="eogonek" unicode="&#x119;" 
 />
    <glyph glyph-name="Ecaron" unicode="&#x11a;" 
 />
    <glyph glyph-name="ecaron" unicode="&#x11b;" 
 />
    <glyph glyph-name="Gbreve" unicode="&#x11e;" 
 />
    <glyph glyph-name="gbreve" unicode="&#x11f;" 
 />
    <glyph glyph-name="uni0122" unicode="&#x122;" 
 />
    <glyph glyph-name="uni0123" unicode="&#x123;" 
 />
    <glyph glyph-name="Imacron" unicode="&#x12a;" 
 />
    <glyph glyph-name="imacron" unicode="&#x12b;" 
 />
    <glyph glyph-name="Iogonek" unicode="&#x12e;" 
 />
    <glyph glyph-name="iogonek" unicode="&#x12f;" 
 />
    <glyph glyph-name="Idotaccent" unicode="&#x130;" 
 />
    <glyph glyph-name="dotlessi" unicode="&#x131;" 
 />
    <glyph glyph-name="uni0136" unicode="&#x136;" 
 />
    <glyph glyph-name="uni0137" unicode="&#x137;" 
 />
    <glyph glyph-name="Lacute" unicode="&#x139;" 
 />
    <glyph glyph-name="lacute" unicode="&#x13a;" horiz-adv-x="622" 
d="M588 0h-542v52q152 0 152 104v1092h-152v52h390v-1248h104q30 0 39 -10t9 -42z" />
    <glyph glyph-name="uni013B" unicode="&#x13b;" 
 />
    <glyph glyph-name="uni013C" unicode="&#x13c;" 
 />
    <glyph glyph-name="Lcaron" unicode="&#x13d;" 
 />
    <glyph glyph-name="lcaron" unicode="&#x13e;" 
 />
    <glyph glyph-name="Lslash" unicode="&#x141;" 
 />
    <glyph glyph-name="lslash" unicode="&#x142;" 
 />
    <glyph glyph-name="Nacute" unicode="&#x143;" 
 />
    <glyph glyph-name="nacute" unicode="&#x144;" horiz-adv-x="1128" 
d="M630 52q54 0 77 22t23 82v434q0 98 -39 147t-101 49t-117 -64t-63 -176l-2 -494h62q30 0 39 -10t9 -42h-472v52q124 0 124 104v650h-124v52h350l10 -166q40 88 118 141t182 53t183 -82t79 -244v-508h76q30 0 40 -10t10 -42h-464v52z" />
    <glyph glyph-name="uni0145" unicode="&#x145;" 
 />
    <glyph glyph-name="uni0146" unicode="&#x146;" 
 />
    <glyph glyph-name="Ncaron" unicode="&#x147;" 
 />
    <glyph glyph-name="ncaron" unicode="&#x148;" 
 />
    <glyph glyph-name="Omacron" unicode="&#x14c;" horiz-adv-x="1408" 
d="M702 34q334 0 334 567t-331 567t-331 -570q0 -304 83 -434t245 -130zM1328 603q0 -287 -185 -455t-440 -168t-439 168t-184 453t184 452t440 167t440 -165t184 -452z" />
    <glyph glyph-name="omacron" unicode="&#x14d;" horiz-adv-x="1032" 
d="M514 30q112 0 155 101t43 309t-41 303t-154 95t-155 -98t-42 -306t41 -306t153 -98zM968 441q0 -199 -130 -330t-326 -131t-321 130t-125 330t129 324t328 124t322 -124t123 -323z" />
    <glyph glyph-name="Ohungarumlaut" unicode="&#x150;" 
 />
    <glyph glyph-name="ohungarumlaut" unicode="&#x151;" 
 />
    <glyph glyph-name="OE" unicode="&#x152;" horiz-adv-x="2608" 
d="M702 34q334 0 334 567t-331 567t-331 -570q0 -304 83 -434t245 -130zM1328 603q0 -287 -185 -455t-440 -168t-439 168t-184 453t184 452t440 167t440 -165t184 -452z" />
    <glyph glyph-name="oe" unicode="&#x153;" horiz-adv-x="1964" 
d="M514 30q112 0 155 101t43 309t-41 303t-154 95t-155 -98t-42 -306t41 -306t153 -98zM1516 838q-156 0 -164 -340l140 -4q90 -4 125 23t35 105q0 216 -136 216zM523 888q199 0 322 -124t123 -323t-130 -330t-326 -131t-321 130t-125 330t129 324t328 124zM1582 38
q86 0 159 52t107 132l50 -10q-40 -114 -135 -173t-223 -59q-188 0 -315 116t-127 332t127 338t294 122t273 -79t106 -209q0 -94 -85 -129t-273 -31l-188 4q8 -406 230 -406z" />
    <glyph glyph-name="Racute" unicode="&#x154;" 
 />
    <glyph glyph-name="racute" unicode="&#x155;" horiz-adv-x="798" 
d="M667 872q77 0 118 -37t41 -87t-33 -85t-81 -35q-86 0 -115 64t-54 64t-51 -23t-52 -90t-32 -163v-428h138q30 0 39 -10t9 -42h-548v52q64 0 94 22t30 82v650h-124v52h346l12 -186q32 90 109 145t154 55z" />
    <glyph glyph-name="uni0156" unicode="&#x156;" 
 />
    <glyph glyph-name="uni0157" unicode="&#x157;" 
 />
    <glyph glyph-name="Rcaron" unicode="&#x158;" 
 />
    <glyph glyph-name="rcaron" unicode="&#x159;" 
 />
    <glyph glyph-name="Sacute" unicode="&#x15a;" 
 />
    <glyph glyph-name="sacute" unicode="&#x15b;" horiz-adv-x="830" 
d="M162 260q0 -222 238 -222q150 0 150 134q0 98 -164 173q-68 31 -136 64t-116 90t-48 133q0 128 98 191t249 63t239 -56q0 38 11 53t41 15v-250h-68l-4 40q0 66 -55 107t-127 41t-121 -35t-48 -95t49 -101t116 -70t136 -61t116 -90t48 -140q0 -128 -88 -195t-254 -67
t-282 64q0 -38 -10 -50t-44 -12v304h74v-28z" />
    <glyph glyph-name="uni015E" unicode="&#x15e;" 
 />
    <glyph glyph-name="uni015F" unicode="&#x15f;" horiz-adv-x="830" 
d="M162 260q0 -222 238 -222q150 0 150 134q0 98 -164 173q-68 31 -136 64t-116 90t-48 133q0 128 98 191t249 63t239 -56q0 38 11 53t41 15v-250h-68l-4 40q0 66 -55 107t-127 41t-121 -35t-48 -95t49 -101t116 -70t136 -61t116 -90t48 -140q0 -128 -88 -195t-254 -67
t-282 64q0 -38 -10 -50t-44 -12v304h74v-28z" />
    <glyph glyph-name="Scaron" unicode="&#x160;" 
 />
    <glyph glyph-name="scaron" unicode="&#x161;" 
 />
    <glyph glyph-name="uni0162" unicode="&#x162;" 
 />
    <glyph glyph-name="uni0163" unicode="&#x163;" 
 />
    <glyph glyph-name="Tcaron" unicode="&#x164;" 
 />
    <glyph glyph-name="tcaron" unicode="&#x165;" 
 />
    <glyph glyph-name="Umacron" unicode="&#x16a;" 
 />
    <glyph glyph-name="umacron" unicode="&#x16b;" horiz-adv-x="1122" 
d="M1086 0h-348l-12 174q-40 -88 -118 -141t-184 -53t-185 78t-79 252v496h-124v52h362v-580q0 -100 41 -149t103 -49t117 64t63 176l2 486h-112v52h350v-806h76q30 0 39 -9t9 -43z" />
    <glyph glyph-name="Uring" unicode="&#x16e;" 
 />
    <glyph glyph-name="uring" unicode="&#x16f;" horiz-adv-x="1122" 
d="M1086 0h-348l-12 174q-40 -88 -118 -141t-184 -53t-185 78t-79 252v496h-124v52h362v-580q0 -100 41 -149t103 -49t117 64t63 176l2 486h-112v52h350v-806h76q30 0 39 -9t9 -43z" />
    <glyph glyph-name="Uhungarumlaut" unicode="&#x170;" 
 />
    <glyph glyph-name="uhungarumlaut" unicode="&#x171;" 
 />
    <glyph glyph-name="Uogonek" unicode="&#x172;" 
 />
    <glyph glyph-name="uogonek" unicode="&#x173;" 
 />
    <glyph glyph-name="Ydieresis" unicode="&#x178;" 
 />
    <glyph glyph-name="Zacute" unicode="&#x179;" 
 />
    <glyph glyph-name="zacute" unicode="&#x17a;" 
 />
    <glyph glyph-name="Zdotaccent" unicode="&#x17b;" 
 />
    <glyph glyph-name="zdotaccent" unicode="&#x17c;" 
 />
    <glyph glyph-name="Zcaron" unicode="&#x17d;" 
 />
    <glyph glyph-name="zcaron" unicode="&#x17e;" 
 />
    <glyph glyph-name="uni0218" unicode="&#x218;" 
 />
    <glyph glyph-name="uni0219" unicode="&#x219;" 
 />
    <glyph glyph-name="uni021A" unicode="&#x21a;" 
 />
    <glyph glyph-name="uni021B" unicode="&#x21b;" 
 />
    <glyph glyph-name="uni0D85" unicode="&#xd85;" horiz-adv-x="1146" 
d="M826 460q32 0 59 33t27 90t-36 111t-36 96v6q-64 -56 -64 -172v-158q18 -6 50 -6zM890 806q0 -22 26 -46t57 -44t57 -61t26 -106t-58 -108t-123 -43t-99 8v-336q170 20 270 98v-66q-96 -66 -270 -94v-438h-62v430q-64 -8 -150 -8q-240 0 -369 89t-129 231t89 224t249 82
h222q-2 64 -41 112t-98 48t-82 -32q-7 -10 -17 -30q-26 -58 -92 -58q-34 0 -59 23t-25 57q0 60 60 94t168 34t179 -74t71 -212v-8h-108q-78 0 -133 -27t-80 -69q-43 -72 -43 -148q0 -118 82 -192t238 -74q46 0 68 2v562q0 112 51 170t113 74l48 -22l-16 -8q-20 -12 -20 -34z
" />
    <glyph glyph-name="uni0D89" unicode="&#xd89;" horiz-adv-x="1186" 
d="M754 332q0 -224 -324 -224q-154 0 -259 90t-105 244q0 198 140 310t373 112t371 -120t138 -348q0 -156 -92 -270t-228 -138q110 -20 110 -138q0 -84 -85 -127t-194 -43t-181 40t-72 128q0 36 21 56t47 20t44 -15t18 -39l-8 -58q0 -84 132 -84q60 0 96 28t36 84t-50 93
t-148 37q-16 0 -36 -2v58l48 4l100 -4q148 0 239 82t91 222t-111 233t-292 93t-286 -71t-105 -203q0 -90 76 -154t213 -64t185 64q-34 -28 -92 -28t-104 45t-46 110t45 111t121 46t125 -50t49 -130zM576 454q-42 0 -71 -29t-29 -70t29 -69t71 -28t71 29t29 70t-29 69t-71 28
z" />
    <glyph glyph-name="uni0D8A" unicode="&#xd8a;" horiz-adv-x="1056" 
d="M820 936q0 -32 22 -53t54 -21t53 21t21 53t-21 54t-53 22t-54 -22t-22 -54zM764 936q0 54 39 92t93 38t92 -38t38 -92t-38 -92t-92 -38t-93 38t-39 92zM290 1076q0 -32 22 -53t54 -21t53 21t21 53t-21 54t-53 22t-54 -22t-22 -54zM234 1076q0 54 39 92t93 38t92 -38
t38 -92t-38 -92t-92 -38t-93 38t-39 92zM787 1254q37 0 56 -17t19 -41q0 -54 -144 -174q-92 -76 -224 -150q10 2 30 2q206 0 336 -142q104 -116 104 -293t-133 -308t-327 -131t-318 120t-124 306q0 270 278 418q196 103 306 279q38 61 71 96t70 35zM150 513q0 -125 80 -202
t237 -77t259 87t102 223t-84 208t-221 72t-255 -93t-118 -218z" />
    <glyph glyph-name="uni0D8B" unicode="&#xd8b;" horiz-adv-x="1302" 
d="M1078 538h-404q-350 0 -350 -308q0 -204 123 -325t290 -121t287 101t120 253h62q0 -198 -160 -329t-394 -131t-411 144t-177 376q0 170 127 282t337 112h482q-4 74 -60 126t-127 52t-109 -60t-86 -60t-71 24t-23 56q0 66 60 100t158 34q142 0 234 -86t92 -226v-14z" />
    <glyph glyph-name="uni0D91" unicode="&#xd91;" horiz-adv-x="1190" 
d="M1002 574q0 152 -60 248q-48 -104 -176 -104q-92 0 -146 70t-54 190t84 216q90 -48 186 -144q254 -254 254 -560q0 -206 -139 -348t-399 -142q-200 0 -331 81t-131 249q0 108 66 166q46 40 102 56q-164 -2 -226 -14v66h492v12q0 70 -41 118t-106 48t-87 -72
q-22 -66 -88 -66q-28 0 -51 19t-23 55q0 68 61 107t149 39q124 0 188 -82t64 -202v-28h-126q-126 0 -195 -43t-69 -113q0 -160 358 -160q222 0 333 93t111 245zM632 974q0 -74 42 -122t120 -48t106 78q-82 124 -232 234q-36 -68 -36 -142z" />
    <glyph glyph-name="uni0D94" unicode="&#xd94;" horiz-adv-x="1272" 
d="M550 724q0 -40 27 -67t65 -27t65 27t27 67t-27 66t-65 26t-65 -26t-27 -66zM295 864q105 0 105 -122v-68q0 -78 53 -121t136 -43t136 38t53 104q0 6 -2 10q-10 -30 -47 -60t-99 -30t-102 44t-40 106t43 104t123 42t132 -59t52 -151t-69 -150t-179 -58t-179 60t-69 168v66
q0 64 -52 64q-66 0 -108 -85t-42 -200t73 -203t181 -88t149 40t41 98v20h52v-22q0 -58 45 -96t129 -38q134 0 200 113t66 275q0 202 -126 344t-354 142q-264 0 -406 -176h-66q156 226 478 226q270 0 424 -186t154 -464q0 -202 -81 -348q-41 -74 -115 -117t-172 -43
q-156 0 -202 110q-60 -110 -218 -110q-84 0 -151 42t-105 110q-76 136 -76 301t65 288t170 123z" />
    <glyph glyph-name="uni0D9A" unicode="&#xd9a;" horiz-adv-x="1492" 
d="M147 594q-51 0 -70 29t-19 57q0 80 63 133t146 53t133 -46t50 -120v-8q188 176 456 176q222 0 359 -138t137 -346q0 -144 -77 -265t-225 -121q-56 0 -92 26l4 54q26 -20 86 -20t97 60t37 148q0 210 -152 324t-344 114t-308 -96q76 20 182 20q186 0 303 -98t117 -278
q0 -100 -59 -177t-188 -77t-191 128q-54 -128 -184 -128q-60 0 -101 23t-57 51q-42 74 -76 74q-68 0 -78 -124l-54 22q12 98 65 219t116 208t161 175q4 20 4 49t-19 55t-53 26q-60 0 -74 -50q-4 -16 -8 -38q-17 -94 -87 -94zM230 282q30 0 84 -23t115 -23q131 0 131 158v4
h56v-2q0 -90 36 -125t108 -35t109 43t37 101q0 86 -78 140t-234 54t-236 -38q-122 -108 -190 -280q32 26 62 26z" />
    <glyph glyph-name="uni0D9B" unicode="&#xd9b;" horiz-adv-x="1260" 
d="M186 146q0 -36 26 -62t62 -26t61 26t25 62t-25 61t-61 25t-62 -25t-26 -61zM283 294q55 0 97 -41t42 -102t-41 -107t-99 -46q-114 0 -166 114t-52 254q0 202 117 314t299 112q144 0 245 -76t101 -199t-86 -225q6 2 25 2t49 -33t68 -33q88 0 139 117t51 281
q0 226 -132 375t-352 149q-270 0 -392 -210h-68q142 262 468 262q250 0 411 -175t161 -455q0 -222 -92 -397t-244 -175q-82 0 -148 81q-22 27 -42 27q-46 0 -160 -150l-76 6q12 12 56 68t112 136q132 158 132 252q0 158 -234 158q-138 0 -237 -76t-99 -212q0 -48 10 -82
q30 86 137 86z" />
    <glyph glyph-name="uni0D9C" unicode="&#xd9c;" horiz-adv-x="1272" 
d="M466 812h-22q-124 0 -202 -94t-78 -214t71 -194t171 -74t149 34t49 82t-21 67t-48 19t-45 -12q-4 -24 -4 -40h-54q14 204 114 341t268 137t263 -125t95 -308t-120 -308t-314 -125q-18 0 -62 4v54q32 -4 48 -4q146 0 223 93t77 226t-70 217t-208 84q-102 0 -167 -57
t-81 -137q24 10 42 10q74 0 119 -59t45 -169t-79 -187t-209 -77q-160 0 -254 122t-94 303t104 312t268 131l26 -2v-50z" />
    <glyph glyph-name="uni0D9D" unicode="&#xd9d;" horiz-adv-x="1354" 
d="M626 562h-184q-92 0 -162 -50t-70 -123t55 -114t129 -41t90 14q0 113 56 155q56 41 122 41t115 -35t61 -105q6 -30 4 -50q24 -20 110 -20t144 46t58 123t-65 126t-182 49t-201 -18v22q0 128 67 205t167 77t159 -42t59 -119t-58 -109q70 -34 113 -107t43 -155
q0 -156 -92 -244t-236 -88q-72 0 -166 24q-8 10 -8 53t15 91t15 95t-31 83t-89 36q-122 0 -122 -132q0 -36 11 -77t11 -88t-8 -63q-82 -24 -158 -24q-130 0 -213 93t-83 217q0 190 170 254q-208 -4 -262 -14v68h548v8q0 68 -38 112t-101 44t-88 -69t-91 -69q-34 0 -55 19
t-21 57q0 68 61 107t149 39q126 0 189 -78t63 -198v-26zM901 632q93 0 143 -18q32 28 32 74t-41 70t-93 24q-160 0 -174 -162q40 12 133 12z" />
    <glyph glyph-name="uni0DA0" unicode="&#xda0;" horiz-adv-x="1194" 
d="M26 604h544v12q0 74 -39 120t-93 46q-82 0 -109 -70t-89 -70q-30 0 -52 20t-22 56q0 68 61 107t149 39q128 0 195 -76t67 -208v-30h-110q-134 0 -212 -42t-78 -119t102 -115t256 -38q224 0 339 108t115 297t-124 326t-320 137q-234 0 -370 -164h-68q150 214 438 214
q238 0 391 -175t153 -427t-146 -402t-414 -150q-200 0 -331 81t-131 249q0 108 66 166q40 38 96 54q-206 -2 -264 -14v68z" />
    <glyph glyph-name="uni0DA1" unicode="&#xda1;" horiz-adv-x="1196" 
d="M730 544q0 -134 124 -134q62 0 108 86q-58 72 -230 78zM1084 1234q52 0 52 -52q0 -24 -24 -40t-78 -44q-136 -71 -220 -228q112 0 180 -55t68 -165q0 -66 -26 -136q62 -76 62 -185t-75 -188q-134 -141 -427 -141q-230 0 -380 82t-150 258q0 122 94 203t256 81q36 0 52 -2
q4 28 4 58t-26 61t-80 31t-76 -47t-42 -66t-56 -19t-58 22t-22 58q0 68 59 106t149 38t151 -56t61 -156q0 -46 -8 -80q-48 4 -66 4q-154 0 -220 -51t-66 -114t62 -105q106 -72 350 -72q410 0 410 170q0 18 -2 28q-56 -76 -139 -76t-132 46t-49 144v26q-72 -4 -90 -6
q-10 34 -10 72q0 190 168 226q60 146 156 258t188 112zM630 648q0 -20 2 -28q20 4 44 4q9 84 40 176q-86 -38 -86 -152zM1002 646q0 170 -198 170h-16q-40 -88 -52 -192q165 -5 252 -66q14 44 14 88z" />
    <glyph glyph-name="uni0DA2" unicode="&#xda2;" horiz-adv-x="1196" 
d="M174 420q0 -184 407 -184t407 182q0 58 -62 107t-216 49l-112 -8q-14 44 -14 110t43 118t123 66q54 152 151 263t177 111q26 0 43 -15t17 -42t-30 -47t-85 -47t-91 -57q-88 -76 -118 -160q8 2 60 2t109 -39t57 -126t-92 -125q68 -28 109 -92t41 -165t-75 -180
q-134 -141 -427 -141q-230 0 -380 82t-150 258q0 122 94 203t256 81q36 0 52 -2q4 28 4 57t-25 63t-80 34t-85 -67t-92 -67q-36 0 -57 21t-21 57q0 68 59 106t149 38t151 -56t61 -156q0 -46 -8 -80q-48 4 -66 4q-160 0 -222 -50t-62 -106zM718 720q0 42 12 78
q-84 -38 -84 -130q0 -24 6 -50q32 4 63 4t55 -4q-52 30 -52 102zM778 717q0 -41 29 -70t71 -29t70 26t28 67t-29 70t-71 29t-70 -26t-28 -67z" />
    <glyph glyph-name="uni0DA7" unicode="&#xda7;" horiz-adv-x="1206" 
d="M176 484q0 -116 111 -182t289 -66t301 102t123 290t-124 332t-326 144q-238 0 -366 -164h-70q146 214 432 214q252 0 410 -180t158 -424t-152 -398t-386 -154t-373 114t-139 292t117 278t283 100q94 0 178 -32v-62q-78 38 -189 38t-194 -63t-83 -179z" />
    <glyph glyph-name="uni0DA9" unicode="&#xda9;" horiz-adv-x="1294" 
d="M294 388q-26 0 16 8q12 2 24 6q-14 -14 -40 -14zM494 634q116 0 116 -154l-22 4l46 -28q0 12 44 12t74 46t30 124q0 134 -80 234t-224 100t-233 -103q3 3 -2 10t-17 7q134 156 354 108q129 0 188 -81q54 -74 54 -354q0 -169 -57 -272t-173 -103q-40 0 -53 9t-18 33
t-15 38q-8 -8 -41 -37t-45 -40q-55 -51 -120 -83q-102 -36 -131 -2t21 118q54 112 140 178q2 2 6 4l4 4h2q18 16 36 56q-34 -26 -38 -56h2q24 16 28 20q4 -6 -5 -11t-25 -11v-4q0 -48 37 -83t91 -35q64 -23 73 -15q9 7 5 18t-16 33q-32 0 -52 32t-20 60t40 51t86 23l-70 18
q-86 0 -136 -40q26 66 26 122t54 110l2 -12q0 -12 18 -30t16 -18zM244 868h1h-1zM349 812q-41 0 -71 -22q14 26 20 32t16 6q106 66 232 -28q44 0 16 -24q-8 -6 -45 -33t-59 -49q-4 50 -36 84t-73 34z" />
    <glyph glyph-name="uni0DAA" unicode="&#xdaa;" horiz-adv-x="1294" 
d="M466 114q-104 0 -158 56t-54 142q0 50 10 76q56 -14 92 -14q78 -24 78 2q0 -76 98 -76q28 0 65 11t49 27q2 -2 11 -18t21 -32t40 -16q59 -35 113 -9t115 87q72 84 72 196t-58 238q0 14 -4 38q-86 -58 -160 -20q-66 16 -98 74t-26 134q12 22 34 34q-18 -104 40 -158
q46 -104 162 -72q26 0 46 20q-6 34 -34 84q32 -40 48 -62q16 24 32 66q0 -2 -4 -40t-14 -44q72 -106 102 -226t0 -218q-26 -156 -102 -240t-192 -62q-40 0 -74 20t-46 34t-36 48q-64 -80 -168 -80zM74 498q0 34 24 74t64 40h374q-2 82 -47 137t-127 55t-106 -74
q-20 -56 -32 -56q-42 0 -33 57t54 82t101 25q96 0 156 -65t62 -183h-250q-82 0 -119 -41t-37 -79q0 -10 2 -14q-86 22 -86 42zM160 456q90 -24 136 -24q-22 -16 -32 -44q-90 22 -104 68zM838 1014q-24 18 -62 38q46 -10 62 -38zM838 1014q54 -46 82 -96q-40 44 -72 70
q-2 10 -10 26zM712 1070q28 0 64 -18q-38 6 -70 -8q6 12 6 26z" />
    <glyph glyph-name="uni0DAB" unicode="&#xdab;" horiz-adv-x="1926" 
d="M894 506q-30 16 -32 6q0 -6 32 -6zM976 391q0 -13 1 -20t1 -9q20 30 28 60q-8 -4 -28 -8q-2 -10 -2 -23zM1168 426q0 -112 -48 -206q50 6 80 50t30 112q0 120 -72 154q10 -56 10 -110zM712 810q-132 0 -221 -60t-89 -162v-10q188 108 422 216q-54 16 -112 16zM1624 1056
q48 0 75 -22t27 -51t-20 -51t-62 -28q-314 -38 -422 -61t-222 -61q96 -66 138 -176q74 -10 115 -70t41 -159t-51 -161t-137 -62q-18 0 -26 2q-118 -156 -350 -156q-110 0 -190 37t-123 90t-75 106t-66 90t-81 37t-129 -54l-22 50q136 92 298 186q-2 12 -2 36q0 136 107 212
t271 76q96 0 188 -36q508 226 718 226zM1448 434q0 48 32 82t94 24q70 -30 119 -110t59 -180q24 -100 -6 -139t-112 -3q-40 26 -76 68q-18 52 -28 78q-16 50 -68 84q-14 42 -14 82v14zM730 462q0 24 48 42t99 18t77 -6q26 40 60 64q-24 106 -106 170q-216 -78 -494 -232
q24 -66 88 -98t142 -32l166 -10q-70 -46 -171 -46t-176 41t-105 115q-30 -16 -126 -74q62 0 161 -96q37 -36 113 -66t176 -30q154 0 246 82q-10 30 -10 76v26l-26 -2q-66 0 -114 17t-48 41zM1356 332q0 28 34 29t72 -23q6 -20 20 -34q30 -70 76 -128l6 -22q0 -14 -32 18
q-8 28 -55 78t-63 76q-34 26 -46 19t-12 -13z" />
    <glyph glyph-name="uni0DAC" unicode="&#xdac;" horiz-adv-x="1462" 
d="M686 1032q114 0 180 -84t84 -218q-132 148 -310 172q-56 16 -78 18q68 112 124 112zM810 408q68 0 107 62t39 168q0 46 -6 92q126 -140 164 -334q26 -162 -13 -244t-155 -60q-40 0 -74 20t-44 33t-36 49q-34 -44 -62 -62t-76 -18q-100 0 -154 56t-54 142q0 30 46 64
q52 6 78 42q2 2 5 2h5q-4 4 -6 4q14 24 14 50l16 2l-20 24q-12 0 -36 8q-36 46 4 86q-8 62 -42 114t-84 70q144 -20 164 -38q-14 62 -78 84v-4h-50q-18 -4 -43 -9l-40 -8q-132 -26 -197 -123q-66 -96 -66 -244q0 -234 154 -370v-66q-98 50 -157 170t-59 289t95 280t277 125
q32 68 136 56q-4 -6 -10 -20t-10 -20q14 0 36 -18q74 -18 111 -85t21 -155q-16 -40 -26 -56q20 -28 26 -70h6q-8 -88 94 -88zM386 784q22 0 40 -6l-38 4q-14 2 -2 2zM470 374q-68 0 -68 45v51q-18 10 -16 22q10 28 122 0q0 -34 66 -68q-2 0 -2 -4l-2 -2q-38 -14 -78 -42z
M754 547l-10 -45l-28 -6v8q4 6 12 27t17 21t9 -5z" />
    <glyph glyph-name="uni0DAD" unicode="&#xdad;" horiz-adv-x="1408" 
d="M356 692q0 80 -54 80t-58 -64q-4 -120 -90 -120q-40 0 -60 28t-20 68q0 74 53 128t127 54t116 -44t42 -116v-10q160 174 434 174q210 0 346 -139t136 -361q0 -156 -76 -264t-200 -108q-92 0 -142 34l10 54q36 -22 94 -22t95 68t37 156q0 194 -137 313t-325 119t-280 -106
q60 26 158 26q158 0 257 -81t99 -229t-96 -241t-258 -93q-100 0 -170 25t-97 56q-71 81 -119 81q-60 0 -88 -140l-46 32q18 150 107 316t197 278q8 40 8 48zM233 294q35 0 121 -28t166 -28q276 0 276 178q0 74 -65 124t-165 50q-150 0 -250 -72q-82 -100 -142 -242
q24 18 59 18z" />
    <glyph glyph-name="uni0DAE" unicode="&#xdae;" horiz-adv-x="1228" 
d="M1038 610q0 122 -54 226q-46 -102 -174 -102q-92 0 -146 70t-54 190t84 216q90 -48 186 -144t152 -192t78 -179t22 -191q0 -222 -154 -364t-382 -142t-379 131t-151 341q0 162 127 276t297 114v-52q-134 0 -231 -83t-97 -219t125 -203t318 -67t313 104t120 270zM672 984
q0 -176 152 -176q94 0 120 88q-82 124 -230 234q-42 -62 -42 -146z" />
    <glyph glyph-name="uni0DB1" unicode="&#xdb1;" horiz-adv-x="1612" 
d="M690 616q128 0 217 -80t89 -198q0 -166 -125 -253t-327 -87t-339 83t-155 235q40 -22 89 -22t84 32t89 109t116 135q14 26 14 76t-22 83t-62 33q-66 0 -76 -72q-10 -96 -88 -96q-32 0 -58 23t-26 80t53 111t147 54t145 -60t51 -162v-6q82 96 220 164t286 68
q216 0 362 -138t146 -362q0 -172 -87 -270t-215 -98q-96 0 -154 42l26 46q40 -26 100 -26t100 56t40 138q0 194 -148 320t-344 126t-302 -108q70 24 154 24zM670 564q-88 0 -149 -21t-95 -57t-57 -73q-66 -106 -117 -139q110 -38 276 -38q334 0 334 184q0 62 -52 103
t-140 41z" />
    <glyph glyph-name="uni0DB4" unicode="&#xdb4;" horiz-adv-x="1232" 
d="M398 444q16 16 64 65t80 81q-90 -90 -111 -110t-33 -36zM612 430q-8 -8 -24 -20t-22 -18q-68 -82 -54 -80q-90 -110 -67 -100q32 14 293 290q160 146 226 206q-492 -554 -504 -534q-6 8 60 88t93 113t43 51q6 4 35 32t47 44q104 108 204 218q-72 -66 -160 -144l12 12
q-92 -80 -158 -130q-4 -6 -12 -14t-12 -14zM500 388q-6 -6 -21 -19q43 43 79 91q30 26 54 49t34 31q30 24 36 36q214 200 228 214q-22 -22 -64 -63t-60 -59q130 120 158 148q-90 -90 -206 -208t-144 -146q36 32 56 48q140 136 276 272q-22 -24 -82 -87t-88 -93q36 30 38 32
q-132 -144 -158 -176q-28 -24 -46 -38q-16 -20 -24 -28q-66 -54 -90 -64q-274 -212 -258 -138q8 42 106 168q-52 -46 -6 2q48 48 58 62t14 18l-76 -74q20 22 96 98q26 34 46 56q20 16 30 26q-16 -18 -44 -50l18 18q28 28 72 69t48 46t8 7l184 166l-138 -138
q-80 -80 -130 -129t-82 -83q50 45 86 78q-116 -112 -130 -124q-94 -96 2 -2q80 72 146 137t109 106t135 133q-38 -36 -110 -107t-158 -148t-111 -105q-26 -28 -59 -56q-136 -170 -74 -150q48 14 214 148l4 4q14 7 24 22zM748 730q-149 -149 -362 -355q-212 -205 122 129
l-112 -102q34 34 133 128t253 248q64 60 96 88q-28 -32 -84 -88q10 8 28 26l-56 -56q-2 -2 -44 -50q-50 -48 -126 -122t-84 -80l-124 -126q44 42 318 312q-16 -16 -22 -24l84 84q6 6 17 18t21 21t18 17q-147 -147 -255 -270q81 88 305 320q-44 -44 -108 -100zM418 560
q-8 -16 -16 -20l-146 -138q20 20 162 158zM590 726q-53 -51 -85 -83q21 21 85 83zM656 798q-66 -66 -119 -121t-80 -80t-39 -37q2 4 56 62q84 82 182 176zM474 622q-274 -262 -282 -260t250 266q102 94 256 238q-72 -76 -224 -244zM632 822q-134 -134 -190 -194
q-228 -210 -240 -216t430 410zM374 508v4l14 14q-10 -12 -14 -18zM324 444q32 44 82 94t106 110q32 30 103 96t103 98q-264 -272 -316 -328q198 176 214 192q-22 -22 -30 -34q-32 -28 -107 -95t-107 -95l-66 -72q-2 2 8 22l-116 -102q2 2 126 114zM579 664q5 6 39 35t112 99
l-244 -244l2 4q-32 -30 -82 -73t-64 -57q4 2 12 8t14 10q-44 -38 -62 -50q-72 -62 -82 -70l14 20q22 22 68 64v-2q2 2 6 8q140 130 201 186t66 62zM505 571q13 11 18 16t5 7t2 2q6 4 18 16t52 48t154 144l-72 -72q10 8 28 25l-25 -25q-31 -30 -51 -49t-62 -61
q-20 -16 -58 -54t-126 -124q-86 -84 -95 -89t139 145q-50 -43 -61 -52q16 15 53 48l62 58q6 6 19 17zM371 448q-1 -1 -3 -2q1 0 3 2zM511 482q-67 -69 -119 -126q0 3 119 126zM511 482q15 16 31 32q-16 -17 -31 -32zM542 514l134 134q-53 -54 -134 -134zM611 623l-7 -7z
M625 636q29 28 89 82t88 80l-20 -20q-46 -42 -157 -142zM638 686l-42 -42zM920 814l-202 -202q-78 -78 -91 -88t-35 -31t-27 -25t-46 -43t-75 -65t32 46l4 2q64 68 222 234q24 22 72 70t74 72q-96 -104 -230 -256q54 50 302 286zM540 494l-2 -2q2 0 2 2zM569 528
q-10 -12 -19 -22q46 45 304 294q-14 -14 -70 -73t-162 -161t-112 -106q-37 -48 -30 -52q-2 -2 -13 -10t-7 2q6 12 42 52q-122 -114 -124 -112l14 16q0 -3 136 126q6 9 41 46z" />
    <glyph glyph-name="uni0DC0" unicode="&#xdc0;" horiz-adv-x="1194" 
d="M584 556h-168q-110 0 -173 -41t-63 -111q0 -168 360 -168q224 0 340 103t116 292t-124 331t-320 142q-234 0 -370 -164h-68q150 214 438 214q238 0 391 -175t153 -426t-147 -402t-415 -151q-200 0 -334 81t-134 249q0 128 90 203t242 75h116v8q0 74 -40 119t-94 45
q-80 0 -106 -70t-84 -70q-34 0 -56 20t-22 58q0 68 61 107t149 39q128 0 195 -76t67 -208v-24z" />
    <glyph glyph-name="uni0DC4" unicode="&#xdc4;" horiz-adv-x="1306" 
d="M132 654q-66 0 -66 82q0 42 45 85t125 43q114 0 177 -89t65 -219q-48 4 -68 4q-124 0 -197 -54t-73 -155t79 -154t191 -53t181 46t69 138q0 46 -20 71t-50 25q-48 0 -68 -60l-44 20q14 192 124 336t265 144t249 -128t94 -311t-120 -305t-304 -122q-40 0 -82 6v54
q36 -6 72 -6q148 0 243 93t95 241t-77 243t-209 95q-220 0 -286 -266q26 16 58 16q58 0 95 -52t37 -132q0 -134 -93 -213t-239 -79t-240 86t-94 223t90 218t232 81h24q0 66 -34 113t-89 47t-77 -56t-80 -56z" />
    <glyph glyph-name="fraction" unicode="&#x2044;" 
 />
    <glyph glyph-name="fi" unicode="&#xfb01;" horiz-adv-x="1262" 
d="M1180 52q30 0 39 -10t9 -42h-488v52q64 0 94 22t30 82v650h-124v52h362v-806h78zM544 1248q-60 0 -81 -74t-21 -304v-22h218v-52h-218v-744h132q30 0 39 -10t9 -42h-570v52q152 0 152 104v640h-162v52h162v44q0 200 121 305t285 105q116 0 181 -38t73 -94q34 72 116 72
q50 0 87 -37t37 -89t-36 -88t-87 -36t-88 33t-41 81q-26 -50 -81 -50t-85 30t-43 66t-38 66t-61 30zM866 1145q0 11 -1 17t-1 8q-12 -26 -12 -54v-10q14 28 14 39z" />
    <glyph glyph-name="fl" unicode="&#xfb02;" horiz-adv-x="1316" 
d="M740 52q152 0 152 104v1092h-78q52 -40 52 -87t-30 -76t-75 -29t-75 30t-43 66t-38 66t-61 30q-60 0 -81 -74t-21 -304v-22h218v-52h-218v-744h132q30 0 39 -10t9 -42h-570v52q152 0 152 104v640h-162v52h162v44q0 200 121 305t285 105q76 0 130 -18v16h390v-1248h104
q30 0 39 -10t9 -42h-542v52z" />
    <glyph glyph-name="si_DdI" horiz-adv-x="2048" 
 />
    <glyph glyph-name="si_DdIi" horiz-adv-x="1294" 
d="M464 312q-16 -16 -40 -26q-28 -44 -8 -61t60 3q50 -18 63 -7t-9 51q-36 0 -66 40zM826 1068q0 38 29 65t75 27t78 -26t32 -68t-30 -65t-77 -23t-77 26t-30 64zM511 1128q-175 0 -245 -38q26 90 312 90q84 0 216 -12q-32 -38 -36 -90q-72 50 -247 50zM812 980v-8
q-54 32 -54 98v8q54 -34 54 -98zM812 968h6q-2 0 -2 2l-4 2v-4zM230 502v18q0 -8 50 -18h-50zM280 502h82q-6 -2 -18 -10q-30 2 -64 10zM572 392q94 0 211 61t117 147q-2 204 -204 256q34 -66 14 -164q16 -8 16 -22t-19 -48t-19 -72q-24 -12 -28 -16q24 92 -32 164
q-8 80 -71 102t-135 -3t-139 -25t-81 44q-38 56 42 98q-40 26 -42 72q-6 70 64 104q-2 -4 -2 -16q0 -46 59 -64t231 -22t258 -20q-4 -56 -50 -66q240 -74 240 -366q0 -152 -78 -252t-200 -100q-186 0 -246 8q-10 -20 -21 -48t-18 -42t-17 -35t-24 -21q-74 0 -109 75t-35 159
q0 159 90 212q28 -4 168 -14l-56 -22v-14q24 20 58 36q68 -4 82 -4q-26 -30 -66 -80q12 -2 42 -2zM660 534q-10 -40 -38 -60h-26q34 38 64 60zM514 478q2 2 7 4z" />
  </font>
</defs>
</svg>
