<?xml version="1.0" standalone="no"?>
<!DOCTYPE svg PUBLIC "-//W3C//DTD SVG 1.1//EN" "http://www.w3.org/Graphics/SVG/1.1/DTD/svg11.dtd" >
<svg xmlns="http://www.w3.org/2000/svg">
<metadata>
Created by FontPrep 20130207 at Mon Jun 29 17:04:51 2015
 By Pathum Egodawatta
Copyright (c) 1997-2015 Pushpananda Ekanayake (http://isiwara.lk), Copyright (c) 2015 mooniak (http://mooniak.com)
</metadata>
<defs>
<font id="6b1ad60c44ef407415e9b237dd784990" horiz-adv-x='1024' >
  <font-face 
    font-family="AbhayaLibre-Regular"
    font-weight="400"
    font-stretch="normal"
    units-per-em="2048"
    panose-1="2 0 5 3 0 0 0 0 0 0"
    ascent="1638"
    descent="-410"
    x-height="850"
    cap-height="1220"
    bbox="-80 -430 1884 1432"
    underline-thickness="102"
    underline-position="-204"
    unicode-range="U+0020-FB02"
  />
<missing-glyph horiz-adv-x="1024" 
d="M204 102h616v888h-616v-888zM102 0v1092h820v-1092h-820z" />
    <glyph glyph-name=".notdef" horiz-adv-x="1024" 
d="M204 102h616v888h-616v-888zM102 0v1092h820v-1092h-820z" />
    <glyph glyph-name=".null" horiz-adv-x="0" 
 />
    <glyph glyph-name="nonmarkingreturn" horiz-adv-x="682" 
 />
    <glyph glyph-name="space" unicode=" " horiz-adv-x="400" 
 />
    <glyph glyph-name="dot" unicode="." horiz-adv-x="416" 
d="M82 90q0 44 33 76t77 32t77 -32t33 -76t-33 -76t-78 -32t-77 32t-32 76z" />
    <glyph glyph-name="zero" unicode="0" horiz-adv-x="908" 
 />
    <glyph glyph-name="one" unicode="1" horiz-adv-x="942" 
d="M604 1220v-1138l236 -30q43 -8 52 -21q10 -13 10 -31h-802v52l334 30v1014l-348 -204l-36 58l438 270h116z" />
    <glyph glyph-name="two" unicode="2" horiz-adv-x="894" 
 />
    <glyph glyph-name="three" unicode="3" horiz-adv-x="802" 
 />
    <glyph glyph-name="four" unicode="4" horiz-adv-x="922" 
 />
    <glyph glyph-name="five" unicode="5" horiz-adv-x="814" 
 />
    <glyph glyph-name="six" unicode="6" horiz-adv-x="862" 
 />
    <glyph glyph-name="seven" unicode="7" horiz-adv-x="844" 
 />
    <glyph glyph-name="eight" unicode="8" horiz-adv-x="798" 
 />
    <glyph glyph-name="nine" unicode="9" horiz-adv-x="862" 
 />
    <glyph glyph-name="A" unicode="A" 
 />
    <glyph glyph-name="B" unicode="B" 
 />
    <glyph glyph-name="C" unicode="C" 
 />
    <glyph glyph-name="D" unicode="D" 
 />
    <glyph glyph-name="E" unicode="E" 
 />
    <glyph glyph-name="F" unicode="F" 
 />
    <glyph glyph-name="G" unicode="G" 
 />
    <glyph glyph-name="H" unicode="H" horiz-adv-x="1440" 
d="M1360 1148h-152v-1096h102q30 0 40 -10t10 -42h-490v52h166v538h-632v-538h118q30 0 39 -10t9 -42h-490v52h152v1096h-152v52h490v-52h-166v-506h632v506h-166v52h490v-52z" />
    <glyph glyph-name="I" unicode="I" 
 />
    <glyph glyph-name="J" unicode="J" 
 />
    <glyph glyph-name="K" unicode="K" 
 />
    <glyph glyph-name="L" unicode="L" 
 />
    <glyph glyph-name="M" unicode="M" 
 />
    <glyph glyph-name="N" unicode="N" 
 />
    <glyph glyph-name="O" unicode="O" horiz-adv-x="1410" 
d="M1100 612q0 294 -110 426t-284 132t-284 -138t-110 -432t112 -432t284 -138t282 144t110 438zM1300 600q0 -282 -179 -451t-418 -169t-416 168t-177 460q0 144 52 262t137 193q178 157 411 157q152 0 283 -66t219 -211t88 -343z" />
    <glyph glyph-name="P" unicode="P" 
 />
    <glyph glyph-name="Q" unicode="Q" 
 />
    <glyph glyph-name="R" unicode="R" 
 />
    <glyph glyph-name="S" unicode="S" 
 />
    <glyph glyph-name="T" unicode="T" 
 />
    <glyph glyph-name="U" unicode="U" 
 />
    <glyph glyph-name="V" unicode="V" 
 />
    <glyph glyph-name="W" unicode="W" 
 />
    <glyph glyph-name="X" unicode="X" 
 />
    <glyph glyph-name="Y" unicode="Y" 
 />
    <glyph glyph-name="Z" unicode="Z" 
 />
    <glyph glyph-name="a" unicode="a" horiz-adv-x="970" 
d="M391 60q69 0 136 58t89 156v160q-206 -4 -292 -41t-86 -138t42 -148t111 -47zM788 -20q-148 0 -170 186q-36 -88 -121 -137t-184 -49t-171 60t-72 170q0 144 127 209t419 69v126q0 206 -184 206q-64 0 -98 -31t-42 -67q-22 -98 -90 -98q-38 0 -61 22t-23 52q0 68 88 120
t248 52q322 0 322 -302v-422q0 -104 54 -104q66 0 78 148l52 -2q-10 -208 -172 -208z" />
    <glyph glyph-name="b" unicode="b" horiz-adv-x="1100" 
d="M595 30q105 0 175 99t70 281t-57 281t-172 99t-183 -115t-68 -288t65 -265t170 -92zM680 870q166 0 253 -129t87 -324t-123 -316t-296 -121t-263 144l-8 -124h-280v52q80 0 116 20t36 84v1092h-152v52h312v-662q86 232 318 232z" />
    <glyph glyph-name="c" unicode="c" 
 />
    <glyph glyph-name="d" unicode="d" horiz-adv-x="1096" 
d="M489 60q115 0 183 115t68 288t-65 265t-170 92t-175 -99t-70 -281t57 -281t172 -99zM1046 0h-294l-16 206q-46 -118 -131 -172t-185 -54q-160 0 -250 126t-90 307t106 319t302 138q152 0 246 -106v484h-192v52h352l4 -1248h100q30 0 39 -9t9 -43z" />
    <glyph glyph-name="e" unicode="e" horiz-adv-x="938" 
d="M494 830q-94 0 -159 -83t-73 -247l200 -6q124 -4 176 23t52 111t-51 143t-145 59zM532 38q88 0 162 49t110 135l52 -10q-40 -110 -135 -171t-221 -61q-178 0 -299 119t-121 315t106 331t308 135q154 0 259 -80t105 -194t-102 -144q-87 -26 -266 -22l-230 4
q4 -204 76 -305t196 -101z" />
    <glyph glyph-name="f" unicode="f" horiz-adv-x="644" 
d="M568 1308q88 0 152 -38t64 -96q0 -32 -22 -53t-58 -21t-59 24t-35 54t-36 54t-58 24q-84 0 -114 -78t-30 -308v-20h220v-52h-220v-746h132q30 0 39 -10t9 -42h-492v52q152 0 152 104v642h-162v52h162v40q0 212 107 315t249 103z" />
    <glyph glyph-name="g" unicode="g" 
 />
    <glyph glyph-name="h" unicode="h" horiz-adv-x="1152" 
d="M652 52q128 0 128 104v390q0 112 -53 173t-134 61t-150 -79t-69 -219v-430h92q30 0 39 -10t9 -42h-454v52q154 0 154 104v1092h-154v52h314v-642q38 102 122 157t188 55t180 -84t76 -240v-494h102q30 0 40 -10t10 -42h-440v52z" />
    <glyph glyph-name="i" unicode="i" horiz-adv-x="574" 
d="M524 0h-464v52q152 0 152 104v642h-152v52h312v-798h104q30 0 39 -10t9 -42zM388 1141q0 -41 -29 -70t-70 -29t-70 29t-29 70t29 71t70 30t70 -30t29 -71z" />
    <glyph glyph-name="j" unicode="j" horiz-adv-x="542" 
d="M74 798v52h312v-870q0 -178 -88 -264t-204 -86q-72 0 -123 32t-51 73t24 65t61 24t59 -22t31 -47q25 -69 61 -69q26 0 39 17q31 41 31 297v798h-152zM303 1042q-41 0 -70 29t-29 70t29 71t70 30t70 -30t29 -71t-29 -70t-70 -29z" />
    <glyph glyph-name="k" unicode="k" 
 />
    <glyph glyph-name="l" unicode="l" horiz-adv-x="574" 
d="M524 0h-464v52q152 0 152 104v1092h-152v52h312v-1248h104q30 0 39 -10t9 -42z" />
    <glyph glyph-name="m" unicode="m" horiz-adv-x="1636" 
d="M892 652q85 218 291 218q99 0 175 -86t76 -238v-494h102q30 0 40 -10t10 -42h-440v52q128 0 128 104v410q0 106 -44 163t-111 57t-130 -60t-85 -162v-512h102q30 0 40 -10t10 -42h-440v52q128 0 128 104v410q0 106 -43 162t-116 56t-140 -83t-71 -219v-430h92
q30 0 39 -10t9 -42h-454v52q154 0 154 104v642h-154v52h304l8 -200q42 108 118 164t161 56t151 -57t90 -161z" />
    <glyph glyph-name="n" unicode="n" horiz-adv-x="1142" 
d="M652 52q128 0 128 104v410q0 104 -50 161t-131 57t-151 -80t-74 -222v-430h92q30 0 39 -10t9 -42h-454v52q154 0 154 104v642h-154v52h304l8 -200q42 108 121 164t183 56t184 -87t80 -237v-494h102q30 0 40 -10t10 -42h-440v52z" />
    <glyph glyph-name="o" unicode="o" horiz-adv-x="1026" 
d="M518 30q248 0 248 400t-253 400t-253 -400t258 -400zM946 435q0 -209 -130 -332t-304 -123t-303 124t-129 332t131 326t306 118t302 -118t127 -327z" />
    <glyph glyph-name="p" unicode="p" horiz-adv-x="1100" 
d="M840 417q0 373 -229 373q-113 0 -182 -109t-69 -292t63 -271t174 -88t177 102t66 285zM506 -328q30 0 39 -10t9 -42h-504v52q80 0 116 20t36 84v1022h-152v52h300l10 -218q42 122 127 180t193 58q166 0 253 -125t87 -301q0 -218 -125 -341t-281 -123t-252 98v-406h144z
" />
    <glyph glyph-name="q" unicode="q" horiz-adv-x="1100" 
d="M491 60q111 0 180 108t69 289t-60 272t-174 91t-180 -107t-66 -284t60 -273t171 -96zM544 -380v52q112 0 153 17t41 85l2 440q-92 -234 -314 -234q-152 0 -249 110t-97 305t108 335t302 140q148 0 256 -96l12 76h292v-52h-152v-1126h104q30 0 39 -9t9 -43h-506z" />
    <glyph glyph-name="r" unicode="r" horiz-adv-x="796" 
d="M643 862q71 0 107 -35t36 -75t-23 -63t-61 -23q-70 0 -93 59t-65 59t-106 -96t-64 -240v-396h136q30 0 39 -10t9 -42h-498v52q154 0 154 104v642h-154v52h304l8 -196q38 100 119 154t152 54z" />
    <glyph glyph-name="s" unicode="s" horiz-adv-x="808" 
d="M158 272q0 -114 66 -173t153 -59t146 38t59 102t-50 107t-121 72t-141 60t-120 86t-50 131q0 120 86 177t221 57t229 -56q0 38 12 53t42 15v-250h-50l-4 40q0 62 -57 105t-140 43t-141 -39t-54 -103t55 -105t121 -68t140 -57t119 -84t49 -130q0 -122 -94 -185t-232 -63
t-244 72q0 -38 -10 -50t-44 -12v304h54v-28z" />
    <glyph glyph-name="t" unicode="t" 
 />
    <glyph glyph-name="u" unicode="u" horiz-adv-x="1144" 
d="M1094 0h-296l-14 204q-42 -110 -122 -167t-172 -57q-286 0 -286 344v474h-154v52h314v-556q0 -116 52 -172t136 -56t154 80t74 222v430h-154v52h314v-798h106q30 0 39 -9t9 -43z" />
    <glyph glyph-name="v" unicode="v" horiz-adv-x="958" 
d="M634 850h324q0 -36 -10 -44t-42 -8t-45 -12t-29 -56l-296 -730h-32q-56 0 -85 26t-63 114l-254 658h-102v52h404v-52h-128l254 -674l270 674h-166v52z" />
    <glyph glyph-name="w" unicode="w" 
 />
    <glyph glyph-name="x" unicode="x" 
 />
    <glyph glyph-name="y" unicode="y" 
 />
    <glyph glyph-name="z" unicode="z" 
 />
    <glyph glyph-name="ordfeminine" unicode="&#xaa;" horiz-adv-x="970" 
d="M391 60q69 0 136 58t89 156v160q-206 -4 -292 -41t-86 -138t42 -148t111 -47zM788 -20q-148 0 -170 186q-36 -88 -121 -137t-184 -49t-171 60t-72 170q0 144 127 209t419 69v126q0 206 -184 206q-64 0 -98 -31t-42 -67q-22 -98 -90 -98q-38 0 -61 22t-23 52q0 68 88 120
t248 52q322 0 322 -302v-422q0 -104 54 -104q66 0 78 148l52 -2q-10 -208 -172 -208z" />
    <glyph glyph-name="uni00B2" unicode="&#xb2;" horiz-adv-x="894" 
 />
    <glyph glyph-name="uni00B3" unicode="&#xb3;" horiz-adv-x="802" 
 />
    <glyph glyph-name="uni00B9" unicode="&#xb9;" horiz-adv-x="942" 
d="M604 1220v-1138l236 -30q43 -8 52 -21q10 -13 10 -31h-802v52l334 30v1014l-348 -204l-36 58l438 270h116z" />
    <glyph glyph-name="ordmasculine" unicode="&#xba;" horiz-adv-x="1026" 
d="M518 30q248 0 248 400t-253 400t-253 -400t258 -400zM946 435q0 -209 -130 -332t-304 -123t-303 124t-129 332t131 326t306 118t302 -118t127 -327z" />
    <glyph glyph-name="onequarter" unicode="&#xbc;" 
 />
    <glyph glyph-name="onehalf" unicode="&#xbd;" 
 />
    <glyph glyph-name="threequarters" unicode="&#xbe;" 
 />
    <glyph glyph-name="Agrave" unicode="&#xc0;" 
 />
    <glyph glyph-name="Aacute" unicode="&#xc1;" 
 />
    <glyph glyph-name="Acircumflex" unicode="&#xc2;" 
 />
    <glyph glyph-name="Atilde" unicode="&#xc3;" 
 />
    <glyph glyph-name="Adieresis" unicode="&#xc4;" 
 />
    <glyph glyph-name="Aring" unicode="&#xc5;" 
d="M240 1376q-52 0 -88 -35t-36 -86t36 -87t87 -36t89 36t38 86t-37 86t-89 36zM62 1256q0 72 54 124t127 52t126 -52t53 -124t-53 -124t-125 -52t-128 52q-54 52 -54 124z" />
    <glyph glyph-name="AE" unicode="&#xc6;" horiz-adv-x="2400" 
 />
    <glyph glyph-name="Ccedilla" unicode="&#xc7;" 
 />
    <glyph glyph-name="Egrave" unicode="&#xc8;" 
 />
    <glyph glyph-name="Eacute" unicode="&#xc9;" 
 />
    <glyph glyph-name="Ecircumflex" unicode="&#xca;" 
 />
    <glyph glyph-name="Edieresis" unicode="&#xcb;" 
 />
    <glyph glyph-name="Igrave" unicode="&#xcc;" 
 />
    <glyph glyph-name="Iacute" unicode="&#xcd;" 
 />
    <glyph glyph-name="Icircumflex" unicode="&#xce;" 
 />
    <glyph glyph-name="Idieresis" unicode="&#xcf;" 
 />
    <glyph glyph-name="Eth" unicode="&#xd0;" 
 />
    <glyph glyph-name="Ntilde" unicode="&#xd1;" 
 />
    <glyph glyph-name="Ograve" unicode="&#xd2;" horiz-adv-x="1410" 
d="M1100 612q0 294 -110 426t-284 132t-284 -138t-110 -432t112 -432t284 -138t282 144t110 438zM1300 600q0 -282 -179 -451t-418 -169t-416 168t-177 460q0 144 52 262t137 193q178 157 411 157q152 0 283 -66t219 -211t88 -343z" />
    <glyph glyph-name="Oacute" unicode="&#xd3;" horiz-adv-x="1410" 
d="M1100 612q0 294 -110 426t-284 132t-284 -138t-110 -432t112 -432t284 -138t282 144t110 438zM1300 600q0 -282 -179 -451t-418 -169t-416 168t-177 460q0 144 52 262t137 193q178 157 411 157q152 0 283 -66t219 -211t88 -343z" />
    <glyph glyph-name="Ocircumflex" unicode="&#xd4;" 
 />
    <glyph glyph-name="Otilde" unicode="&#xd5;" 
 />
    <glyph glyph-name="Odieresis" unicode="&#xd6;" horiz-adv-x="1410" 
d="M1100 612q0 294 -110 426t-284 132t-284 -138t-110 -432t112 -432t284 -138t282 144t110 438zM1300 600q0 -282 -179 -451t-418 -169t-416 168t-177 460q0 144 52 262t137 193q178 157 411 157q152 0 283 -66t219 -211t88 -343z" />
    <glyph glyph-name="Oslash" unicode="&#xd8;" horiz-adv-x="1410" 
d="M1100 612q0 294 -110 426t-286 132h-11l19 44h-54l-22 -50q-127 -22 -214 -132q-110 -138 -110 -432q0 -84 9 -155l-98 -224q-113 154 -113 387q0 144 52 262t137 193q178 157 411 157q152 0 283 -66t219 -211t88 -343q0 -282 -179 -451t-428 -169t-437 200l80 182
q28 -119 88 -194q112 -138 284 -138t282 144t110 438zM98 -64l125 285q15 -21 33 -41l-108 -244h-50zM636 1164q27 5 57 6l-357 -808q-9 39 -15 83z" />
    <glyph glyph-name="Ugrave" unicode="&#xd9;" 
 />
    <glyph glyph-name="Uacute" unicode="&#xda;" 
 />
    <glyph glyph-name="Ucircumflex" unicode="&#xdb;" 
 />
    <glyph glyph-name="Udieresis" unicode="&#xdc;" 
 />
    <glyph glyph-name="Yacute" unicode="&#xdd;" 
 />
    <glyph glyph-name="Thorn" unicode="&#xde;" 
 />
    <glyph glyph-name="germandbls" unicode="&#xdf;" 
 />
    <glyph glyph-name="agrave" unicode="&#xe0;" horiz-adv-x="970" 
d="M391 60q69 0 136 58t89 156v160q-206 -4 -292 -41t-86 -138t42 -148t111 -47zM788 -20q-148 0 -170 186q-36 -88 -121 -137t-184 -49t-171 60t-72 170q0 144 127 209t419 69v126q0 206 -184 206q-64 0 -98 -31t-42 -67q-22 -98 -90 -98q-38 0 -61 22t-23 52q0 68 88 120
t248 52q322 0 322 -302v-422q0 -104 54 -104q66 0 78 148l52 -2q-10 -208 -172 -208z" />
    <glyph glyph-name="aacute" unicode="&#xe1;" horiz-adv-x="970" 
d="M391 60q69 0 136 58t89 156v160q-206 -4 -292 -41t-86 -138t42 -148t111 -47zM788 -20q-148 0 -170 186q-36 -88 -121 -137t-184 -49t-171 60t-72 170q0 144 127 209t419 69v126q0 206 -184 206q-64 0 -98 -31t-42 -67q-22 -98 -90 -98q-38 0 -61 22t-23 52q0 68 88 120
t248 52q322 0 322 -302v-422q0 -104 54 -104q66 0 78 148l52 -2q-10 -208 -172 -208z" />
    <glyph glyph-name="acircumflex" unicode="&#xe2;" 
 />
    <glyph glyph-name="atilde" unicode="&#xe3;" 
 />
    <glyph glyph-name="adieresis" unicode="&#xe4;" horiz-adv-x="970" 
d="M391 60q69 0 136 58t89 156v160q-206 -4 -292 -41t-86 -138t42 -148t111 -47zM788 -20q-148 0 -170 186q-36 -88 -121 -137t-184 -49t-171 60t-72 170q0 144 127 209t419 69v126q0 206 -184 206q-64 0 -98 -31t-42 -67q-22 -98 -90 -98q-38 0 -61 22t-23 52q0 68 88 120
t248 52q322 0 322 -302v-422q0 -104 54 -104q66 0 78 148l52 -2q-10 -208 -172 -208z" />
    <glyph glyph-name="aring" unicode="&#xe5;" horiz-adv-x="970" 
d="M391 60q69 0 136 58t89 156v160q-206 -4 -292 -41t-86 -138t42 -148t111 -47zM788 -20q-148 0 -170 186q-36 -88 -121 -137t-184 -49t-171 60t-72 170q0 144 127 209t419 69v126q0 206 -184 206q-64 0 -98 -31t-42 -67q-22 -98 -90 -98q-38 0 -61 22t-23 52q0 68 88 120
t248 52q322 0 322 -302v-422q0 -104 54 -104q66 0 78 148l52 -2q-10 -208 -172 -208zM240 1376q-52 0 -88 -35t-36 -86t36 -87t87 -36t89 36t38 86t-37 86t-89 36zM62 1256q0 72 54 124t127 52t126 -52t53 -124t-53 -124t-125 -52t-128 52q-54 52 -54 124z" />
    <glyph glyph-name="ae" unicode="&#xe6;" horiz-adv-x="1908" 
d="M391 60q69 0 136 58t89 156v160q-206 -4 -292 -41t-86 -138t42 -148t111 -47zM1464 830q-94 0 -159 -83t-73 -247l200 -6q124 -4 176 23t52 111t-51 143t-145 59zM830 42q66 0 78 148l52 -2q-10 -208 -172 -208q-148 0 -170 186q-36 -88 -121 -137t-184 -49t-171 60
t-72 170q0 144 127 209t419 69v126q0 206 -184 206q-64 0 -98 -31t-42 -67q-22 -98 -90 -98q-38 0 -61 22t-23 52q0 68 88 120t248 52q322 0 322 -302v-422q0 -104 54 -104zM1502 38q88 0 162 49t110 135l52 -10q-40 -110 -135 -171t-221 -61q-178 0 -299 119t-121 315
t106 331t308 135q154 0 259 -80t105 -194t-102 -144q-87 -26 -266 -22l-230 4q4 -204 77 -305t195 -101z" />
    <glyph glyph-name="ccedilla" unicode="&#xe7;" 
 />
    <glyph glyph-name="egrave" unicode="&#xe8;" horiz-adv-x="938" 
d="M494 830q-94 0 -159 -83t-73 -247l200 -6q124 -4 176 23t52 111t-51 143t-145 59zM532 38q88 0 162 49t110 135l52 -10q-40 -110 -135 -171t-221 -61q-178 0 -299 119t-121 315t106 331t308 135q154 0 259 -80t105 -194t-102 -144q-87 -26 -266 -22l-230 4
q4 -204 76 -305t196 -101z" />
    <glyph glyph-name="eacute" unicode="&#xe9;" horiz-adv-x="938" 
d="M494 830q-94 0 -159 -83t-73 -247l200 -6q124 -4 176 23t52 111t-51 143t-145 59zM532 38q88 0 162 49t110 135l52 -10q-40 -110 -135 -171t-221 -61q-178 0 -299 119t-121 315t106 331t308 135q154 0 259 -80t105 -194t-102 -144q-87 -26 -266 -22l-230 4
q4 -204 76 -305t196 -101z" />
    <glyph glyph-name="ecircumflex" unicode="&#xea;" 
 />
    <glyph glyph-name="edieresis" unicode="&#xeb;" horiz-adv-x="938" 
d="M494 830q-94 0 -159 -83t-73 -247l200 -6q124 -4 176 23t52 111t-51 143t-145 59zM532 38q88 0 162 49t110 135l52 -10q-40 -110 -135 -171t-221 -61q-178 0 -299 119t-121 315t106 331t308 135q154 0 259 -80t105 -194t-102 -144q-87 -26 -266 -22l-230 4
q4 -204 76 -305t196 -101z" />
    <glyph glyph-name="igrave" unicode="&#xec;" 
 />
    <glyph glyph-name="iacute" unicode="&#xed;" 
 />
    <glyph glyph-name="icircumflex" unicode="&#xee;" 
 />
    <glyph glyph-name="idieresis" unicode="&#xef;" 
 />
    <glyph glyph-name="eth" unicode="&#xf0;" 
 />
    <glyph glyph-name="ntilde" unicode="&#xf1;" 
 />
    <glyph glyph-name="ograve" unicode="&#xf2;" horiz-adv-x="1026" 
d="M518 30q248 0 248 400t-253 400t-253 -400t258 -400zM946 435q0 -209 -130 -332t-304 -123t-303 124t-129 332t131 326t306 118t302 -118t127 -327z" />
    <glyph glyph-name="oacute" unicode="&#xf3;" horiz-adv-x="1026" 
d="M518 30q248 0 248 400t-253 400t-253 -400t258 -400zM946 435q0 -209 -130 -332t-304 -123t-303 124t-129 332t131 326t306 118t302 -118t127 -327z" />
    <glyph glyph-name="ocircumflex" unicode="&#xf4;" 
 />
    <glyph glyph-name="otilde" unicode="&#xf5;" 
 />
    <glyph glyph-name="odieresis" unicode="&#xf6;" horiz-adv-x="1026" 
d="M518 30q248 0 248 400t-253 400t-253 -400t258 -400zM946 435q0 -209 -130 -332t-304 -123t-303 124t-129 332t131 326t306 118t302 -118t127 -327z" />
    <glyph glyph-name="oslash" unicode="&#xf8;" horiz-adv-x="1026" 
d="M80 449q0 193 129 310t303 121l-22 -50h22q20 0 30 -2l-262 -590q-6 26 -14 82l-82 -188q-104 124 -104 317zM518 880h-6l146 334h54l-148 -336q160 -16 271 -132t111 -318t-130 -325t-303 -123t-295 116l-70 -160h-50l86 196q14 -18 34 -36l62 142q56 -208 238 -208
q248 0 248 410q0 366 -224 388l22 50q-16 2 -46 2zM260 432q0 -60 6 -112l224 510q-230 -18 -230 -398z" />
    <glyph glyph-name="ugrave" unicode="&#xf9;" horiz-adv-x="1144" 
d="M1094 0h-296l-14 204q-42 -110 -122 -167t-172 -57q-286 0 -286 344v474h-154v52h314v-556q0 -116 52 -172t136 -56t154 80t74 222v430h-154v52h314v-798h106q30 0 39 -9t9 -43z" />
    <glyph glyph-name="uacute" unicode="&#xfa;" horiz-adv-x="1144" 
d="M1094 0h-296l-14 204q-42 -110 -122 -167t-172 -57q-286 0 -286 344v474h-154v52h314v-556q0 -116 52 -172t136 -56t154 80t74 222v430h-154v52h314v-798h106q30 0 39 -9t9 -43z" />
    <glyph glyph-name="ucircumflex" unicode="&#xfb;" 
 />
    <glyph glyph-name="udieresis" unicode="&#xfc;" horiz-adv-x="1144" 
d="M1094 0h-296l-14 204q-42 -110 -122 -167t-172 -57q-286 0 -286 344v474h-154v52h314v-556q0 -116 52 -172t136 -56t154 80t74 222v430h-154v52h314v-798h106q30 0 39 -9t9 -43z" />
    <glyph glyph-name="yacute" unicode="&#xfd;" 
 />
    <glyph glyph-name="thorn" unicode="&#xfe;" 
 />
    <glyph glyph-name="ydieresis" unicode="&#xff;" 
 />
    <glyph glyph-name="Amacron" unicode="&#x100;" 
 />
    <glyph glyph-name="amacron" unicode="&#x101;" horiz-adv-x="970" 
d="M391 60q69 0 136 58t89 156v160q-206 -4 -292 -41t-86 -138t42 -148t111 -47zM788 -20q-148 0 -170 186q-36 -88 -121 -137t-184 -49t-171 60t-72 170q0 144 127 209t419 69v126q0 206 -184 206q-64 0 -98 -31t-42 -67q-22 -98 -90 -98q-38 0 -61 22t-23 52q0 68 88 120
t248 52q322 0 322 -302v-422q0 -104 54 -104q66 0 78 148l52 -2q-10 -208 -172 -208z" />
    <glyph glyph-name="Abreve" unicode="&#x102;" 
 />
    <glyph glyph-name="abreve" unicode="&#x103;" 
 />
    <glyph glyph-name="Aogonek" unicode="&#x104;" 
 />
    <glyph glyph-name="aogonek" unicode="&#x105;" 
 />
    <glyph glyph-name="Cacute" unicode="&#x106;" 
 />
    <glyph glyph-name="cacute" unicode="&#x107;" 
 />
    <glyph glyph-name="Ccaron" unicode="&#x10c;" 
 />
    <glyph glyph-name="ccaron" unicode="&#x10d;" 
 />
    <glyph glyph-name="Dcaron" unicode="&#x10e;" 
 />
    <glyph glyph-name="dcaron" unicode="&#x10f;" 
 />
    <glyph glyph-name="Dcroat" unicode="&#x110;" 
 />
    <glyph glyph-name="dcroat" unicode="&#x111;" horiz-adv-x="1096" 
d="M489 60q115 0 183 115t68 288t-65 265t-170 92t-175 -99t-70 -281t57 -281t172 -99zM1046 0h-294l-16 206q-46 -118 -131 -172t-185 -54q-160 0 -250 126t-90 307t106 319t302 138q152 0 246 -106v484h-192v52h352l4 -1248h100q30 0 39 -9t9 -43z" />
    <glyph glyph-name="Emacron" unicode="&#x112;" 
 />
    <glyph glyph-name="emacron" unicode="&#x113;" horiz-adv-x="938" 
d="M494 830q-94 0 -159 -83t-73 -247l200 -6q124 -4 176 23t52 111t-51 143t-145 59zM532 38q88 0 162 49t110 135l52 -10q-40 -110 -135 -171t-221 -61q-178 0 -299 119t-121 315t106 331t308 135q154 0 259 -80t105 -194t-102 -144q-87 -26 -266 -22l-230 4
q4 -204 76 -305t196 -101z" />
    <glyph glyph-name="Edotaccent" unicode="&#x116;" 
 />
    <glyph glyph-name="edotaccent" unicode="&#x117;" 
 />
    <glyph glyph-name="Eogonek" unicode="&#x118;" 
 />
    <glyph glyph-name="eogonek" unicode="&#x119;" 
 />
    <glyph glyph-name="Ecaron" unicode="&#x11a;" 
 />
    <glyph glyph-name="ecaron" unicode="&#x11b;" 
 />
    <glyph glyph-name="Gbreve" unicode="&#x11e;" 
 />
    <glyph glyph-name="gbreve" unicode="&#x11f;" 
 />
    <glyph glyph-name="uni0122" unicode="&#x122;" 
 />
    <glyph glyph-name="uni0123" unicode="&#x123;" 
 />
    <glyph glyph-name="Imacron" unicode="&#x12a;" 
 />
    <glyph glyph-name="imacron" unicode="&#x12b;" 
 />
    <glyph glyph-name="Iogonek" unicode="&#x12e;" 
 />
    <glyph glyph-name="iogonek" unicode="&#x12f;" 
 />
    <glyph glyph-name="Idotaccent" unicode="&#x130;" 
 />
    <glyph glyph-name="dotlessi" unicode="&#x131;" 
 />
    <glyph glyph-name="uni0136" unicode="&#x136;" 
 />
    <glyph glyph-name="uni0137" unicode="&#x137;" 
 />
    <glyph glyph-name="Lacute" unicode="&#x139;" 
 />
    <glyph glyph-name="lacute" unicode="&#x13a;" horiz-adv-x="574" 
d="M524 0h-464v52q152 0 152 104v1092h-152v52h312v-1248h104q30 0 39 -10t9 -42z" />
    <glyph glyph-name="uni013B" unicode="&#x13b;" 
 />
    <glyph glyph-name="uni013C" unicode="&#x13c;" 
 />
    <glyph glyph-name="Lcaron" unicode="&#x13d;" 
 />
    <glyph glyph-name="lcaron" unicode="&#x13e;" 
 />
    <glyph glyph-name="Lslash" unicode="&#x141;" 
 />
    <glyph glyph-name="lslash" unicode="&#x142;" 
 />
    <glyph glyph-name="Nacute" unicode="&#x143;" 
 />
    <glyph glyph-name="nacute" unicode="&#x144;" horiz-adv-x="1142" 
d="M652 52q128 0 128 104v410q0 104 -50 161t-131 57t-151 -80t-74 -222v-430h92q30 0 39 -10t9 -42h-454v52q154 0 154 104v642h-154v52h304l8 -200q42 108 121 164t183 56t184 -87t80 -237v-494h102q30 0 40 -10t10 -42h-440v52z" />
    <glyph glyph-name="uni0145" unicode="&#x145;" 
 />
    <glyph glyph-name="uni0146" unicode="&#x146;" 
 />
    <glyph glyph-name="Ncaron" unicode="&#x147;" 
 />
    <glyph glyph-name="ncaron" unicode="&#x148;" 
 />
    <glyph glyph-name="Omacron" unicode="&#x14c;" horiz-adv-x="1410" 
d="M1100 612q0 294 -110 426t-284 132t-284 -138t-110 -432t112 -432t284 -138t282 144t110 438zM1300 600q0 -282 -179 -451t-418 -169t-416 168t-177 460q0 144 52 262t137 193q178 157 411 157q152 0 283 -66t219 -211t88 -343z" />
    <glyph glyph-name="omacron" unicode="&#x14d;" horiz-adv-x="1026" 
d="M518 30q248 0 248 400t-253 400t-253 -400t258 -400zM946 435q0 -209 -130 -332t-304 -123t-303 124t-129 332t131 326t306 118t302 -118t127 -327z" />
    <glyph glyph-name="Ohungarumlaut" unicode="&#x150;" 
 />
    <glyph glyph-name="ohungarumlaut" unicode="&#x151;" 
 />
    <glyph glyph-name="OE" unicode="&#x152;" horiz-adv-x="2610" 
d="M1100 612q0 294 -110 426t-284 132t-284 -138t-110 -432t112 -432t284 -138t282 144t110 438zM1300 600q0 -282 -179 -451t-418 -169t-416 168t-177 460q0 144 52 262t137 193q178 157 411 157q152 0 283 -66t219 -211t88 -343z" />
    <glyph glyph-name="oe" unicode="&#x153;" horiz-adv-x="1964" 
d="M1520 830q-94 0 -159 -83t-73 -247l200 -6q124 -4 176 23t52 111t-51 143t-145 59zM518 30q248 0 248 400t-253 400t-253 -400t258 -400zM1558 38q88 0 162 49t110 135l52 -10q-40 -110 -135 -171t-221 -61q-178 0 -299 119t-121 315t106 331t308 135q154 0 259 -80
t105 -194t-102 -144q-87 -26 -266 -22l-230 4q4 -204 77 -305t195 -101zM517 880q175 0 302 -118t127 -327t-130 -332t-304 -123t-303 124t-129 332t131 326t306 118z" />
    <glyph glyph-name="Racute" unicode="&#x154;" 
 />
    <glyph glyph-name="racute" unicode="&#x155;" horiz-adv-x="796" 
d="M643 862q71 0 107 -35t36 -75t-23 -63t-61 -23q-70 0 -93 59t-65 59t-106 -96t-64 -240v-396h136q30 0 39 -10t9 -42h-498v52q154 0 154 104v642h-154v52h304l8 -196q38 100 119 154t152 54z" />
    <glyph glyph-name="uni0156" unicode="&#x156;" 
 />
    <glyph glyph-name="uni0157" unicode="&#x157;" 
 />
    <glyph glyph-name="Rcaron" unicode="&#x158;" 
 />
    <glyph glyph-name="rcaron" unicode="&#x159;" 
 />
    <glyph glyph-name="Sacute" unicode="&#x15a;" 
 />
    <glyph glyph-name="sacute" unicode="&#x15b;" horiz-adv-x="808" 
d="M158 272q0 -114 66 -173t153 -59t146 38t59 102t-50 107t-121 72t-141 60t-120 86t-50 131q0 120 86 177t221 57t229 -56q0 38 12 53t42 15v-250h-50l-4 40q0 62 -57 105t-140 43t-141 -39t-54 -103t55 -105t121 -68t140 -57t119 -84t49 -130q0 -122 -94 -185t-232 -63
t-244 72q0 -38 -10 -50t-44 -12v304h54v-28z" />
    <glyph glyph-name="uni015E" unicode="&#x15e;" 
 />
    <glyph glyph-name="uni015F" unicode="&#x15f;" horiz-adv-x="808" 
d="M158 272q0 -114 66 -173t153 -59t146 38t59 102t-50 107t-121 72t-141 60t-120 86t-50 131q0 120 86 177t221 57t229 -56q0 38 12 53t42 15v-250h-50l-4 40q0 62 -57 105t-140 43t-141 -39t-54 -103t55 -105t121 -68t140 -57t119 -84t49 -130q0 -122 -94 -185t-232 -63
t-244 72q0 -38 -10 -50t-44 -12v304h54v-28z" />
    <glyph glyph-name="Scaron" unicode="&#x160;" 
 />
    <glyph glyph-name="scaron" unicode="&#x161;" 
 />
    <glyph glyph-name="uni0162" unicode="&#x162;" 
 />
    <glyph glyph-name="uni0163" unicode="&#x163;" 
 />
    <glyph glyph-name="Tcaron" unicode="&#x164;" 
 />
    <glyph glyph-name="tcaron" unicode="&#x165;" 
 />
    <glyph glyph-name="Umacron" unicode="&#x16a;" 
 />
    <glyph glyph-name="umacron" unicode="&#x16b;" horiz-adv-x="1144" 
d="M1094 0h-296l-14 204q-42 -110 -122 -167t-172 -57q-286 0 -286 344v474h-154v52h314v-556q0 -116 52 -172t136 -56t154 80t74 222v430h-154v52h314v-798h106q30 0 39 -9t9 -43z" />
    <glyph glyph-name="Uring" unicode="&#x16e;" 
d="M240 1376q-52 0 -88 -35t-36 -86t36 -87t87 -36t89 36t38 86t-37 86t-89 36zM62 1256q0 72 54 124t127 52t126 -52t53 -124t-53 -124t-125 -52t-128 52q-54 52 -54 124z" />
    <glyph glyph-name="uring" unicode="&#x16f;" horiz-adv-x="1144" 
d="M1094 0h-296l-14 204q-42 -110 -122 -167t-172 -57q-286 0 -286 344v474h-154v52h314v-556q0 -116 52 -172t136 -56t154 80t74 222v430h-154v52h314v-798h106q30 0 39 -9t9 -43zM240 1376q-52 0 -88 -35t-36 -86t36 -87t87 -36t89 36t38 86t-37 86t-89 36zM62 1256
q0 72 54 124t127 52t126 -52t53 -124t-53 -124t-125 -52t-128 52q-54 52 -54 124z" />
    <glyph glyph-name="Uhungarumlaut" unicode="&#x170;" 
 />
    <glyph glyph-name="uhungarumlaut" unicode="&#x171;" 
 />
    <glyph glyph-name="Uogonek" unicode="&#x172;" 
 />
    <glyph glyph-name="uogonek" unicode="&#x173;" 
 />
    <glyph glyph-name="Ydieresis" unicode="&#x178;" 
 />
    <glyph glyph-name="Zacute" unicode="&#x179;" 
 />
    <glyph glyph-name="zacute" unicode="&#x17a;" 
 />
    <glyph glyph-name="Zdotaccent" unicode="&#x17b;" 
 />
    <glyph glyph-name="zdotaccent" unicode="&#x17c;" 
 />
    <glyph glyph-name="Zcaron" unicode="&#x17d;" 
 />
    <glyph glyph-name="zcaron" unicode="&#x17e;" 
 />
    <glyph glyph-name="uni0218" unicode="&#x218;" 
 />
    <glyph glyph-name="uni0219" unicode="&#x219;" 
 />
    <glyph glyph-name="uni021A" unicode="&#x21a;" 
 />
    <glyph glyph-name="uni021B" unicode="&#x21b;" 
 />
    <glyph glyph-name="uni0D85" unicode="&#xd85;" horiz-adv-x="1146" 
d="M890 810q0 -26 25 -51t56 -46t56 -61t25 -102t-58 -106t-138 -44q-38 0 -80 12v-352q166 26 270 106v-64q-96 -66 -270 -94v-438h-58v430q-64 -8 -154 -8q-240 0 -369 89t-129 231t89 224t249 82h228q-2 70 -43 119t-105 49t-89 -35q-9 -13 -19 -35q-24 -54 -82 -54
q-34 0 -58 21t-24 55q0 60 60 94t150 34q128 0 200 -75t72 -211v-6h-190q-186 0 -250 -128q-28 -56 -28 -118q0 -126 88 -204t280 -78q68 0 124 6v574q0 114 50 172t110 72l46 -22q-34 -12 -34 -38zM833 458q35 0 65 31t30 98t-43 117q-43 51 -43 92v4q-66 -56 -66 -170
v-164q22 -8 57 -8z" />
    <glyph glyph-name="uni0D89" unicode="&#xd89;" horiz-adv-x="1186" 
d="M576 464q-42 0 -72 -30t-30 -71t30 -70t72 -29t72 30t30 71t-30 70t-72 29zM600 -274q64 0 107 27t43 86t-58 95t-158 36q-16 0 -36 -2v56q24 2 48 2l102 -4q154 0 259 90t105 250t-127 256t-310 96t-306 -79t-123 -227q0 -106 85 -176t234 -70t201 78q-38 -30 -98 -30
t-106 44t-46 108t45 111t120 47t123 -50t48 -130q0 -116 -85 -174t-238 -58t-258 90t-105 244q0 198 140 310t373 112t371 -120t138 -348q0 -156 -92 -270t-228 -138q110 -20 110 -138q0 -84 -85 -127t-194 -43t-181 40t-72 128q0 36 20 56t46 20t42 -15t16 -39l-8 -58
q0 -86 138 -86z" />
    <glyph glyph-name="uni0D8A" unicode="&#xd8a;" horiz-adv-x="1056" 
d="M132 477q0 -145 95 -238t254 -93t269 103t110 255t-94 238t-242 86t-270 -103t-122 -248zM826 1246q38 0 38 -36q0 -60 -128 -166t-242 -172q10 2 30 2q206 0 336 -142q104 -116 104 -293t-133 -308t-327 -131t-318 120t-124 289t74 265t204 170q250 131 351 279
q39 57 68 90t67 33zM236 1076q0 54 38 91t92 37t91 -37t37 -91t-37 -91t-91 -37t-92 37t-38 91zM290 1076q0 -32 22 -54t54 -22t54 22t22 54t-22 54t-54 22t-54 -22t-22 -54zM766 936q0 54 38 91t92 37t91 -37t37 -91t-37 -91t-91 -37t-92 37t-38 91zM820 936q0 -32 22 -54
t54 -22t54 22t22 54t-22 54t-54 22t-54 -22t-22 -54z" />
    <glyph glyph-name="uni0D8B" unicode="&#xd8b;" horiz-adv-x="1302" 
d="M1078 542h-482q-182 0 -280 -88t-98 -234q0 -206 136 -341t328 -135t329 116t137 278h58q0 -198 -160 -329t-394 -131t-411 144t-177 376q0 170 127 282t337 112h486q-4 76 -62 132t-136 56t-122 -72q-34 -52 -75 -52t-63 22t-22 52q0 66 60 100t158 34q142 0 234 -86
t92 -226v-10z" />
    <glyph glyph-name="uni0D91" unicode="&#xd91;" horiz-adv-x="1190" 
d="M626 968q0 -178 154 -178q98 0 124 90q-82 128 -236 240q-42 -64 -42 -152zM32 604h494v12q0 72 -41 123t-97 51q-82 0 -112 -80q-24 -64 -76 -64q-28 0 -50 18t-22 54q0 68 61 107t149 39q124 0 188 -82t64 -202v-26h-128q-130 0 -214 -53t-84 -141q0 -169 255 -208
q65 -10 139 -10q226 0 347 105t121 281t-84 296q-48 -106 -176 -106q-92 0 -146 70t-54 190t84 216q90 -48 186 -144q254 -254 254 -560q0 -206 -139 -348t-399 -142q-200 0 -331 81t-131 249q0 108 59 160t119 64h-10q-164 -2 -226 -14v64z" />
    <glyph glyph-name="uni0D94" unicode="&#xd94;" horiz-adv-x="1272" 
d="M294 864q104 0 104 -122v-68q0 -78 54 -123t137 -45t136 40t53 106q0 6 -2 10q-14 -28 -50 -56t-97 -28t-100 42t-39 103t43 103t120 42t130 -59t53 -150t-69 -151t-176 -60t-177 62t-70 168v66q0 68 -54 68q-72 0 -120 -94t-48 -231t77 -242t189 -105t155 42t43 100v52
h48v-54q0 -64 52 -101t134 -37q136 0 212 130t76 300q0 228 -139 383t-373 155q-270 0 -412 -178h-60q156 224 480 224q266 0 421 -186t155 -462q0 -202 -81 -348q-41 -74 -115 -117t-172 -43q-156 0 -202 110q-60 -110 -218 -110q-84 0 -151 42t-105 110q-76 136 -76 301
t65 288t169 123zM548 726q0 -38 28 -66t66 -28t66 28t28 66t-28 66t-66 28t-66 -28t-28 -66z" />
    <glyph glyph-name="uni0D9A" unicode="&#xd9a;" horiz-adv-x="1492" 
d="M180 200q20 0 87 -29t138 -29t114 47t43 135v2h52v-2q0 -96 41 -139t127 -43t126 55t40 121q0 122 -94 190t-256 68t-242 -38q-48 -42 -115 -137t-101 -211q20 10 40 10zM143 594q-49 0 -67 29t-18 57q0 80 63 133t146 53t133 -46t50 -120v-8q188 176 456 176
q222 0 359 -138t137 -346q0 -144 -77 -265t-225 -121q-54 0 -92 26l4 52q30 -24 102 -24t128 73t56 181q0 192 -145 311t-365 119t-360 -128q68 18 182 18q186 0 303 -98t117 -276q0 -100 -59 -177t-188 -77t-191 128q-54 -128 -184 -128q-60 0 -101 23t-57 51
q-42 74 -76 74q-70 0 -80 -124l-52 22q12 98 65 219t116 208t163 177q4 20 4 50t-19 58t-50 28q-72 0 -89 -58q-6 -22 -9 -42q-14 -90 -80 -90z" />
    <glyph glyph-name="uni0D9B" unicode="&#xd9b;" horiz-adv-x="1260" 
d="M283 290q55 0 96 -40t41 -100t-41 -106t-97 -46q-114 0 -166 114t-52 254q0 202 117 314t299 112q144 0 245 -76t101 -200q0 -156 -134 -286q6 2 25 2t61 -49t90 -49q94 0 159 151t65 317q0 248 -139 399t-365 151q-272 0 -394 -212h-66q142 262 468 262q250 0 411 -175
t161 -455q0 -222 -92 -397t-244 -175q-82 0 -148 81q-22 27 -42 27q-48 0 -162 -150l-72 6q12 12 56 68t112 136q158 188 158 296q0 176 -262 176q-136 0 -241 -84t-105 -244q0 -60 18 -110q12 40 48 64t91 24zM186 144q0 -36 25 -61t61 -25t61 25t25 61t-25 61t-61 25
t-61 -25t-25 -61z" />
    <glyph glyph-name="uni0D9C" unicode="&#xd9c;" horiz-adv-x="1272" 
d="M466 816h-22q-130 0 -218 -102t-88 -244t73 -235t201 -93q94 0 159 45t65 129q0 56 -27 87t-65 31t-58 -14q-4 -24 -4 -36h-50q16 204 116 342t267 138t262 -125t95 -308t-120 -308t-314 -125q-18 0 -62 4v50q32 -4 48 -4q160 0 261 100t101 252t-82 247t-206 95
t-202 -75t-102 -195q20 10 46 10q74 0 119 -56t45 -166t-79 -187t-209 -77q-160 0 -254 122t-94 303t104 312t268 131l26 -2v-46z" />
    <glyph glyph-name="uni0D9D" unicode="&#xd9d;" horiz-adv-x="1354" 
d="M902 632q98 0 148 -20q30 32 30 79t-40 71t-100 24q-160 0 -176 -166q40 12 138 12zM626 566h-194q-92 0 -173 -58t-81 -152t71 -154t175 -60q56 0 66 10q-6 30 -6 60q0 100 55 144t122 44t123 -44t56 -140q0 -34 -6 -58q22 -16 118 -16t165 59t69 160t-76 161t-198 60
t-206 -18v18q0 126 67 204t167 78t159 -41t59 -123q0 -30 -17 -61t-41 -45q70 -34 113 -107t43 -155q0 -156 -92 -244t-236 -88q-72 0 -164 24q-8 14 -8 42t13 75t13 87t-33 77t-82 37t-86 -33t-37 -83t9 -86t9 -69t-8 -49q-82 -24 -156 -24q-130 0 -213 93t-83 204t48 177
t126 94q-212 -4 -266 -14v64h552v8q0 70 -41 118t-97 48q-82 0 -112 -80q-24 -64 -76 -64q-28 0 -50 18t-22 54q0 68 61 107t149 39q126 0 189 -77t63 -195v-26z" />
    <glyph glyph-name="uni0DA0" unicode="&#xda0;" horiz-adv-x="1194" 
d="M28 604h546v12q0 78 -42 126t-92 48t-76 -16t-32 -27t-16 -37q-24 -64 -78 -64q-28 0 -50 18t-22 54q0 68 61 107t149 39q128 0 195 -76t67 -208v-26h-138q-130 0 -214 -53t-84 -141q0 -169 255 -208q65 -10 139 -10q228 0 357 122t129 336t-138 360t-338 146
q-238 0 -374 -166h-64q150 214 438 214q238 0 391 -175t153 -427t-146 -402t-414 -150q-200 0 -331 81t-131 249q0 108 59 160t119 64h-10q-210 -2 -268 -14v64z" />
    <glyph glyph-name="uni0DA1" unicode="&#xda1;" horiz-adv-x="1196" 
d="M1006 646q0 174 -202 174l-24 -2q-42 -96 -56 -194q138 -4 222 -42q22 -12 46 -28q14 44 14 92zM628 648q0 -20 2 -28q16 4 38 4q11 74 46 178q-86 -42 -86 -154zM1088 1234q22 0 35 -13t13 -34t-28 -35l-84 -42q-129 -64 -220 -240h8q114 0 182 -55t68 -165
q0 -62 -24 -138q60 -70 60 -181t-75 -190q-134 -141 -427 -141q-230 0 -380 82t-150 258q0 122 94 203t256 81q38 0 54 -2q4 28 4 59t-28 66t-85 35t-80 -49t-42 -69t-53 -20t-54 20t-20 56q0 68 59 106t149 38t151 -56t61 -156q0 -42 -8 -76q-48 4 -66 4q-164 0 -241 -63
t-77 -146t71 -137q121 -92 374 -92t373 92q70 54 70 138q0 40 -18 76q-68 -128 -180 -128q-76 0 -122 51t-46 153q0 34 2 52q-64 -4 -80 -6q-10 36 -10 68q0 188 164 224q64 150 163 261t187 111zM718 522q0 -148 116 -148q82 0 138 126q-78 76 -252 78q-2 -18 -2 -56z" />
    <glyph glyph-name="uni0DA2" unicode="&#xda2;" horiz-adv-x="1196" 
d="M978 711q0 39 -31 70t-71 31t-70 -27t-30 -68t30 -71t70 -30t72 28q30 28 30 67zM718 720q0 42 12 78q-84 -38 -84 -130q0 -24 6 -50q32 4 63 4t55 -4q-52 30 -52 102zM586 678q0 64 43 116t121 66q50 140 151 257t187 117q22 0 35 -13t13 -32t-32 -38t-90 -50t-116 -92
t-88 -143q8 2 62 2t111 -39t57 -126t-92 -125q68 -28 109 -92t41 -165t-75 -180q-134 -141 -427 -141q-230 0 -380 82t-150 258q0 122 94 203t256 81q38 0 54 -2q4 28 4 59t-28 66t-85 35t-80 -49t-42 -69t-53 -20t-54 20t-20 56q0 68 59 106t149 38t151 -56t61 -156
q0 -42 -8 -76q-48 4 -66 4q-164 0 -241 -63t-77 -146t71 -137q121 -92 374 -92t373 92q70 54 70 139t-79 145t-239 60l-110 -8q-14 44 -14 108z" />
    <glyph glyph-name="uni0DA7" unicode="&#xda7;" horiz-adv-x="1206" 
d="M132 434q0 -140 126 -216t294 -76q220 0 357 118t137 329t-144 364t-368 153t-354 -166h-66q146 214 432 214q252 0 410 -180t158 -424t-152 -398t-386 -154t-373 114t-139 292t117 278t283 100q94 0 178 -32v-58q-78 38 -195 38t-216 -78t-99 -218z" />
    <glyph glyph-name="uni0DA9" unicode="&#xda9;" horiz-adv-x="1294" 
d="M152 748q0 56 54 86t124 30q124 0 191 -78t69 -210h-150q-130 0 -202 -68t-72 -156t62 -149t155 -61t154 38t61 106v70h54v-70q0 -66 58 -105t138 -39q136 0 206 116t70 288q0 238 -148 402t-383 164t-381 -176h-66q158 228 462 228q260 0 424 -183t164 -465
q0 -216 -86 -366t-254 -150q-88 0 -139 31t-91 87q-96 -118 -234 -118t-219 96t-81 228q0 80 40 149t118 103h-220v54h492q-4 64 -42 108t-92 44t-84 -52t-69 -52t-61 20t-22 50z" />
    <glyph glyph-name="uni0DAA" unicode="&#xdaa;" horiz-adv-x="1294" 
d="M852 0q-140 0 -226 118q-96 -118 -234 -118t-219 96t-81 228q0 80 40 149t118 103h-220v54h486q-4 64 -42 108t-92 44t-84 -52t-69 -52t-61 20t-22 50q0 56 54 86t124 30q124 0 191 -78t69 -210h-144q-130 0 -202 -68t-72 -156t62 -149t155 -61t154 38t61 106v70h54v-70
q0 -66 58 -105t138 -39q136 0 205 108t69 275t-92 323q-68 -122 -175 -122t-163 63t-56 177t82 240q182 -72 330 -277t148 -418t-77 -355q-39 -72 -107 -114t-160 -42zM694 943q0 -67 40 -112t122 -45t138 116q-116 164 -248 230q-20 -22 -36 -72t-16 -117z" />
    <glyph glyph-name="uni0DAB" unicode="&#xdab;" horiz-adv-x="1926" 
d="M700 146q168 0 283 89t115 239q0 190 -160 286q-102 -38 -190 -78q62 -12 104 -62t42 -114q0 -110 -102 -162q-60 -32 -159 -32t-175 46t-104 126q-107 -62 -124 -68q50 0 129 -96q33 -40 75 -79t111 -67t155 -28zM592 508q0 -52 36 -87t86 -35t86 35t36 87t-36 87
t-86 35t-86 -35t-36 -87zM696 866q138 0 234 -44q148 62 386 147t340 85q70 0 70 -54q0 -44 -70 -60q-22 -4 -118 -22t-211 -39t-329 -97q136 -92 164 -274q58 64 142 64t134 -70q6 82 53 138t140 56t146 -102t53 -257t-56 -247t-174 -92q-74 0 -119 40t-53 98
q-52 -64 -123 -64t-119 39t-70 103q-114 -214 -386 -214q-110 0 -190 37t-123 90t-75 107t-66 91t-81 37t-129 -54l-22 48q156 104 298 182l-2 28q0 142 109 221t247 79zM714 816q-134 0 -225 -67t-91 -173v-6q214 116 466 224q-70 22 -150 22zM534 506q0 46 22 86
q-78 -40 -150 -78q18 -64 72 -101t124 -47q-68 54 -68 140zM1292 136q58 0 94 51t36 137q0 188 -134 188q-84 0 -120 -106q-4 -50 -14 -90q2 -74 41 -127t97 -53zM1482 313q0 -55 -14 -99v-4q0 -142 116 -142q70 0 95 71t25 196t-27 204t-79 79q-112 0 -122 -214
q6 -36 6 -91z" />
    <glyph glyph-name="uni0DAC" unicode="&#xdac;" horiz-adv-x="1462" 
d="M614 576q-130 0 -202 -68t-72 -156t62 -149t155 -61t154 38t61 106v70h54v-70q0 -66 58 -105t138 -39q136 0 206 116t70 288q0 238 -148 402t-383 164t-381 -176h-66q158 228 462 228q260 0 424 -183t164 -465q0 -216 -86 -366t-254 -150q-88 0 -139 31t-91 87
q-96 -118 -234 -118t-219 96t-81 228q0 80 40 149t118 103h-220v54h492q-4 64 -42 108t-92 44t-84 -52t-69 -52t-61 20t-22 47t14 51q-108 -30 -168 -123t-60 -237q0 -240 158 -376v-60q-98 50 -157 170t-59 272q0 200 109 312t315 112q64 0 108 -12q174 -48 178 -278h-150z
" />
    <glyph glyph-name="uni0DAD" unicode="&#xdad;" horiz-adv-x="1408" 
d="M199 218q33 0 127 -36t210 -36t207 55t91 166t-80 168t-188 57q-158 0 -252 -72q-114 -140 -172 -320q24 18 57 18zM358 698q0 78 -58 78t-62 -64q-4 -122 -88 -122q-38 0 -57 27t-19 67q0 74 53 128t127 54t116 -44t42 -116v-10q160 174 434 174q210 0 346 -139
t136 -361q0 -156 -76 -264t-200 -108q-92 0 -142 34l10 52q52 -30 104 -30q96 0 146 71t50 177q0 186 -139 321t-349 135t-330 -146q66 28 160 28q158 0 257 -81t99 -229t-96 -241t-258 -93q-100 0 -170 25t-97 56q-71 81 -119 81q-62 0 -90 -140l-44 32q18 150 107 316
t197 278q10 30 10 54z" />
    <glyph glyph-name="uni0DAE" unicode="&#xdae;" horiz-adv-x="1228" 
d="M670 984q0 -178 154 -178q98 0 124 90q-82 128 -236 240q-42 -64 -42 -152zM1062 549q0 175 -76 291q-48 -106 -176 -106q-92 0 -146 70t-54 190t84 216q90 -48 186 -144t152 -192t78 -179t22 -191q0 -222 -154 -364t-382 -142t-379 131t-151 341q0 162 127 276t297 114
v-50q-148 0 -252 -93t-104 -233q0 -172 132 -257t336 -85t332 116t128 291z" />
    <glyph glyph-name="uni0DB1" unicode="&#xdb1;" horiz-adv-x="1612" 
d="M673 568q-97 0 -166 -29t-106 -75t-62 -94q-70 -134 -125 -166q138 -60 312 -60t278 60t104 176q0 82 -69 135t-166 53zM188 608q-78 0 -78 98q0 50 54 103t147 53t144 -60t51 -162v-6q82 96 220 164t286 68q216 0 362 -138t146 -362q0 -170 -87 -269t-207 -99
q-78 0 -142 44l26 44q56 -34 123 -34t121 66t54 192t-78 229t-193 152t-241 49q-232 0 -364 -150q76 26 158 26q128 0 217 -80t89 -198q0 -166 -125 -253t-319 -87q-378 0 -498 250q42 -18 84 -18t79 49t92 140t119 151q18 28 18 78t-25 86t-73 36q-68 0 -80 -80
q-16 -82 -80 -82z" />
    <glyph glyph-name="uni0DB4" unicode="&#xdb4;" horiz-adv-x="1232" 
d="M1010 705q0 43 -39 74t-107 31t-113 -37t-45 -101q0 -14 2 -22q50 6 124 6t146 -26q32 32 32 75zM376 790q-80 0 -98 -70q-18 -64 -90 -64q-32 0 -55 19t-23 55q0 64 60 101t158 37t160 -51t62 -149q0 -38 -8 -72q-72 8 -108 8q-128 0 -212 -49t-84 -153q0 -130 141 -195
t335 -65q257 0 392 115q74 63 74 159t-82 144t-210 48q-60 0 -140 -14q-6 34 -6 62q0 102 62 156t165 54t158 -48t55 -110t-54 -102q120 -72 120 -246t-152 -267t-382 -93q-158 0 -276 33t-197 118t-79 219t94 209t258 75q22 0 74 -4l2 22q0 56 -33 87t-81 31z" />
    <glyph glyph-name="uni0DC0" unicode="&#xdc0;" horiz-adv-x="1194" 
d="M584 560h-180q-116 0 -192 -53t-76 -140t66 -139t151 -69t187 -17q228 0 358 122t130 336t-138 360t-338 146q-238 0 -374 -166h-64q150 214 438 214q238 0 391 -175t153 -426t-147 -402t-415 -151q-200 0 -334 81t-134 249q0 128 90 203t242 75h122v8q0 78 -42 126
t-92 48t-76 -15t-34 -28t-16 -37q-24 -64 -76 -64q-28 0 -50 18t-22 54q0 68 61 107t149 39q128 0 195 -76t67 -208v-20z" />
    <glyph glyph-name="uni0DC4" unicode="&#xdc4;" horiz-adv-x="1306" 
d="M132 654q-66 0 -66 82q0 42 45 85t125 43q114 0 177 -89t65 -219q-48 4 -68 4q-124 0 -197 -54t-73 -155t79 -154t191 -53t181 46t69 138q0 46 -20 71t-50 25q-48 0 -68 -60l-44 20q14 192 124 336t265 144t249 -128t94 -311t-120 -305t-304 -122q-40 0 -82 6v54
q36 -6 72 -6q148 0 243 93t95 241t-77 243t-209 95q-220 0 -286 -266q26 16 58 16q58 0 95 -52t37 -132q0 -134 -93 -213t-239 -79t-240 86t-94 223t90 218t232 81h24q0 66 -34 113t-89 47t-77 -56t-80 -56z" />
    <glyph glyph-name="fraction" unicode="&#x2044;" 
 />
    <glyph glyph-name="fi" unicode="&#xfb01;" horiz-adv-x="1218" 
d="M1120 52q30 0 39 -10t9 -42h-464v52q152 0 152 104v642h-152v52h312v-798h104zM933 1042q-41 0 -70 29t-29 70t29 71t70 30t70 -30t29 -71t-29 -70t-70 -29zM784 1174q0 -32 -22 -53t-58 -21t-59 24t-35 54t-36 54t-58 24q-84 0 -114 -78t-30 -308v-20h220v-52h-220v-746
h132q30 0 39 -10t9 -42h-492v52q152 0 152 104v642h-162v52h162v40q0 212 107 315t249 103q88 0 152 -38t64 -96z" />
    <glyph glyph-name="fl" unicode="&#xfb02;" horiz-adv-x="1218" 
d="M704 52q152 0 152 104v1092h-106q34 -30 34 -68t-22 -59t-58 -21t-59 24t-35 54t-36 54t-58 24q-84 0 -114 -78t-30 -308v-20h220v-52h-220v-746h132q30 0 39 -10t9 -42h-492v52q152 0 152 104v642h-162v52h162v40q0 212 107 315t249 103q80 0 136 -30v22h312v-1248h104
q30 0 39 -10t9 -42h-464v52z" />
    <glyph glyph-name="si_DdI" horiz-adv-x="2048" 
 />
    <glyph glyph-name="si_DdIi" horiz-adv-x="1294" 
d="M766 1095q0 69 42 117q-110 10 -220 10q-352 0 -352 -110q0 -104 237 -104t351 -20q-58 38 -58 107zM832 1106q0 -44 33 -76t79 -32t77 30t31 77t-31 78t-78 31t-79 -32t-32 -76zM388 782q-54 0 -84 -52t-69 -52t-61 20t-22 50q0 56 54 86t124 30q122 0 191 -82t69 -206
h-142q-126 0 -204 -66t-78 -158t63 -151t155 -59t153 38t61 106v70h54v-70q0 -66 58 -105t138 -39q142 0 209 115t67 259t-35 228t-107 126t-146 59t-144 21t-155 4q-146 0 -253 25q-130 30 -130 149q0 212 460 212q508 0 508 -236q0 -62 -47 -108t-111 -46
q108 -50 170 -163t62 -257t-31 -255t-110 -193t-179 -82t-149 27t-101 91q-94 -118 -226 -118t-220 93t-88 223q0 90 43 158t119 102h-224v54h492q-4 64 -42 108t-92 44z" />
  </font>
</defs>
</svg>
