<?xml version="1.0" encoding="UTF-8"?>
<svg xmlns="http://www.w3.org/2000/svg" xmlns:xlink="http://www.w3.org/1999/xlink" version="1.2" >
<font id="Nidahas FM Abhaya Bold">
<font-face  font-family="Nidahas FM Abhaya" units-per-em="1000" ascent="746" descent="-254" font-style="normal" font-weight="700" font-stretch="normal" cap-height="700" x-height="500" underline-position="-37" underline-thickness="24" />
<missing-glyph  horiz-adv-x="370" d="" />
<glyph glyph-name="uni200C" unicode="&#x200c;" horiz-adv-x="22" d="M31 -226 L-9 -226 L-9 639 L31 639 L31 -226 Z " />
<glyph glyph-name="uni200D" unicode="&#x200d;" horiz-adv-x="21" d="M93 510 L61 478 L30 509 L30 -226 L-9 -226 L-9 509 Q-18 501 -25.5 493 Q-33 485 -41 478 L-69 512 L-21 560 Q-33 572 -46.5 586 Q-60 600 -71 611 L-40 642 L11 592 L60 641 L93 612 L42 560 L93 510 Z " />
<glyph glyph-name="uni25CC" unicode="&#x25cc;" horiz-adv-x="479" d="M203 45 Q203 12 177 12 Q150 12 150 44 Q150 77 177 77 Q203 77 203 45 Z M327 44 Q327 12 300 12 Q273 12 273 44 Q273 77 300 77 Q327 77 327 44 Z M265 33 Q265 0 238 0 Q211 0 211 33 Q211 64 238 64 Q265 64 265 33 Z M265 357 Q265 324 238 324 Q211 324 211 357 Q211 388 238 388 Q265 388 265 357 Z M203 343 Q203 312 177 312 Q150 312 150 343 Q150 376 177 376 Q203 376 203 343 Z M327 343 Q327 312 300 312 Q273 312 273 343 Q273 376 300 376 Q327 376 327 343 Z M152 309 Q152 277 124 277 Q113 277 109 280 Q116 271 116 256 Q116 223 90 223 Q104 217 104 195 Q104 171 90 165 Q116 164 116 132 Q116 117 110 108 Q116 111 124 111 Q152 111 152 79 Q152 47 125 47 Q97 47 97 79 Q97 94 103 102 Q99 100 89 100 Q62 100 62 132 Q62 155 75 162 Q49 162 49 195 Q49 225 75 226 Q62 231 62 256 Q62 288 89 288 Q99 288 104 284 Q97 292 97 308 Q97 340 124 340 Q152 340 152 309 Z M416 256 Q416 232 403 226 Q428 224 428 195 Q428 164 403 162 Q416 155 416 132 Q416 100 389 100 Q380 100 374 103 Q380 94 380 79 Q380 47 353 47 Q326 47 326 79 Q326 111 353 111 Q361 111 366 108 Q363 112 362 118 Q361 124 361 132 Q361 164 387 165 Q373 171 373 195 Q373 217 387 223 Q361 223 361 256 Q361 270 368 281 Q364 277 353 277 Q325 277 325 309 Q325 340 353 340 Q380 340 380 309 Q380 292 371 283 Q379 288 390 288 Q416 288 416 256 Z " />
<glyph glyph-name="uni0DF4" unicode="&#xdf4;" horiz-adv-x="1208" d="M395 62 Q393 83 386 110.5 Q379 138 373 154 Q349 100 328.5 69 Q308 38 290 22.5 Q272 7 256 3.5 Q240 0 225 0 Q203 0 187.5 8 Q172 16 162 27 Q152 38 147 51 Q142 64 142 73 Q142 80 144 89 Q146 98 151.5 106.5 Q157 115 165.5 121 Q174 127 188 127 Q207 127 219.5 113 Q232 99 232 79 Q232 66 227 57 Q222 47 222 43 Q224 45 232 45 Q252 45 279 70 L279 69 Q293 83 308 109.5 Q323 136 337.5 165.5 Q352 195 363.5 223.5 Q375 252 382 271 L411 271 Q411 265 413 252 Q415 239 418 224.5 Q421 210 425 195 Q429 180 433 170 Q443 191 452 213.5 Q461 236 471 259 Q485 290 501 327 Q517 364 532 393 L559 393 Q559 382 562 363.5 Q565 345 570 324 Q575 303 580.5 282 Q586 261 591 243 L594 234 Q605 256 620 284.5 Q635 313 652 343 Q669 373 686 400.5 Q703 428 718 448 L750 448 Q745 433 744.5 429.5 Q744 426 744 424 L744 413 Q744 395 745.5 371.5 Q747 348 748.5 324 Q750 300 752 279.5 Q754 259 756 248 Q761 254 766 261 Q771 268 778 276 Q794 297 813.5 321.5 Q833 346 851.5 367 Q870 388 885 403.5 Q900 419 908 422 L932 422 Q929 404 925.5 376.5 Q922 349 919 319 Q916 289 913.5 261 Q911 233 910 215 L916 221 L916 220 Q941 246 970 274 Q999 302 1025 319 L1057 319 Q1054 310 1049.5 292 Q1045 274 1040.5 251 Q1036 228 1033 202.5 Q1030 177 1029 152 Q1061 178 1086.5 190 Q1112 202 1123 202 Q1124 197 1126 183.5 Q1128 170 1129 162 Q1130 147 1132.5 131 Q1135 115 1140 101.5 Q1145 88 1153 79.5 Q1161 71 1174 71 Q1189 71 1194 73.5 Q1199 76 1199 79 Q1199 87 1195 95 Q1190 107 1190 111 Q1190 131 1201 144 Q1212 157 1230 157 Q1248 157 1263.5 144.5 Q1279 132 1279 100 Q1279 86 1272.5 72.5 Q1266 59 1252.5 48 Q1239 37 1219 30 Q1199 23 1172 23 Q1121 23 1100 53.5 Q1079 84 1075 132 Q1065 126 1053 115 Q1041 104 1030.5 92 Q1020 80 1011.5 69.5 Q1003 59 1000 53 L971 53 Q970 62 969 82 Q968 102 968 116 Q968 142 969 167.5 Q970 193 972 215 Q960 203 945.5 187.5 Q931 172 916 155.5 Q901 139 887 123 Q873 107 864 94 L837 94 L851 303 Q835 285 815 259 Q795 233 776.5 207.5 Q758 182 744.5 162.5 Q731 143 727 137 L702 137 L683 319 Q671 299 655 267.5 Q639 236 624 204.5 Q609 173 597.5 145.5 Q586 118 583 105 L556 105 Q554 110 551 124.5 Q548 139 546 150 Q540 177 532 211.5 Q524 246 516 269 Q508 250 497 222.5 Q486 195 473.5 166 Q461 137 448 109.5 Q435 82 423 62 L395 62 Z " />
<glyph glyph-name="anusa" unicode="&#xd82;" horiz-adv-x="364" d="M65 256 Q107 304 174 304 Q227 304 266 271 Q315 229 315 164 Q315 112 282 73 Q241 25 175 25 Q122 25 81 59 Q31 100 31 166 Q31 218 65 256 Z M110 240 Q90 217 90 186 Q90 149 118 124 Q141 104 173 104 Q212 104 237 132 Q257 154 257 185 Q257 223 228 248 Q205 268 173 268 Q135 268 110 240 Z " />
<glyph glyph-name="visar" unicode="&#xd83;" horiz-adv-x="248" d="M53 173 Q79 201 116 201 Q148 201 171 180 Q199 155 199 119 Q199 88 177 64 Q152 37 115 37 Q84 37 60 58 Q32 83 32 119 Q32 150 53 173 Z M53 360 Q78 387 115 387 Q147 387 171 366 Q199 342 199 306 Q199 275 177 251 Q152 224 116 224 Q84 224 60 245 Q32 270 32 306 Q32 337 53 360 Z M65 306 Q65 282 84 267 Q98 256 116 256 Q140 256 154 274 Q165 288 165 305 Q165 329 147 343 Q133 354 115 354 Q95 354 80 340 Q65 326 65 306 Z M65 120 Q65 96 84 81 Q98 70 116 70 Q140 70 154 88 Q165 102 165 119 Q165 143 147 157 Q133 168 115 168 Q95 168 80 154 Q65 140 65 120 Z " />
<glyph glyph-name="v_a" unicode="&#xd85;" horiz-adv-x="573" d="M316 309 Q314 368 268 386 Q241 397 217 380 Q214 378 190 352 Q176 336 152 332 Q132 329 120 341 Q108 353 108 371 Q108 384 115 395 Q140 431 214 433 Q273 434 310 396 Q348 355 347 287 L268 287 Q216 287 184 249.5 Q152 212 152 160 Q152 53 278 28 Q312 21 359 28 L359 313 Q359 369 386 401 Q409 427 439 435 L462 424 Q445 418 445 403 Q445 398 448.5 392 Q452 386 491 352 Q521 326 525 296 Q531 253 501.5 226.5 Q472 200 428 200 Q408 200 388 206 L388 29 Q425 35 463 50 Q491 61 523 83 L523 51 Q503 39 472 26 Q441 13 388 2 L388 -215 L359 -215 L359 0 Q304 -6 259 -4 Q39 8 33 151 Q29 235 91 279 Q133 309 206 309 L316 309 Z M422 398 Q388 381 388 317 L388 233 Q400 229 411 229 Q433 229 447.5 242.5 Q462 256 463 277 Q465 319 448 345 Q438 359 427 374 Q421 385 422 398 Z " />
<glyph glyph-name="v_aa" unicode="&#xd86;" horiz-adv-x="839" d="M316 309 Q314 368 268 386 Q241 397 217 380 Q214 378 190 352 Q176 336 152 332 Q132 329 120 341 Q108 353 108 371 Q108 384 115 395 Q140 431 214 433 Q273 434 310 396 Q348 355 347 287 L268 287 Q216 287 184 249.5 Q152 212 152 160 Q152 53 278 28 Q312 21 359 28 L359 313 Q359 369 386 401 Q409 427 439 435 L462 424 Q445 418 445 403 Q445 398 448.5 392 Q452 386 491 352 Q521 326 525 296 Q531 253 501.5 226.5 Q472 200 428 200 Q408 200 388 206 L388 29 Q425 35 463 50 Q491 61 523 83 L523 51 Q503 39 472 26 Q441 13 388 2 L388 -215 L359 -215 L359 0 Q304 -6 259 -4 Q39 8 33 151 Q29 235 91 279 Q133 309 206 309 L316 309 Z M422 398 Q388 381 388 317 L388 233 Q400 229 411 229 Q433 229 447.5 242.5 Q462 256 463 277 Q465 319 448 345 Q438 359 427 374 Q421 385 422 398 Z M578 256 L550 256 Q546 317 580 358.5 Q614 400 670 401 Q734 402 768 346 Q799 293 797 199 Q792 -1 661 -1 Q611 -1 580 28 Q549 57 549 109 Q549 120 550 131 L576 131 Q571 94 591 71.5 Q611 49 647 47 Q707 43 709 195 Q711 354 658 354 Q618 354 596 326.5 Q574 299 578 256 Z " />
<glyph glyph-name="v_ae" unicode="&#xd87;" horiz-adv-x="875" d="M316 309 Q314 368 268 386 Q241 397 217 380 Q214 378 190 352 Q176 336 152 332 Q132 329 120 341 Q108 353 108 371 Q108 384 115 395 Q140 431 214 433 Q273 434 310 396 Q348 355 347 287 L268 287 Q216 287 184 249.5 Q152 212 152 160 Q152 53 278 28 Q312 21 359 28 L359 313 Q359 369 386 401 Q409 427 439 435 L462 424 Q445 418 445 403 Q445 398 448.5 392 Q452 386 491 352 Q521 326 525 296 Q531 253 501.5 226.5 Q472 200 428 200 Q408 200 388 206 L388 29 Q425 35 463 50 Q491 61 523 83 L523 51 Q503 39 472 26 Q441 13 388 2 L388 -215 L359 -215 L359 0 Q304 -6 259 -4 Q39 8 33 151 Q29 235 91 279 Q133 309 206 309 L316 309 Z M422 398 Q388 381 388 317 L388 233 Q400 229 411 229 Q433 229 447.5 242.5 Q462 256 463 277 Q465 319 448 345 Q438 359 427 374 Q421 385 422 398 Z M540 350 L786 350 Q785 347 783 334 Q698 210 698 84 Q698 55 703 27 Q720 -73 837 -73 Q835 -76 839.5 -82 Q844 -88 842 -90 Q797 -141 737 -136 Q679 -131 649 -86.5 Q619 -42 621 27 Q624 111 664 194 Q707 283 748 324 L540 324 L540 350 Z " />
<glyph glyph-name="v_aee" unicode="&#xd88;" horiz-adv-x="879" d="M316 309 Q314 368 268 386 Q241 397 217 380 Q214 378 190 352 Q176 336 152 332 Q132 329 120 341 Q108 353 108 371 Q108 384 115 395 Q140 431 214 433 Q273 434 310 396 Q348 355 347 287 L268 287 Q216 287 184 249.5 Q152 212 152 160 Q152 53 278 28 Q312 21 359 28 L359 313 Q359 369 386 401 Q409 427 439 435 L462 424 Q445 418 445 403 Q445 398 448.5 392 Q452 386 491 352 Q521 326 525 296 Q531 253 501.5 226.5 Q472 200 428 200 Q408 200 388 206 L388 29 Q425 35 463 50 Q491 61 523 83 L523 51 Q503 39 472 26 Q441 13 388 2 L388 -215 L359 -215 L359 0 Q304 -6 259 -4 Q39 8 33 151 Q29 235 91 279 Q133 309 206 309 L316 309 Z M422 398 Q388 381 388 317 L388 233 Q400 229 411 229 Q433 229 447.5 242.5 Q462 256 463 277 Q465 319 448 345 Q438 359 427 374 Q421 385 422 398 Z M544 349 L789 349 L789 327 L651 231 L809 231 L809 211 Q789 200 754 149 Q722 102 726 29 Q729 -22 770 -59 Q794 -81 841 -87 L845 -114 Q812 -135 767 -135 Q754 -135 741 -133 Q632 -116 632 2 Q632 14 633 26 Q639 84 696 147 Q737 193 772 209 L604 209 L604 228 L745 325 L544 325 L544 349 Z " />
<glyph glyph-name="v_i" unicode="&#xd89;" horiz-adv-x="593" d="M265 85 Q244 87 225 105 Q202 127 202 158 Q202 169 205 180 Q212 210 240 226.5 Q268 243 301 239 Q336 235 356.5 211 Q377 187 377 152 Q377 79 272 57 Q248 52 223 52 Q142 52 86 99 Q35 142 33 210 Q30 317 105 378 Q177 437 298 432 Q416 427 479 368 Q544 306 544 191 Q544 117 497 61.5 Q450 6 384 -6 Q438 -17 439 -73 Q440 -115 395 -139 Q359 -158 311 -160 Q217 -164 182 -113 Q173 -101 173 -83 Q173 -39 211 -39 Q222 -39 231 -47.5 Q240 -56 240 -66 Q240 -70 237 -78 Q234 -86 234 -91 Q234 -111 254 -123.5 Q274 -136 302 -133 Q357 -127 355 -82 Q351 -14 238 -13 L238 15 Q273 10 304 10 Q364 10 411 30 Q483 61 486 151 Q488 215 444 259 Q394 309 302 313 Q138 320 99 222 Q93 208 93 190 Q93 140 126 113 Q167 79 218 81 Q234 81 265 85 Z M240 158 Q240 136 255 122.5 Q270 109 290 109 Q311 109 325 124 Q339 139 339 158 Q339 180 324 193.5 Q309 207 289 207 Q267 207 253.5 192 Q240 177 240 158 Z " />
<glyph glyph-name="v_ii" unicode="&#xd8a;" horiz-adv-x="528" d="M181 603 Q208 603 228.5 584 Q249 565 249 538 Q249 513 230.5 493.5 Q212 474 184 474 Q157 474 137 492.5 Q117 511 117 540 Q117 564 135.5 583.5 Q154 603 181 603 Z M177 426 Q242 458 311 520 Q322 530 349 568 Q376 606 389 617 Q396 623 407 623 Q432 623 433 606 Q435 577 371 523 Q313 474 248 437 Q270 440 293 435 Q376 427 429.5 366.5 Q483 306 482 222 Q481 120 393 47 Q336 0 248 0 Q154 0 92.5 60 Q31 120 31 213 Q31 294 75 346 Q119 398 177 426 Z M119 351 Q80 308 82 249 Q85 179 130.5 142.5 Q176 106 245 106 Q322 106 364 150 Q413 201 413 268 Q413 324 378 366 Q339 414 264 414 Q176 414 119 351 Z M445 532 Q472 532 492 513 Q512 494 512 467 Q512 442 494 422.5 Q476 403 448 403 Q421 403 401 422 Q381 441 381 468 Q381 493 399.5 512.5 Q418 532 445 532 Z M145 540 Q145 524 157 512.5 Q169 501 185 501 Q201 501 212.5 512 Q224 523 224 539 Q224 555 212 565.5 Q200 576 184 576 Q169 576 157 565.5 Q145 555 145 540 Z M408 468 Q408 452 419.5 441 Q431 430 447 430 Q463 430 474.5 441.5 Q486 453 486 468 Q486 484 474 494.5 Q462 505 447 505 Q431 505 419.5 494.5 Q408 484 408 468 Z " />
<glyph glyph-name="v_u" unicode="&#xd8b;" horiz-adv-x="651" d="M347 271 Q261 271 208.5 220.5 Q156 170 158 99 Q161 2 229 -55 Q287 -103 366 -105 Q454 -107 513.5 -58.5 Q573 -10 574 69 L603 69 Q604 -26 528 -91 Q456 -153 350 -160 Q227 -168 134 -98 Q36 -24 32 93 Q29 175 79 229 Q107 259 152 277.5 Q197 296 241 296 L507 296 Q506 320 491 342.5 Q476 365 460 372 Q433 384 413 384 Q394 384 374 372 Q368 368 352 351 Q340 339 320 333 Q314 331 308 331 Q292 331 279.5 341 Q267 351 267 366 Q267 372 269 378 Q286 430 372 432 Q445 434 493 387 Q541 340 539 271 L347 271 Z " />
<glyph glyph-name="v_uu" unicode="&#xd8c;" horiz-adv-x="965" d="M347 271 Q261 271 208.5 220.5 Q156 170 158 99 Q161 2 229 -55 Q287 -103 366 -105 Q454 -107 513.5 -58.5 Q573 -10 574 69 L603 69 Q604 -26 528 -91 Q456 -153 350 -160 Q227 -168 134 -98 Q36 -24 32 93 Q29 175 79 229 Q107 259 152 277.5 Q197 296 241 296 L507 296 Q506 320 491 342.5 Q476 365 460 372 Q433 384 413 384 Q394 384 374 372 Q368 368 352 351 Q340 339 320 333 Q314 331 308 331 Q292 331 279.5 341 Q267 351 267 366 Q267 372 269 378 Q286 430 372 432 Q445 434 493 387 Q541 340 539 271 L347 271 Z M629 435 Q586 408 586 329 Q586 296 605.5 276 Q625 256 656 256 Q677 256 692 270.5 Q707 285 707 306 Q707 326 690 344 Q685 390 718 420 Q739 439 794 439 Q854 439 888 369 Q918 308 917 227 Q916 139 879 77 Q837 5 763 5 Q716 5 687 40 Q658 75 658 127 Q658 145 662 164 L688 164 Q685 150 685 137 Q685 98 704.5 73 Q724 48 753 48 Q759 48 765 49 Q795 54 810 115 Q822 167 821 243 Q818 399 775 399 Q747 399 736 394 Q715 384 717 350 Q753 331 753 295 Q753 284 749 273 Q741 246 714 232 Q687 218 656 219 Q612 220 584.5 251.5 Q557 283 557 328 Q557 401 594 435 L629 435 Z " />
<glyph glyph-name="v_iru" unicode="&#xd8d;" horiz-adv-x="891" d="M291 279 Q213 283 189 280 Q142 275 113 253 Q80 227 84 187 Q90 116 200 116 Q235 116 264 130 Q297 145 297 171 L297 198 L329 198 L329 171 Q329 148 370 131 Q407 116 450 116 Q488 116 517 130 Q551 148 557 180 Q559 189 559 198 Q559 236 530.5 259 Q502 282 461 286 Q394 292 333 279 Q329 340 356 381 Q387 428 450 432 Q536 437 557 365 Q559 357 559 349 Q559 331 549.5 315.5 Q540 300 529 297 Q599 263 607 178 Q614 107 566.5 53.5 Q519 0 444 0 Q348 0 312 82 Q281 -1 178 -1 Q114 -1 72.5 45 Q31 91 31 153 Q31 166 33 179 Q49 274 144 302 Q188 315 260 308 Q257 344 249 357 Q236 380 199 379 Q169 379 157 350 Q145 321 103 323 Q70 325 68 358 Q66 392 98 414.5 Q130 437 181 432 Q242 426 270 380 Q295 341 291 279 Z M365 310 Q392 316 435 316 Q481 315 506 306 Q521 322 521 340 Q521 365 497 380 Q477 392 451 392 Q370 392 365 310 Z M639 242 L614 242 Q612 307 641 350 Q670 393 724 393 Q785 393 818 328 Q846 272 845 191 Q845 157 836.5 100.5 Q828 44 828 23 Q828 12 829 3 L788 3 Q780 14 771 14 Q767 14 746 6 Q725 -2 704 -1 Q675 1 650 22.5 Q625 44 618 73 Q614 90 614 106 Q614 177 680 205 Q715 220 761 220 Q755 295 753 307 Q742 355 712 354 Q674 353 654 316 Q636 284 639 242 Z M760 193 Q746 193 705 185 Q658 171 648 129 Q645 117 645 106 Q645 74 663 52.5 Q681 31 708 33 Q722 34 734.5 39 Q747 44 752 44 Q756 44 762 42 Q757 75 757 120 Q757 136 760 193 Z " />
<glyph glyph-name="v_iruu" unicode="&#xd8e;" horiz-adv-x="1140" d="M291 279 Q213 283 189 280 Q142 275 113 253 Q80 227 84 187 Q90 116 200 116 Q235 116 264 130 Q297 145 297 171 L297 198 L329 198 L329 171 Q329 148 370 131 Q407 116 450 116 Q488 116 517 130 Q551 148 557 180 Q559 189 559 198 Q559 236 530.5 259 Q502 282 461 286 Q394 292 333 279 Q329 340 356 381 Q387 428 450 432 Q536 437 557 365 Q559 357 559 349 Q559 331 549.5 315.5 Q540 300 529 297 Q599 263 607 178 Q614 107 566.5 53.5 Q519 0 444 0 Q348 0 312 82 Q281 -1 178 -1 Q114 -1 72.5 45 Q31 91 31 153 Q31 166 33 179 Q49 274 144 302 Q188 315 260 308 Q257 344 249 357 Q236 380 199 379 Q169 379 157 350 Q145 321 103 323 Q70 325 68 358 Q66 392 98 414.5 Q130 437 181 432 Q242 426 270 380 Q295 341 291 279 Z M365 310 Q392 316 435 316 Q481 315 506 306 Q521 322 521 340 Q521 365 497 380 Q477 392 451 392 Q370 392 365 310 Z M639 242 L614 242 Q612 307 641 350 Q670 393 724 393 Q785 393 818 328 Q846 272 845 191 Q845 157 836.5 100.5 Q828 44 828 23 Q828 12 829 3 L788 3 Q780 14 771 14 Q767 14 746 6 Q725 -2 704 -1 Q675 1 650 22.5 Q625 44 618 73 Q614 90 614 106 Q614 177 680 205 Q715 220 761 220 Q755 295 753 307 Q742 355 712 354 Q674 353 654 316 Q636 284 639 242 Z M760 193 Q746 193 705 185 Q658 171 648 129 Q645 117 645 106 Q645 74 663 52.5 Q681 31 708 33 Q722 34 734.5 39 Q747 44 752 44 Q756 44 762 42 Q757 75 757 120 Q757 136 760 193 Z M886 244 L862 244 Q860 309 888.5 352 Q917 395 972 395 Q1033 395 1065 330 Q1093 275 1092 193 Q1092 159 1084 102.5 Q1076 46 1076 26 Q1076 14 1077 5 L1036 5 Q1028 16 1018 16 Q1014 16 993 8 Q972 0 951 1 Q923 3 898 24.5 Q873 46 866 75 Q862 92 862 109 Q862 178 928 207 Q963 222 1009 222 Q1001 302 1000 309 Q990 357 960 356 Q922 355 901 318 Q883 286 886 244 Z M1007 195 Q993 195 952 187 Q904 173 895 131 Q893 120 893 109 Q893 77 910.5 55 Q928 33 955 35 Q969 36 981.5 41 Q994 46 1000 46 Q1004 46 1010 44 Q1004 75 1004 122 Q1004 138 1007 195 Z " />
<glyph glyph-name="v_ilu" unicode="&#xd8f;" horiz-adv-x="805" d="M107 62 Q102 50 110 39 Q118 28 131 28 Q149 28 155 45 Q159 57 151.5 67.5 Q144 78 131 78 Q114 78 107 62 Z M569 295 Q591 314 591 342 Q591 364 576 381 Q561 398 535 400 Q493 404 465.5 383 Q438 362 438 327 Q438 316 441 304 Q481 306 497 305 Q522 304 569 295 Z M661 78 Q656 78 652 76 Q629 67 636 45 Q644 28 661 28 Q666 28 670 30 Q686 35 686 53 Q686 63 678 70.5 Q670 78 661 78 Z M704 84 Q734 185 728 278 Q724 346 693 398 Q660 454 615 452 Q596 451 596 428 Q596 413 605 395 Q621 379 621 340 Q621 304 593 284 Q656 240 652 156 Q650 122 637 101 Q648 108 661 108 Q690 108 704 84 Z M180 452 Q134 455 99 398 Q67 345 63 277 Q62 255 62 236 Q62 158 92 80 Q106 107 130 107 Q140 107 151 103 Q137 127 136 168 Q134 220 172 258 Q207 293 259 301 Q285 305 340 305 Q342 314 342 323 Q342 379 294 382 Q266 384 255 365 Q242 343 240 340 Q231 328 215 325 Q208 323 201 323 Q182 323 170.5 335 Q159 347 159 363 Q159 384 182 404 Q190 417 190 435 Q190 451 180 452 Z M274 431 Q372 420 372 324 Q372 303 366 280 Q282 280 270 278 Q238 273 214 254 Q187 233 187 205 Q187 195 191 185 Q218 115 401 115 Q575 115 599 189 Q603 200 603 211 Q603 266 519 279 Q481 285 414 281 Q408 302 408 322 Q408 371 440.5 401 Q473 431 530 432 Q558 432 573 422 Q569 433 569 443 Q569 482 624 479 Q692 475 731 390 Q761 322 761 243 Q761 155 734 83 Q704 6 662 2 Q637 0 621 17.5 Q605 35 609 61 Q541 0 401 0 Q253 0 184 61 Q188 36 171 18 Q154 0 130 2 Q87 6 58 82 Q31 153 31 240 Q31 259 33 277 Q40 354 73 411 Q112 476 167 479 Q222 482 222 444 Q222 436 219 426 Q243 435 274 431 Z " />
<glyph glyph-name="v_iluu" unicode="&#xd90;" horiz-adv-x="1175" d="M107 62 Q102 50 110 39 Q118 28 131 28 Q149 28 155 45 Q159 57 151.5 67.5 Q144 78 131 78 Q114 78 107 62 Z M569 295 Q591 314 591 342 Q591 364 576 381 Q561 398 535 400 Q493 404 465.5 383 Q438 362 438 327 Q438 316 441 304 Q481 306 497 305 Q522 304 569 295 Z M661 78 Q656 78 652 76 Q629 67 636 45 Q644 28 661 28 Q666 28 670 30 Q686 35 686 53 Q686 63 678 70.5 Q670 78 661 78 Z M704 84 Q734 185 728 278 Q724 346 693 398 Q660 454 615 452 Q596 451 596 428 Q596 413 605 395 Q621 379 621 340 Q621 304 593 284 Q656 240 652 156 Q650 122 637 101 Q648 108 661 108 Q690 108 704 84 Z M180 452 Q134 455 99 398 Q67 345 63 277 Q62 255 62 236 Q62 158 92 80 Q106 107 130 107 Q140 107 151 103 Q137 127 136 168 Q134 220 172 258 Q207 293 259 301 Q285 305 340 305 Q342 314 342 323 Q342 379 294 382 Q266 384 255 365 Q242 343 240 340 Q231 328 215 325 Q208 323 201 323 Q182 323 170.5 335 Q159 347 159 363 Q159 384 182 404 Q190 417 190 435 Q190 451 180 452 Z M274 431 Q372 420 372 324 Q372 303 366 280 Q282 280 270 278 Q238 273 214 254 Q187 233 187 205 Q187 195 191 185 Q218 115 401 115 Q575 115 599 189 Q603 200 603 211 Q603 266 519 279 Q481 285 414 281 Q408 302 408 322 Q408 371 440.5 401 Q473 431 530 432 Q558 432 573 422 Q569 433 569 443 Q569 482 624 479 Q692 475 731 390 Q761 322 761 243 Q761 155 734 83 Q704 6 662 2 Q637 0 621 17.5 Q605 35 609 61 Q541 0 401 0 Q253 0 184 61 Q188 36 171 18 Q154 0 130 2 Q87 6 58 82 Q31 153 31 240 Q31 259 33 277 Q40 354 73 411 Q112 476 167 479 Q222 482 222 444 Q222 436 219 426 Q243 435 274 431 Z M841 428 L807 428 Q769 394 769 321 Q769 276 797 244.5 Q825 213 868 212 Q906 211 935.5 231 Q965 251 965 287 Q965 325 929 343 Q927 377 949 387 Q959 392 987 392 Q1030 392 1033 236 Q1034 160 1022 108 Q1007 47 977 42 Q971 41 965 41 Q936 41 917 65.5 Q898 90 898 128 Q898 142 901 157 L874 157 Q870 139 870 121 Q870 69 899 33.5 Q928 -2 975 -2 Q1049 -2 1091 70 Q1128 132 1129 220 Q1130 301 1100 362 Q1066 432 1007 432 Q951 432 930 413 Q897 384 903 337 Q920 319 920 299 Q920 278 904.5 263.5 Q889 249 868 249 Q838 249 818.5 269 Q799 289 799 322 Q799 400 841 428 Z " />
<glyph glyph-name="v_e" unicode="&#xd91;" horiz-adv-x="595" d="M16 315 L260 315 Q261 342 244 364 Q227 386 204 386 Q196 386 189 383 Q168 374 150 355 Q137 341 111 338 Q97 336 87 345.5 Q77 355 77 369 Q77 423 148 431 Q159 432 173 432 Q230 433 262 391.5 Q294 350 295 288 L204 288 Q159 288 124 262 Q89 236 95 201 Q104 147 165 128 Q208 114 292 115 Q378 116 434.5 154 Q491 192 503 267 Q505 281 505 295 Q505 362 470 411 Q448 362 386 359 Q339 357 310.5 393 Q282 429 283 477 Q284 556 325 597 Q364 577 409 534 Q460 485 493 428 Q552 328 544 220 Q537 125 468.5 63 Q400 1 300 0 Q191 -1 125 35 Q40 82 46 183 Q48 218 71.5 248.5 Q95 279 124 289 L16 289 L16 315 Z M451 438 Q431 472 398 504 Q381 522 334 560 Q313 536 313 484 Q313 410 369 397 Q379 395 389 395 Q438 395 451 438 Z " />
<glyph glyph-name="v_ee" unicode="&#xd92;" horiz-adv-x="627" d="M16 315 L260 315 Q261 342 244 364 Q227 386 204 386 Q196 386 189 383 Q168 374 150 355 Q137 341 111 338 Q97 336 87 345.5 Q77 355 77 369 Q77 423 148 431 Q159 432 173 432 Q230 433 262 391.5 Q294 350 295 288 L204 288 Q159 288 124 262 Q89 236 95 201 Q104 147 165 128 Q208 114 292 115 Q378 116 434.5 154 Q491 192 503 267 Q505 281 505 295 Q505 362 470 411 Q448 362 386 359 Q339 357 310.5 393 Q282 429 283 477 Q284 556 325 597 Q364 577 409 534 Q460 485 493 428 Q552 328 544 220 Q537 125 468.5 63 Q400 1 300 0 Q191 -1 125 35 Q40 82 46 183 Q48 218 71.5 248.5 Q95 279 124 289 L16 289 L16 315 Z M451 438 Q431 472 398 504 Q381 522 334 560 Q313 536 313 484 Q313 410 369 397 Q379 395 389 395 Q438 395 451 438 Z M504 350 L504 654 Q521 640 565 620 Q609 600 626 584 Q653 558 654 517 Q655 486 632.5 463.5 Q610 441 576 441 Q554 441 531 451 L531 304 L504 350 Z M531 611 L531 476 Q543 470 560 470 Q618 470 614 522 Q610 566 531 611 Z " />
<glyph glyph-name="v_ei" unicode="&#xd93;" horiz-adv-x="1165" d="M584 206 L555 206 Q547 285 473 344 Q399 403 301 403 Q214 403 154 363 Q90 320 90 252 Q90 241 92 230 Q111 111 280 113 Q418 115 437 179 Q441 192 441 204 Q441 234 419 257 Q397 280 360 287 Q379 266 379 242 Q379 211 352.5 188.5 Q326 166 289 166 Q256 166 230 188 Q204 210 203 242 Q202 275 229.5 297.5 Q257 320 296 322 Q378 327 437.5 279 Q497 231 491 162 Q476 -2 264 0 Q162 1 97.5 60 Q33 119 33 212 Q33 314 118 376 Q195 432 301 432 Q415 432 495 368.5 Q575 305 584 206 Z M248 275 Q236 263 236 246 Q236 224 252.5 211 Q269 198 293 198 Q319 198 332 212 Q345 226 345 244 Q345 269 323 283 Q309 292 289 292 Q262 292 248 275 Z M597 316 L841 316 Q842 343 825 365 Q808 387 785 387 Q777 387 770 384 Q749 375 731 356 Q718 342 692 339 Q678 337 668 346.5 Q658 356 658 370 Q658 424 729 432 Q740 433 754 433 Q811 434 843 392.5 Q875 351 876 289 L785 289 Q740 289 705 263 Q670 237 676 202 Q685 148 746 129 Q789 115 873 116 Q959 117 1015.5 155 Q1072 193 1084 268 Q1086 282 1086 296 Q1086 363 1051 412 Q1029 363 967 360 Q920 358 891.5 394 Q863 430 864 478 Q865 557 906 598 Q945 578 990 535 Q1041 486 1074 429 Q1133 329 1125 221 Q1118 126 1049.5 64 Q981 2 881 1 Q772 0 706 36 Q621 83 627 184 Q629 219 652.5 249.5 Q676 280 705 290 L597 290 L597 316 Z M1032 439 Q1012 473 979 505 Q962 523 915 561 Q894 537 894 485 Q894 411 950 398 Q960 396 970 396 Q1019 396 1032 439 Z " />
<glyph glyph-name="v_o" unicode="&#xd94;" horiz-adv-x="636" d="M392 365 Q393 335 371.5 313 Q350 291 318 291 Q309 291 299 293 Q270 300 255 322 Q240 344 244 372 Q248 400 272 418 Q292 433 314 434 Q360 436 390 413 Q424 386 422 335 Q421 291 387 260 Q353 229 307 226 Q252 223 211 256.5 Q170 290 170 344 Q170 409 172 383 Q170 402 155 405 Q123 412 96.5 375.5 Q70 339 69 286 Q65 154 159 124 Q207 109 240 119 Q290 134 290 175 L290 201 L316 201 L316 174 Q316 133 377 119 Q393 115 408 115 Q469 115 509 169 Q545 218 548 286 Q552 388 493 466 Q426 553 311 555 Q234 556 185 537 Q133 517 92 466 L62 466 Q109 531 170 556 Q224 579 313 578 Q442 577 520 477 Q590 386 590 254 Q590 158 555 88 Q510 0 422 0 Q384 0 352 13 Q315 28 305 55 Q272 -5 183 0 Q111 4 67 80 Q26 151 31 242 Q35 316 61 368 Q94 432 150 432 Q203 432 199 357 Q197 315 224.5 284 Q252 253 295 254 Q364 255 389 311 Q397 329 392 365 Z M274 365 Q274 346 287.5 333.5 Q301 321 319 321 Q343 321 355 339 Q363 351 363 365 Q363 383 350 395.5 Q337 408 318 408 Q300 408 287 395.5 Q274 383 274 365 Z " />
<glyph glyph-name="v_oo" unicode="&#xd95;" horiz-adv-x="636" d="M165 510 Q224 524 312 519 Q404 514 452 486 Q508 454 531 419 Q515 474 478 516 Q451 546 403 567 Q355 588 312 590 Q202 596 156 566 Q139 555 139 544 Q139 531 157 527 Q171 524 165 510 Z M444 458 Q380 489 295 491 Q222 493 166 482 Q114 472 42 442 L42 474 Q73 484 103 495 Q129 504 126 512 Q119 516 108.5 524.5 Q98 533 98 543 Q98 556 112 573 Q142 608 224 620 Q283 628 344 617 Q442 598 496 539 Q537 494 557 432 Q565 395 574 358 Q590 321 590 251 Q590 157 554 87 Q508 0 422 0 Q384 0 352 13 Q315 28 305 55 Q272 -5 183 0 Q111 4 67 80 Q26 151 31 242 Q35 316 61 368 Q94 432 150 432 Q203 432 199 357 Q197 315 224.5 284 Q252 253 295 254 Q364 255 389 311 Q397 329 392 365 Q393 335 371.5 313 Q350 291 318 291 Q309 291 299 293 Q270 300 255 322 Q240 344 244 372 Q248 400 272 418 Q292 433 314 434 Q360 436 390 413 Q424 386 422 335 Q421 291 387 260 Q353 229 307 226 Q249 222 210 255.5 Q171 289 171 346 Q171 395 172 385 Q171 402 155 405 Q123 412 96.5 375.5 Q70 339 69 286 Q65 154 159 124 Q207 109 240 119 Q290 134 290 175 L290 201 L316 201 L316 174 Q316 133 377 119 Q393 115 409 115 Q470 115 507 168 Q541 217 540 286 Q539 349 508 399 Q481 440 444 458 Z M274 365 Q274 346 287.5 333.5 Q301 321 319 321 Q343 321 355 339 Q363 351 363 365 Q363 383 350 395.5 Q337 408 318 408 Q300 408 287 395.5 Q274 383 274 365 Z " />
<glyph glyph-name="v_ou" unicode="&#xd96;" horiz-adv-x="1023" d="M392 365 Q393 335 371.5 313 Q350 291 318 291 Q309 291 299 293 Q270 300 255 322 Q240 344 244 372 Q248 400 272 418 Q292 433 314 434 Q360 436 390 413 Q424 386 422 335 Q421 291 387 260 Q353 229 307 226 Q252 223 211 256.5 Q170 290 170 344 Q170 409 172 383 Q170 402 155 405 Q123 412 96.5 375.5 Q70 339 69 286 Q65 154 159 124 Q207 109 240 119 Q290 134 290 175 L290 201 L316 201 L316 174 Q316 133 377 119 Q393 115 408 115 Q469 115 509 169 Q545 218 548 286 Q552 388 493 466 Q426 553 311 555 Q234 556 185 537 Q133 517 92 466 L62 466 Q109 531 170 556 Q224 579 313 578 Q442 577 520 477 Q590 386 590 254 Q590 158 555 88 Q510 0 422 0 Q384 0 352 13 Q315 28 305 55 Q272 -5 183 0 Q111 4 67 80 Q26 151 31 242 Q35 316 61 368 Q94 432 150 432 Q203 432 199 357 Q197 315 224.5 284 Q252 253 295 254 Q364 255 389 311 Q397 329 392 365 Z M274 365 Q274 346 287.5 333.5 Q301 321 319 321 Q343 321 355 339 Q363 351 363 365 Q363 383 350 395.5 Q337 408 318 408 Q300 408 287 395.5 Q274 383 274 365 Z M679 429 L644 429 Q607 395 607 322 Q607 277 634.5 245.5 Q662 214 706 213 Q737 212 764 226 Q791 240 799 267 Q803 278 803 289 Q803 325 767 344 Q765 378 786 388 Q797 393 825 393 Q868 393 871 237 Q872 161 860 109 Q845 48 815 43 Q809 42 803 42 Q774 42 754.5 67 Q735 92 735 131 Q735 144 738 158 L712 158 Q708 139 708 121 Q708 69 737 34 Q766 -1 813 -1 Q887 -1 929 71 Q966 133 967 221 Q968 302 938 363 Q904 433 844 433 Q789 433 768 414 Q735 384 740 338 Q757 320 757 300 Q757 279 742 264.5 Q727 250 706 250 Q675 250 655.5 270 Q636 290 636 323 Q636 402 679 429 Z " />
<glyph glyph-name="ka" unicode="&#xd9a;" horiz-adv-x="746" d="M101 303 Q91 294 72 294 Q47 294 37 306 Q27 318 27 336 Q27 363 48 390.5 Q69 418 100 428 Q117 433 136 433 Q177 433 201 412 Q229 387 226 344 Q254 376 320 404 Q400 437 475 434 Q566 430 631.5 364 Q697 298 701 202 Q704 123 666 66 Q630 13 576 2 Q533 -7 504 12 L506 38 Q518 31 539 28 Q561 25 574 31 Q638 58 638 129 Q638 144 635 162 Q618 279 489 335 Q437 357 378 357 Q283 357 216 303 Q262 314 304 314 Q393 314 449.5 269 Q506 224 514 143 Q519 91 495 51 Q471 11 424 2 Q410 -1 397 -1 Q328 -1 296 63 Q270 1 207 -1 Q164 -2 124 37 Q122 39 110 59 Q101 72 90 73 Q56 75 46 13 L21 22 Q36 129 108 231 Q135 269 193 327 Q198 386 163 391 Q128 396 123 363 Q115 316 101 303 Z M178 267 Q148 241 126 208 Q112 188 80 123 Q106 138 135 128 Q186 111 209 113 Q259 116 271 139 Q280 156 279 175 L309 175 Q309 165 315 141 Q331 110 399 117 Q463 124 463 181 Q463 221 424 251 Q388 277 340 283 Q324 285 302 285 Q211 285 178 267 Z " />
<glyph glyph-name="kha" unicode="&#xd9b;" horiz-adv-x="630" d="M70 105 Q86 145 135 145 Q146 145 157 143 Q203 134 210 79 Q213 53 195 28 Q175 0 143 -1 Q84 -2 53 69 Q27 129 34 216 Q41 296 100 346 Q159 396 247 396 Q313 396 360 361 Q412 323 412 258 Q412 247 410 235 Q401 174 364 137 Q370 138 375 138 Q388 138 401.5 124.5 Q415 111 436 111 Q480 111 511 182 Q540 248 538 317 Q535 429 469 501.5 Q403 574 301 576 Q161 579 98 470 L64 470 Q131 595 286 601 Q398 605 482 533 Q566 461 580 349 Q584 320 584 290 Q584 178 539 94 Q493 6 423 0 Q390 -3 369 12 Q360 18 343 40 Q331 56 319 55 Q307 54 240 -13 L204 -10 Q224 10 288 85 Q352 160 352 207 Q352 243 322 265.5 Q292 288 243 284 Q173 279 124 242 Q68 199 68 133 Q68 121 70 105 Z M90 74 Q90 56 104 42.5 Q118 29 136 29 Q153 29 165 41.5 Q177 54 177 71 Q177 94 161 106 Q149 115 132 115 Q110 115 100 101 Q90 87 90 74 Z " />
<glyph glyph-name="ga" unicode="&#xd9c;" horiz-adv-x="636" d="M251 407 Q240 409 229 409 Q165 409 119 361.5 Q73 314 74 249 Q76 116 210 112 Q287 110 307 159 Q311 168 311 180 Q311 202 298 219 Q285 236 265 236 Q257 236 248 233 Q244 214 243 205 L217 205 Q226 293 273 358 Q333 439 426 431 Q497 425 541 366 Q581 312 586 234 Q592 138 534 70 Q472 -1 369 -1 Q354 -1 338 1 L338 27 Q351 26 363 26 Q432 26 470 65 Q508 104 508 168 Q508 227 486 269 Q460 319 410 332 Q387 338 365 338 Q322 338 291.5 315.5 Q261 293 253 259 Q261 260 268 260 Q306 260 330 225 Q351 195 353 155 Q357 82 314 38 Q271 -6 194 -1 Q120 4 76 65 Q34 123 34 204 Q34 311 92 371.5 Q150 432 223 432 Q237 432 251 430 L251 407 L251 407 Z " />
<glyph glyph-name="gha" unicode="&#xd9d;" horiz-adv-x="677" d="M550 297 Q621 262 627 178 Q629 167 629 155 Q629 92 581 46 Q533 0 464 0 Q428 0 382 12 Q378 20 378 30 Q378 39 385 63 Q392 87 392 103 Q392 115 389 126 Q384 145 368.5 158 Q353 171 334 171 Q304 171 287.5 151 Q271 131 271 101 Q271 88 276 66 Q281 44 281 33 Q281 22 277 11 Q227 -1 199 -1 Q135 -1 92 47 Q51 92 51 154 Q51 167 53 179 Q66 261 144 285 L5 285 L5 308 L282 308 Q277 382 213 381 Q187 381 174.5 353 Q162 325 125 327 Q91 329 89 362 Q87 396 118.5 416.5 Q150 437 201 432 Q318 420 312 282 Q237 286 211 283 Q98 272 102 191 Q106 113 208 113 Q226 113 243 120 Q239 135 257 161 Q285 202 335 200 Q378 199 402 165 Q418 144 421 117 Q432 113 481 113 Q525 113 552 134.5 Q579 156 579 197 Q579 237 551 261 Q523 285 481 289 Q420 294 353 280 Q350 340 376 381 Q407 428 470 432 Q556 437 577 365 Q579 357 579 349 Q579 331 570 315.5 Q561 300 550 297 Z M382 310 Q406 317 445 317 Q496 317 525 306 Q540 322 540 341 Q540 360 525 374 Q510 388 488 391 Q478 392 469 392 Q389 392 382 310 Z " />
<glyph glyph-name="knaasi" unicode="&#xd9e;" horiz-adv-x="647" d="M555 286 Q560 394 486.5 476 Q413 558 305 558 Q186 558 105 468 L73 468 Q162 582 308 582 Q426 582 509 495 Q590 412 597 290 Q604 177 567 97 Q523 0 431 0 Q387 0 359 17 Q338 29 313 59 Q267 1 200 0 Q137 -1 93.5 42.5 Q50 86 50 144 Q50 171 61 196 Q73 225 104 244 Q135 263 174 263 Q193 263 225 257 Q262 250 276 249 Q331 245 339 288 Q341 298 341 308 Q341 355 298 383 Q261 407 213 407 Q241 388 241 346 Q241 315 215 292.5 Q189 270 153 272 Q115 274 92.5 296.5 Q70 319 70 350 Q70 369 80 386 Q110 437 213 432 Q302 428 343 383 Q376 346 372 291 Q368 227 301 221 Q254 217 217 228 Q196 234 174 234 Q112 234 100 193 Q97 183 97 173 Q97 113 198 113 Q236 113 266.5 130.5 Q297 148 297 172 L297 191 L328 191 L328 172 Q328 149 359 130.5 Q390 112 427 112 Q547 112 555 286 Z M105 351 Q105 329 119.5 315 Q134 301 154 301 Q176 301 190.5 315 Q205 329 205 350 Q205 371 190.5 385 Q176 399 156 399 Q135 399 120 385 Q105 371 105 351 Z " />
<glyph glyph-name="nga" unicode="&#xd9f;" horiz-adv-x="749" d="M244 404 Q156 412 98 346 Q62 305 62 221 Q62 101 135 33 L135 0 Q81 27 52 93 Q27 150 27 221 Q27 285 47 327 Q89 414 180 429 Q233 438 367 430 L367 407 Q356 409 345 409 Q281 409 235.5 361.5 Q190 314 194 249 Q201 121 323 116 Q358 115 388 129 Q425 147 425 179 Q425 218 385 218 Q374 218 361 213 Q357 197 357 192 L333 192 Q341 290 389 357 Q448 439 543 431 Q614 425 658 366 Q699 312 703 234 Q708 138 650 70 Q588 -1 485 -1 Q470 -1 454 1 L454 27 Q467 26 480 26 Q553 26 596.5 66 Q640 106 640 174 Q640 228 612 270 Q580 316 527 325 Q512 328 497 328 Q447 328 410.5 301.5 Q374 275 366 239 Q376 241 386 241 Q422 241 445 214 Q466 191 469 154 Q475 82 431 38 Q387 -6 310 -1 Q236 4 192 65 Q150 123 150 204 Q150 306 207 371 Q223 390 244 404 Z " />
<glyph glyph-name="cha" unicode="&#xda0;" horiz-adv-x="623" d="M252 276 Q205 276 157 252 Q117 232 117 198 Q117 188 123 177 Q143 142 190 128 Q232 115 312 115 Q410 115 467 170.5 Q524 226 524 323 Q524 414 465 482 Q402 553 306 553 Q241 553 197 534.5 Q153 516 116 470 L85 470 Q160 575 299 577 Q422 579 501 487 Q575 400 575 275 Q575 160 508 83 Q436 0 316 0 Q251 0 212 6 Q59 31 65 171 Q68 243 148 274 Q42 274 18 270 L18 302 L285 302 Q282 348 252 376 Q237 390 215 390 Q199 390 185 382 Q168 372 162 347 Q156 322 141 316 Q130 312 119 312 Q78 312 78 349 Q78 389 114 413 Q144 433 187 433 Q203 433 219 430 Q317 413 315 276 L252 276 Z " />
<glyph glyph-name="Ja" unicode="&#xda1;" horiz-adv-x="598" d="M262 284 Q214 291 163 283 Q132 278 108 257 Q84 236 84 207 Q84 193 90 179 Q108 139 168 125 Q211 115 300 115 Q477 115 507 179 Q513 192 513 205 Q513 219 506 233 Q487 188 457 171 Q439 161 413 161 Q396 161 381 166 Q349 178 335 221 Q323 257 329 287 Q334 287 292 284 Q286 302 286 322 Q286 362 308.5 393.5 Q331 425 368 431 Q389 481 440 539 Q511 619 544 619 Q568 619 568 597 Q568 586 558 580 Q528 563 471 523 Q414 473 399 432 Q411 433 431 433 Q500 432 526 364 Q531 351 531 331 Q531 286 516 262 Q552 215 549 156 Q544 79 470 38 Q403 0 298 0 Q183 0 115 38 Q37 82 33 168 Q30 224 71 263 Q109 299 166 306 Q202 311 238 309 Q241 342 227.5 365 Q214 388 187 388 Q157 388 148 365 Q135 333 106 327 Q100 326 95 326 Q57 326 57 364 Q57 371 60 378 Q82 432 150 432 Q203 432 234.5 404 Q266 376 266 323 Q266 305 262 284 Z M359 407 Q313 381 313 323 Q313 315 314 307 Q318 307 323.5 308 Q329 309 331 309 Q334 324 341 355 Q348 386 359 407 Z M388 405 Q363 365 359 309 Q413 309 440 303 Q476 295 497 280 Q503 309 503 325 Q503 367 475 390 Q443 415 388 405 Z M358 287 Q357 277 357 267 Q357 201 402 189 Q409 187 416 187 Q458 187 484 254 Q469 273 430 281 Q401 287 358 287 Z " />
<glyph glyph-name="ja" unicode="&#xda2;" horiz-adv-x="598" d="M262 288 Q213 293 162 283 Q129 276 107.5 256 Q86 236 86 210 Q86 201 89 191 Q116 116 300 116 Q471 116 492 193 Q495 202 495 211 Q495 270 418 284 Q357 295 300 285 Q293 309 293 331 Q293 411 378 433 Q397 486 440 539 Q495 607 535 618 Q544 620 552 620 Q589 620 589 591 Q589 578 579.5 567.5 Q570 557 532 541 Q486 522 474 514 Q423 483 406 433 Q415 433 430 433 Q467 434 493 412.5 Q519 391 520 359 Q521 309 474 289 Q508 275 529.5 238.5 Q551 202 549 156 Q546 79 471 38 Q404 0 298 0 Q183 0 113 39 Q35 82 33 168 Q32 225 74 266 Q114 303 172 310 Q199 313 235 311 Q236 319 236 327 Q236 382 189 385 Q163 386 149 363 Q138 345 132 340 Q124 332 107 328 Q99 326 93 326 Q57 326 57 361 Q57 370 60 378 Q83 432 154 432 Q204 432 235 404.5 Q266 377 266 326 Q266 308 262 288 Z M361 344 Q354 371 368 406 Q323 380 323 334 Q323 323 326 309 Q337 310 359 311 Q369 311 385 309 Q367 319 361 344 Z M388 359 Q388 337 403.5 322.5 Q419 308 440 308 Q460 308 474.5 321.5 Q489 335 489 355 Q489 375 474.5 390.5 Q460 406 437 406 Q417 406 402.5 392.5 Q388 379 388 359 Z " />
<glyph glyph-name="kdha" unicode="&#xda3;" horiz-adv-x="1079" d="M178 267 Q150 243 128 211 Q116 193 81 124 Q105 138 135 128 Q186 111 209 113 Q259 116 271 139 Q280 156 279 175 L309 175 Q309 165 315 141 Q331 110 399 117 Q463 124 463 181 Q463 221 425 250 Q391 275 343 283 Q328 285 306 285 Q216 285 178 267 Z M481 236 Q502 353 600 388 Q579 395 555 399 Q515 406 479 406 Q430 406 377 393 Q336 383 286 354 Q243 329 216 303 Q262 313 304 313 Q424 313 481 236 Z M397 -1 Q328 -1 296 63 Q270 1 207 -1 Q164 -2 124 37 Q122 39 110 59 Q101 72 90 73 Q56 75 46 13 L20 22 Q39 131 107 230 Q131 265 194 328 Q196 387 163 391 Q128 396 123 363 Q115 316 101 303 Q91 294 72 294 Q47 294 37 306 Q27 318 27 336 Q27 363 48 390.5 Q69 418 100 428 Q117 433 136 433 Q177 433 201.5 411 Q226 389 226 345 Q266 385 345 413 Q405 434 469 434 Q495 434 523 431 Q598 423 666 398 L666 373 Q608 378 562.5 332 Q517 286 524 222 Q535 113 632 113 Q673 113 701 131 Q733 151 733 185 L733 218 L764 218 L764 185 Q764 151 793 132 Q822 113 862 113 Q981 113 992 284 Q999 398 925 477.5 Q851 557 738 557 Q618 557 539 468 L510 468 Q595 580 744 580 Q863 580 945 494 Q1025 412 1032 290 Q1038 176 1002 97 Q959 0 867 0 Q793 0 748 59 Q702 1 634 0 Q552 -2 507 78 Q497 41 466.5 20 Q436 -1 397 -1 Z " />
<glyph glyph-name="kna" unicode="&#xda4;" horiz-adv-x="1024" d="M302 267 Q242 212 206 124 Q216 131 232 131 Q244 131 272 124 Q318 112 334 113 Q351 114 364 118 Q383 123 393 136.5 Q403 150 403 175 L433 175 Q433 151 445 132.5 Q457 114 516 116 Q543 117 563.5 131.5 Q584 146 586 172 Q589 220 549 251 Q514 277 458 283 Q362 293 302 267 Z M611 231 Q626 269 672 296 Q708 317 819 317 L914 317 Q907 347 880 373 Q859 393 822 387 Q805 384 792 363 Q779 342 757 339 Q737 336 724 346.5 Q711 357 711 372 Q711 377 713 382 Q714 383 715 385.5 Q716 388 716 389 Q711 392 678 399 Q636 406 601 406 Q553 406 501 393 Q410 370 341 303 Q385 314 429 314 Q562 314 611 231 Z M629 71 Q601 -1 522 -1 Q453 -1 420 63 Q396 1 331 -1 Q288 -2 249 37 Q248 38 234 59 Q226 72 214 73 Q195 74 182 51 Q172 33 171 12 L145 23 Q166 138 232 231 Q256 265 318 327 Q323 389 285 392 Q252 394 247 361 Q239 315 224 302 Q215 294 196 294 Q171 294 161 306 Q151 318 151 336 Q151 374 185 404 Q136 398 95 349 Q57 304 57 218 Q57 97 135 29 L135 0 Q81 27 52 93 Q27 150 27 221 Q27 285 47 327 Q67 369 102.5 398 Q138 427 177 431 Q203 434 232 430 Q244 433 258 433 Q299 433 325 411.5 Q351 390 351 345 Q371 367 413 389 Q464 416 522 427 Q576 438 648 431 Q699 426 733 412 Q765 439 832 431 Q925 420 951 294 L852 294 Q808 294 775 269 Q725 231 725 160 Q725 67 835 39 Q850 35 863 35 Q905 35 955 92 L978 75 Q961 62 941.5 33 Q922 4 904 -41 Q893 -69 893 -98 Q893 -134 908.5 -159 Q924 -184 980 -210 L980 -238 Q959 -242 927 -242 Q891 -241 877 -234 Q820 -204 820 -142 Q820 -130 822 -117 Q828 -75 890 10 Q837 -1 795 -1 Q761 -1 736 6 Q657 28 629 71 Z " />
<glyph glyph-name="gna" unicode="&#xda5;" horiz-adv-x="842" d="M350 239 Q360 241 369 241 Q403 241 425 218 Q439 266 491 296 Q527 317 637 317 L732 317 Q726 347 699.5 370.5 Q673 394 634 387 Q618 384 605.5 362 Q593 340 571 337 Q552 334 540.5 344.5 Q529 355 529 371 Q529 377 531 382 Q533 387 540 399 Q525 403 510 403 Q453 403 407 352 Q367 307 350 239 Z M442 80 Q406 -9 294 -1 Q220 4 176 66 Q134 123 134 204 Q134 311 191 371 Q210 391 235 406 Q151 414 95 349 Q57 304 57 218 Q57 97 135 29 L135 0 Q81 27 52 93 Q27 150 27 221 Q27 298 63 355 Q105 420 178 429 Q235 436 351 430 L351 407 Q341 409 330 409 Q266 409 219 359.5 Q172 310 176 249 Q185 118 304 114 Q406 111 406 176 Q406 218 368 218 Q357 218 345 213 Q341 197 341 192 L316 192 Q323 289 374 358 Q433 439 527 431 Q551 429 567 422 Q598 437 651 431 Q745 420 769 294 L661 294 Q613 294 585 269 Q541 229 542 164 Q543 108 581 70 Q619 32 674 32 Q721 32 773 92 L797 75 Q774 57 756 24 Q736 -13 726 -42 Q716 -71 716 -101 Q716 -138 733 -160 Q762 -197 799 -210 L799 -238 Q777 -242 745 -242 Q709 -241 696 -234 Q639 -204 639 -143 Q639 -84 709 10 Q656 -1 614 -1 Q581 -1 555 6 Q471 28 442 80 Z " />
<glyph glyph-name="nja" unicode="&#xda6;" horiz-adv-x="666" d="M331 288 Q282 293 231 283 Q198 276 176.5 256 Q155 236 155 210 Q155 201 158 191 Q185 116 369 116 Q540 116 561 193 Q564 202 564 211 Q564 270 487 284 Q426 295 369 285 Q362 309 362 331 Q362 411 447 433 Q466 486 509 539 Q564 607 604 618 Q613 620 621 620 Q658 620 658 591 Q658 578 648.5 567.5 Q639 557 601 541 Q555 522 543 514 Q492 483 475 433 Q484 433 499 433 Q536 434 562 412.5 Q588 391 589 359 Q590 309 543 289 Q577 275 598.5 238.5 Q620 202 618 156 Q615 79 540 38 Q473 0 367 0 Q252 0 182 39 Q104 82 102 168 Q101 225 143 266 Q183 303 241 310 Q268 313 304 311 Q305 319 305 327 Q305 382 258 385 Q232 386 218 363 Q207 345 201 340 Q193 332 176 328 Q168 326 162 326 Q126 326 126 361 Q126 370 129 378 Q152 432 223 432 Q273 432 304 404.5 Q335 377 335 326 Q335 308 331 288 Z M430 344 Q423 371 437 406 Q392 380 392 334 Q392 323 395 309 Q406 310 428 311 Q438 311 454 309 Q436 319 430 344 Z M457 359 Q457 337 472.5 322.5 Q488 308 509 308 Q529 308 543.5 321.5 Q558 335 558 355 Q558 375 543.5 390.5 Q529 406 506 406 Q486 406 471.5 392.5 Q457 379 457 359 Z M270 396 Q236 406 208 406 Q143 406 95 349 Q57 305 57 218 Q57 97 135 29 L135 0 Q81 27 52 93 Q27 150 27 221 Q27 285 47 327 Q67 369 102.5 398 Q138 427 177 431 Q237 437 279 419 L270 396 Z " />
<glyph glyph-name="ta" unicode="&#xda7;" horiz-adv-x="603" d="M321 346 Q295 365 232 365 Q174 365 130 336 Q79 303 79 248 Q79 232 84 217 Q117 110 294 115 Q491 121 506 302 Q514 398 449 474 Q380 553 277 553 Q213 553 172 535 Q127 516 90 470 L57 470 Q130 575 271 577 Q394 579 477 487 Q557 399 557 275 Q557 161 489 84 Q417 2 297 0 Q178 -2 109.5 48.5 Q41 99 33 195 Q27 266 74 323 Q124 384 207 390 Q290 396 321 375 L321 346 L321 346 Z " />
<glyph glyph-name="Ta" unicode="&#xda8;" horiz-adv-x="638" d="M505 423 Q472 363 413 363 Q374 363 343 388.5 Q312 414 309 452 Q304 531 350 603 Q427 572 496 486 Q572 391 584 289 Q587 264 587 238 Q587 141 548 75 Q504 0 422 0 Q348 0 303 59 Q257 1 190 0 Q114 -1 69 68 Q27 132 34 214 Q39 273 68 318 Q100 367 152 387 Q183 398 221 398 L221 374 Q159 376 116.5 329.5 Q74 283 80 222 Q85 179 110 150 Q141 116 190 116 Q286 116 286 177 L286 212 L317 212 L317 177 Q317 147 348 131 Q375 117 417 117 Q539 117 545 284 Q546 325 531 372 Q517 411 505 423 Z M362 569 Q338 537 338 479 Q338 432 367 412 Q387 398 412 398 Q463 398 487 450 Q462 487 435.5 511.5 Q409 536 398 545 Q379 561 362 569 Z " />
<glyph glyph-name="Da" unicode="&#xda9;" horiz-adv-x="647" d="M553 284 Q559 394 486.5 475 Q414 556 306 556 Q179 556 106 468 L73 468 Q159 582 308 582 Q426 582 509 495 Q590 412 597 290 Q604 177 567 97 Q523 0 431 0 Q387 0 359 17 Q338 29 313 59 Q267 1 200 0 Q134 -1 90 46.5 Q46 94 46 158 Q46 181 52 203 Q60 232 84 258 Q106 281 125 288 L15 288 L15 315 L261 315 Q260 344 241 368 Q222 392 198 392 Q189 392 181 389 Q159 380 146 358 Q136 341 111 339 Q97 338 86 347.5 Q75 357 75 371 Q75 378 79 386 Q100 430 172 432 Q229 433 263 390 Q294 350 295 288 L199 288 Q158 288 128 261.5 Q98 235 98 201 Q98 115 196 115 Q236 115 266.5 134 Q297 153 297 187 L297 212 L324 212 L324 187 Q324 154 355 133 Q382 115 422 115 Q544 115 553 284 Z " />
<glyph glyph-name="Dha" unicode="&#xdaa;" horiz-adv-x="647" d="M372 567 Q347 534 347 476 Q347 429 377 409 Q402 393 424 393 Q466 393 498 450 Q481 476 446 511 Q406 552 372 567 Z M52 203 Q60 232 84 258 Q105 281 124 288 L15 288 L15 315 L255 315 Q255 343 238.5 363 Q222 383 199 383 Q190 383 182 379 Q160 370 147 353 Q138 341 112 339 Q98 336 84.5 346 Q71 356 71 370 Q71 412 123 426 Q142 432 170 432 Q227 433 258.5 393 Q290 353 289 288 L195 288 Q158 288 129 261 Q100 234 100 202 Q100 163 126 139 Q152 115 198 115 Q237 115 267 135.5 Q297 156 297 190 L297 218 L326 218 L326 190 Q326 156 356 135.5 Q386 115 425 115 Q491 115 527 164 Q561 210 560 286 Q559 326 540 373 Q526 410 514 424 Q482 363 422 363 Q383 363 352 388.5 Q321 414 318 452 Q313 528 359 603 Q459 563 528.5 456 Q598 349 598 240 Q598 142 558 76 Q513 0 431 0 Q387 0 359 17 Q338 29 313 59 Q267 1 200 0 Q134 -1 90 46.5 Q46 94 46 158 Q46 181 52 203 Z " />
<glyph glyph-name="Na" unicode="&#xdab;" horiz-adv-x="963" d="M22 178 Q39 192 89 222 Q117 239 171 269 Q170 278 170 286 Q170 358 230 399 Q281 433 356 433 Q428 433 467 405 Q552 446 671 488 Q780 527 828 527 Q863 527 863 498 Q863 469 828 462 Q783 454 681 435 Q622 423 498 389 Q530 370 559 325 Q580 293 580 250 Q606 290 650 286 Q690 282 711 250 Q720 289 756 308 Q785 324 822 322 Q875 319 899 255 Q918 206 915 137 Q913 87 887 48 Q858 4 814 -1 Q777 -5 745.5 13.5 Q714 32 702 65 Q677 35 634 36 Q584 37 557 103 Q522 50 480 26 Q434 1 365 0 Q284 -1 236 35 Q204 59 157 129 Q144 149 138 154 Q128 165 111 171 Q89 179 70 173 Q50 167 33 154 L22 178 Z M201 287 Q235 305 313 343 Q377 372 435 394 Q403 409 358 409 Q299 409 259 385 Q200 350 201 287 Z M372 341 Q405 334 425 310 Q445 286 445 255 Q445 216 410.5 188.5 Q376 161 329 159 Q214 154 177 242 Q149 227 101 200 Q128 197 154 181 Q175 166 197 151 Q263 106 338 106 Q359 106 382 109 Q514 128 534 224 Q538 242 538 259 Q538 341 464 378 Q451 374 422 362 Q407 355 372 341 Z M205 258 Q215 227 243 208 Q276 186 315 184 Q272 199 263 240 Q257 268 273 293 L205 258 Z M581 206 Q581 182 573 150 Q574 117 591 94 Q611 66 643 69 Q697 74 699 164 Q701 257 643 258 Q601 259 581 206 Z M727 206 Q733 188 732 163 Q730 127 721 102 Q729 75 750.5 60.5 Q772 46 796 50 Q833 57 833 153 Q833 198 823 231 Q811 269 788 270 Q769 271 751 253.5 Q733 236 727 206 Z M292 258 Q292 231 311 214 Q330 197 354 197 Q381 197 400 218 Q415 234 415 257 Q415 286 394 303 Q377 318 353 318 Q324 318 308 299.5 Q292 281 292 258 Z " />
<glyph glyph-name="nDa" unicode="&#xdac;" horiz-adv-x="731" d="M176 402 Q163 398 149 393 Q121 380 95 349 Q57 305 57 218 Q57 97 135 29 L135 0 Q81 27 52 93 Q27 150 27 221 Q27 285 47 327 Q67 369 102.5 398 Q138 427 177 431 Q199 433 236 430 Q240 432 260 432 Q317 433 350 390 Q381 351 382 288 L287 288 Q248 288 216 260 Q184 232 186 199 Q190 115 286 115 Q326 115 355.5 134 Q385 153 385 187 L385 214 L416 214 L416 187 Q416 153 446 133 Q473 115 512 115 Q640 115 644 284 Q646 393 575 474 Q501 556 394 556 Q267 556 194 468 L161 468 Q246 582 396 582 Q526 582 608 483 Q685 390 685 258 Q685 152 648 83 Q604 0 519 0 Q448 0 401 59 Q354 1 288 0 Q222 -1 178 46.5 Q134 94 134 158 Q134 181 140 203 Q148 232 172 258 Q194 281 213 288 L103 288 L103 315 L349 315 Q348 343 329.5 364 Q311 385 288 385 Q280 385 272 382 Q255 375 241 355 Q230 340 206 338 Q189 337 176 347 Q163 357 163 373 Q163 379 166 385.5 Q169 392 176 402 Z " />
<glyph glyph-name="tha" unicode="&#xdad;" horiz-adv-x="704" d="M176 325 Q178 338 178 349 Q178 390 152 389 Q127 388 121 357.5 Q115 327 114 325 Q108 306 93 299 Q84 295 73 295 Q51 295 43 313 Q37 327 37 342 Q37 377 64.5 405 Q92 433 126 433 Q163 433 182 418 Q204 398 207 349 Q247 391 313 414 Q372 435 435 435 Q525 435 590.5 370 Q656 305 663 213 Q669 135 637 73 Q602 5 539 0 Q484 -4 455 16 L460 42 Q487 25 515 25 Q535 25 550 34 Q594 59 594 131 Q594 155 589 178 Q568 270 493 322 Q431 365 348 365 Q253 365 198 305 Q233 320 285 320 Q345 320 384 298 Q450 260 461 192 Q463 177 463 162 Q463 93 416.5 48.5 Q370 4 299 -1 Q203 -7 151 36 Q136 51 121 65 Q100 82 81 79 Q59 75 44 8 L21 26 Q40 133 98 225 Q144 298 176 325 Z M159 266 Q144 247 122 211 Q104 182 96 162 Q79 123 77 118 Q100 134 138 134 Q169 134 194.5 121.5 Q220 109 262 109 Q311 109 348 134 Q392 162 392 209 Q392 224 385 238 Q357 296 279 296 Q210 296 159 266 Z " />
<glyph glyph-name="Tha" unicode="&#xdae;" horiz-adv-x="614" d="M245 405 Q175 404 128 363.5 Q81 323 81 263 Q81 181 158 143 Q217 114 307 115 Q473 118 518 262 Q524 281 524 304 Q524 370 493 412 Q465 363 413 363 Q374 363 343 388.5 Q312 414 309 452 Q304 531 350 603 Q427 572 493 472 Q566 364 566 254 Q566 144 490 72 Q414 0 298 -1 Q187 -2 110 65 Q33 132 33 238 Q33 318 97 374 Q158 427 245 430 L245 405 Z M363 565 Q339 541 339 478 Q339 429 369 408 Q388 395 409 395 Q451 395 477 444 Q462 473 430 507 Q387 553 363 565 Z " />
<glyph glyph-name="da" unicode="&#xdaf;" horiz-adv-x="456" d="M286 294 Q232 294 186 267 Q140 240 140 160 Q140 107 168 71 Q199 30 255 27 Q324 23 384 92 L407 75 Q379 47 368 32 Q342 -15 333 -39 Q319 -67 319 -95 Q319 -133 344 -164 Q359 -183 375 -191 Q384 -196 409 -204 L409 -238 Q388 -242 355 -242 Q319 -241 306 -234 Q249 -204 249 -142 Q249 -84 319 10 Q265 -1 224 -1 Q191 -1 165 6 Q38 41 31 158 Q26 252 101 296 Q137 317 248 317 L343 317 Q336 348 311 371 Q290 390 247 383 Q230 380 214.5 360 Q199 340 177 337 Q140 331 140 368 Q140 375 142 382 Q161 433 232 433 Q245 433 261 431 Q355 420 379 294 L286 294 Z " />
<glyph glyph-name="dha" unicode="&#xdb0;" horiz-adv-x="638" d="M221 398 L221 373 Q163 378 118 332 Q73 286 80 222 Q92 113 188 113 Q229 113 257 131 Q289 151 289 185 L289 218 L319 218 L319 185 Q319 151 348 132 Q377 113 417 113 Q538 113 548 284 Q555 398 481 477.5 Q407 557 294 557 Q173 557 94 468 L65 468 Q150 580 299 580 Q418 580 501 494 Q581 412 588 290 Q595 177 558 97 Q514 0 422 0 Q348 0 303 59 Q257 1 190 0 Q114 -1 69 68 Q27 132 34 214 Q39 273 68 318 Q100 367 152 387 Q183 398 221 398 Z " />
<glyph glyph-name="na" unicode="&#xdb1;" horiz-adv-x="806" d="M214 286 Q221 304 221 324 Q221 351 209 368.5 Q197 386 175 383 Q145 378 140 345 Q132 293 94 293 Q55 293 55 340 Q55 379 85 405 Q115 431 154 431 Q199 431 228 396.5 Q257 362 253 317 Q302 370 375 402 Q452 436 527 432 Q623 427 691.5 356 Q760 285 760 183 Q760 113 727 62 Q690 6 626 0 Q575 -5 542 21 L555 43 Q580 22 626 28 Q692 37 692 115 Q692 146 680 183 Q655 265 579 315 Q525 351 437 351 Q341 351 266 295 Q302 309 339 309 Q407 309 453.5 266 Q500 223 498 162 Q496 81 430 38 Q374 2 288 0 Q196 -2 127 29 Q50 64 26 131 Q49 122 67 122 Q81 122 90 127 Q108 137 122.5 160.5 Q137 184 151 207 Q160 219 214 286 Z M234 258 Q206 240 182 204 Q163 174 145 144 Q128 118 111 112 Q203 96 292 105 Q415 117 437 168 Q444 185 444 200 Q444 240 400 263 Q365 281 320 281 Q269 281 234 258 Z " />
<glyph glyph-name="nda" unicode="&#xdb3;" horiz-adv-x="526" d="M102 158 Q97 252 172 296 Q208 317 319 317 L414 317 Q405 338 401 345 Q392 363 380 373 Q355 395 318 389 Q302 386 289.5 364 Q277 342 255 339 Q236 336 223.5 346 Q211 356 211 371 Q211 377 213 382 Q215 387 221 398 Q207 405 189 405 Q137 405 89 347 Q60 312 60 247 Q60 157 110 110 Q104 131 102 158 Z M126 73 Q80 94 55 146 Q32 192 32 248 Q32 293 47 327 Q65 369 101 398 Q137 427 177 431 Q214 435 242 419 Q274 438 333 431 Q427 420 451 294 L346 294 Q296 294 268 273 Q217 234 222 166 Q229 65 337 45 Q350 43 362 43 Q412 43 455 92 L478 75 Q468 67 442 32 Q419 1 404 -41 Q397 -61 397 -87 Q397 -133 417 -160 Q442 -193 480 -210 L480 -238 Q459 -242 427 -242 Q391 -241 377 -234 Q320 -204 320 -142 Q320 -130 322 -117 Q328 -74 391 10 Q337 -1 296 -1 Q263 -1 237 6 Q162 27 126 73 Z " />
<glyph glyph-name="pa" unicode="&#xdb4;" horiz-adv-x="616" d="M271 297 Q204 304 151 290 Q90 273 90 222 Q90 209 95 195 Q120 117 313 117 Q497 117 518 193 Q522 209 522 223 Q522 286 448 297 Q395 305 324 297 Q321 314 321 329 Q321 378 353 406.5 Q385 435 446 433 Q486 432 513 410 Q540 388 540 355 Q540 319 514 303 Q574 268 574 188 Q574 176 572 163 Q563 85 487 41 Q416 0 307 0 Q188 0 117 39 Q39 81 32 167 Q23 281 138 313 Q196 329 244 321 Q245 329 245 337 Q245 388 194 388 Q167 388 153 368 Q133 338 104 329 Q99 328 94 328 Q80 328 70 339 Q60 350 60 366 Q60 377 65 386 Q88 432 150 432 Q161 432 176 431 Q275 424 275 335 Q275 318 271 297 Z M489 315 Q506 328 506 349 Q506 370 490.5 386.5 Q475 403 451 404 Q402 407 375.5 384.5 Q349 362 354 325 Q405 328 417 327 Q461 325 489 315 Z " />
<glyph glyph-name="pha" unicode="&#xdb5;" horiz-adv-x="583" d="M206 315 L248 315 Q247 343 230 362.5 Q213 382 191 382 Q183 382 175 379 Q155 371 143 355.5 Q131 340 105 335 Q87 332 75.5 343.5 Q64 355 64 371 Q64 391 87 411 Q110 431 163 432 Q219 433 251 390 Q280 351 282 288 L188 288 Q140 288 110 264.5 Q80 241 80 209 Q80 154 157 130 Q207 115 278 115 Q364 115 422 155.5 Q480 196 491 267 Q493 282 493 297 Q493 358 459 411 Q437 362 374 359 Q329 357 300 393 Q271 429 272 477 Q273 557 315 597 Q353 577 398 534 Q448 485 481 428 Q540 327 533 220 Q527 125 458.5 63 Q390 1 290 0 Q165 -1 99 45 Q27 95 33 183 Q37 251 91 288 Q130 315 206 315 Z M442 439 Q422 471 388 504 Q370 523 322 561 Q304 543 304 496 Q304 419 361 405 Q372 402 382 402 Q423 402 442 439 Z " />
<glyph glyph-name="ba" unicode="&#xdb6;" horiz-adv-x="619" d="M80 88 Q80 114 92 127 Q114 151 153 151 Q219 151 229 79 Q233 48 211.5 25 Q190 2 156 -1 Q87 -7 54 71 Q33 121 33 187 Q33 282 92 339 Q151 396 247 396 Q316 396 366 362 Q423 324 423 257 Q423 247 422 237 Q416 189 383 165 Q358 153 334 141 Q310 129 310 113 Q310 90 345 90 Q367 90 397 101 Q444 119 482.5 186 Q521 253 524 319 Q529 424 466.5 490.5 Q404 557 303 558 Q153 560 95 470 L64 470 Q116 578 286 585 Q399 590 478 524 Q557 458 571 347 Q575 316 575 284 Q575 176 534 97 Q491 15 423 2 Q400 -2 381 -2 Q335 -2 304 24 Q273 50 273 94 Q273 133 303 154 Q330 167 356 181.5 Q382 196 378 227 Q370 294 239 296 Q186 297 141 274.5 Q96 252 80 213 Q66 178 66 148 Q66 118 80 88 Z M100 75 Q100 54 114 40 Q128 26 149 26 Q169 26 183.5 40 Q198 54 198 74 Q198 94 183.5 108 Q169 122 149 122 Q129 122 114.5 108.5 Q100 95 100 75 Z " />
<glyph glyph-name="bha" unicode="&#xdb7;" horiz-adv-x="670" d="M255 281 Q198 285 151.5 259 Q105 233 105 193 Q105 115 226 115 Q297 115 323 158 Q330 169 330 181 Q330 210 306 208 Q291 207 278 192 L255 192 Q260 261 298 327 Q359 433 451 432 Q531 431 578 363 Q620 302 621 214 Q622 131 568.5 70 Q515 9 432 0 Q402 -3 368 2 L368 29 Q418 20 460 33 Q507 47 529 91 Q549 129 545 176 Q541 226 517 265 Q490 311 447 321 Q428 326 408 326 Q306 326 291 231 Q312 242 336 232 Q377 215 381 153 Q385 88 339.5 46 Q294 4 226 0 Q156 -4 104 37 Q48 81 51 151 Q54 236 139 276 L6 276 L6 303 L224 303 Q220 328 210 346 Q193 378 158 370 Q140 366 128 350 Q116 334 99 331 Q57 325 53 359 Q49 388 75 410.5 Q101 433 140 432 Q190 431 222 389.5 Q254 348 255 281 Z " />
<glyph glyph-name="ma" unicode="&#xdb8;" horiz-adv-x="635" d="M110 469 L78 469 Q160 582 299 586 Q417 589 499 504.5 Q581 420 585 301 Q589 182 515 94 Q441 6 322 0 Q195 -6 116 58 Q34 124 33 242 Q32 312 66 370 Q103 432 155 432 Q202 432 207 389 Q209 372 207 346 Q205 314 205 299 Q206 266 231.5 243 Q257 220 298 218 Q392 214 401 310 Q405 353 384 377 Q388 366 388 354 Q388 321 363.5 297.5 Q339 274 299 277 Q270 279 251.5 303 Q233 327 233 356 Q233 391 258.5 414 Q284 437 320 437 Q370 437 402 397 Q431 360 431 309 Q431 261 398 225.5 Q365 190 315 185 Q261 180 219 209 Q174 240 173 292 Q173 305 175.5 331.5 Q178 358 178 368 Q178 405 151 405 Q123 405 99.5 369.5 Q76 334 76 287 Q76 267 81 248 Q116 115 311 115 Q416 115 477 172.5 Q538 230 538 334 Q538 427 472.5 493 Q407 559 309 560 Q182 562 110 469 Z M263 356 Q263 336 277 322 Q291 308 310 308 Q324 308 337 316 Q360 330 360 359 Q360 384 342 397 Q329 407 313 407 Q292 407 277.5 392 Q263 377 263 356 Z " />
<glyph glyph-name="mba" unicode="&#xdb9;" horiz-adv-x="636" d="M546 286 Q552 388 492 465 Q426 552 311 554 Q160 557 93 466 L62 466 Q109 531 170 556 Q224 579 313 578 Q442 577 520 477 Q590 386 590 254 Q590 155 554 87 Q514 11 442 1 Q431 0 420 0 Q374 0 344 19 Q378 63 377 111 Q376 175 322 177 Q292 178 273.5 156 Q255 134 255 103 Q255 53 285 21 Q256 7 246 4 Q224 -2 183 0 Q111 4 67 80 Q26 151 31 242 Q35 316 61 368 Q94 432 150 432 Q202 432 198 358 Q196 317 224 286.5 Q252 256 295 257 Q365 258 389 311 Q397 329 392 365 Q393 335 371.5 313 Q350 291 318 291 Q309 291 299 293 Q270 300 255 322 Q240 344 244 372 Q248 400 272 418 Q292 433 314 434 Q360 436 390 413 Q424 386 422 335 Q421 292 387 262.5 Q353 233 307 230 Q253 227 211 258 Q169 289 169 342 Q169 421 171 381 Q170 400 155 404 Q150 405 144 405 Q113 405 90.5 368 Q68 331 67 281 Q65 218 90.5 176 Q116 134 161 120 Q190 111 226 121 Q228 156 253.5 180 Q279 204 323 204 Q362 204 388 178 Q409 155 409 128 Q409 122 408 117 Q467 112 504 158.5 Q541 205 546 286 Z M273 364 Q273 345 287 332 Q301 319 320 319 Q338 319 351.5 332 Q365 345 365 364 Q365 383 351.5 396 Q338 409 320 409 Q301 409 287 395.5 Q273 382 273 364 Z " />
<glyph glyph-name="ya" unicode="&#xdba;" horiz-adv-x="636" d="M251 387 L251 359 Q237 362 222 362 Q168 362 125 327.5 Q82 293 78 243 Q73 186 99 151.5 Q125 117 178 115 Q221 113 257.5 128 Q294 143 294 168 L294 197 L323 197 L323 171 Q323 144 362 127 Q398 112 435 115 Q485 119 508.5 133 Q532 147 542 177 Q546 190 546 204 Q546 235 525.5 260 Q505 285 469 293 Q441 300 407 300 Q362 300 322 289 Q321 300 321 310 Q321 428 447 433 Q542 437 557 366 Q561 346 549 325.5 Q537 305 521 303 Q586 264 592 173 Q597 104 551 50.5 Q505 -3 436 -1 Q337 2 307 71 Q273 -1 186 -1 Q105 -1 59 70 Q26 122 31 202 Q39 320 130 367 Q174 389 223 389 Q238 389 251 387 Z M350 319 Q372 325 410 325 Q464 325 497 314 Q519 326 519 350 Q519 364 510 375 Q495 395 456 397 Q413 399 384 381 Q352 360 350 319 Z " />
<glyph glyph-name="ra" unicode="&#xdbb;" horiz-adv-x="528" d="M119 354 Q72 313 72 255 Q72 197 117 152 Q152 117 226 117 Q322 117 367 167 Q412 217 412 274 Q412 322 375.5 367 Q339 412 269 412 Q185 412 119 354 Z M402 520 Q433 540 455 565 Q481 593 489.5 599.5 Q498 606 508 606 Q527 606 528 591 Q531 549 458 507 Q373 459 293 435 Q376 427 429.5 366.5 Q483 306 482 222 Q481 120 393 47 Q336 0 248 0 Q154 0 91.5 61.5 Q29 123 29 216 Q29 293 76 347 Q118 395 182 421 Q233 440 283 459 Q347 485 402 520 Z " />
<glyph glyph-name="la" unicode="&#xdbd;" horiz-adv-x="670" d="M265 308 L518 308 L518 282 L396 282 Q397 261 424.5 243 Q452 225 481 224 Q523 223 549 242 Q575 261 575 293 Q575 302 573 311 Q561 356 510 381 Q464 402 401 402 Q292 402 222 341 Q148 277 148 168 Q148 149 150 129 Q172 -65 357 -97 Q385 -102 412 -102 Q478 -102 521 -71 Q569 -36 588 26 Q599 63 590 84 L624 84 Q626 46 613 4 Q594 -60 533 -103 Q464 -151 368 -154 Q230 -158 135 -86 Q29 -6 31 135 Q33 281 133 361 Q223 432 364 432 Q456 432 519 405 Q597 371 609 301 Q611 290 611 280 Q611 227 569.5 196 Q528 165 475 170 Q427 175 397.5 204.5 Q368 234 368 282 L265 282 L265 308 Z " />
<glyph glyph-name="va" unicode="&#xdc0;" horiz-adv-x="597" d="M194 280 Q148 280 116 259.5 Q84 239 87 206 Q91 152 152 131 Q197 115 288 115 Q495 115 505 300 Q511 401 445.5 476.5 Q380 552 276 552 Q157 552 90 470 L57 470 Q130 575 271 577 Q394 579 473 486 Q548 398 548 274 Q548 160 480 83 Q408 1 289 0 Q178 -1 116 30 Q32 71 33 171 Q33 227 76 265.5 Q119 304 184 304 L257 304 Q259 348 236 370 Q216 389 195 389 Q179 389 163.5 380 Q148 371 136.5 352 Q125 333 108 326 Q100 323 92 323 Q76 323 65.5 335 Q55 347 59 367 Q72 432 160 432 Q174 432 189 430 Q296 415 292 280 L194 280 Z " />
<glyph glyph-name="sha" unicode="&#xdc1;" horiz-adv-x="631" d="M251 408 Q179 413 126 365 Q73 317 73 251 Q73 193 106 156.5 Q139 120 200 114 Q236 110 263.5 121.5 Q291 133 299 152 Q303 161 303 171 Q303 190 291 204 Q279 218 260 218 Q250 218 239 214 Q238 208 233 192 L208 192 Q216 290 264 357 Q322 439 418 431 Q497 424 543 347 Q582 281 582 196 Q582 140 566 83.5 Q550 27 529 1 L502 1 Q507 8 507 14 Q507 24 496 24 Q492 24 487 22 Q473 14 459 6 Q442 -4 427 -3 Q400 -2 383 21.5 Q366 45 367 75 Q368 136 419 168 Q443 183 483 183 Q509 183 532 175 Q502 330 380 330 Q334 330 297 309 Q255 285 242 240 Q252 242 262 242 Q334 242 343 155 Q350 88 304.5 41 Q259 -6 188 -1 Q113 5 72 66 Q34 121 34 204 Q34 311 92 371.5 Q150 432 223 432 Q237 432 251 430 L251 408 Z M519 42 Q528 74 530 97 Q531 112 533 142 Q526 150 504.5 154 Q483 158 465 155 Q398 143 398 77 Q398 36 426 28 Q439 25 457 36 Q482 51 490 53 Q513 60 519 42 Z " />
<glyph glyph-name="Sha" unicode="&#xdc2;" horiz-adv-x="598" d="M261 295 Q184 295 157 290 Q124 284 100 261 Q76 238 76 209 Q76 195 81 182 Q111 108 295 108 Q486 108 508 192 Q510 201 510 211 Q510 248 474 270 Q460 263 441 258.5 Q422 254 401 249 Q430 236 430 210 Q430 200 425 191 Q409 162 298 159 Q249 158 217 166 Q166 179 170 216 Q173 246 211 256 Q233 262 295 263 Q324 263 387 268 Q399 271 421 275 Q434 277 451 283 Q439 289 414 294 Q368 298 313 295 Q307 317 307 336 Q307 382 338.5 408 Q370 434 427 432 Q464 431 489 409.5 Q514 388 517 355 Q521 310 490 288 Q557 240 549 156 Q542 81 469 39 Q401 0 298 0 Q184 0 115 39 Q38 83 31 168 Q26 222 62 262.5 Q98 303 155 312 Q181 316 237 316 Q238 323 238 329 Q238 356 221 372.5 Q204 389 178 389 Q155 389 147 365 Q135 329 92 329 Q55 329 55 364 Q55 371 58 378 Q83 437 170 433 Q264 428 264 328 Q264 312 261 295 Z M468 300 Q489 320 489 347 Q489 371 473 388.5 Q457 406 431 407 Q384 409 359.5 390 Q335 371 335 339 Q335 329 338 318 Q375 320 389 319 Q437 316 468 300 Z M296 240 Q206 240 206 210 Q206 186 303 186 Q397 186 394 215 Q392 240 296 240 Z " />
<glyph glyph-name="sa" unicode="&#xdc3;" horiz-adv-x="670" d="M311 279 Q235 283 209 280 Q162 275 133 253 Q100 227 104 187 Q110 116 220 116 Q255 116 284 130 Q317 145 317 171 L317 198 L350 198 L350 171 Q350 148 390 131 Q427 116 470 116 Q508 116 537 130 Q571 148 577 180 Q579 190 579 199 Q579 237 550.5 259.5 Q522 282 481 286 Q414 292 353 279 Q350 340 376 381 Q407 428 470 432 Q556 437 577 365 Q579 357 579 349 Q579 331 570 315.5 Q561 300 550 297 Q619 263 627 178 Q634 107 586.5 53.5 Q539 0 464 0 Q367 0 333 82 Q301 -1 199 -1 Q135 -1 92 47 Q51 92 51 154 Q51 256 142 284 L5 284 L5 308 L280 308 Q277 344 269 357 Q256 380 219 379 Q190 379 177 350 Q164 321 123 323 Q91 324 89 358 Q87 392 119 414.5 Q151 437 201 432 Q320 420 311 279 Z M386 310 Q412 316 456 316 Q502 315 526 306 Q541 322 541 340 Q541 366 519.5 379 Q498 392 471 392 Q391 392 386 310 Z " />
<glyph glyph-name="ha" unicode="&#xdc4;" horiz-adv-x="653" d="M239 278 Q183 283 155 275 Q85 257 85 201 Q85 155 128 133 Q162 115 212 116 Q253 117 282 130 Q321 149 321 185 Q321 213 291 211 Q270 210 261 182 L239 192 Q244 265 280 327 Q341 433 432 432 Q514 431 562 363 Q604 302 605 214 Q606 131 552.5 70 Q499 9 416 0 Q385 -3 352 2 L352 29 Q399 23 443 34 Q487 45 518 86.5 Q549 128 547 182 Q545 241 519 281 Q489 328 432 335 Q421 336 411 336 Q361 336 324 307 Q287 278 271 229 Q293 243 319 232 Q360 215 365 153 Q371 78 310 33 Q271 4 210 0 Q139 -5 86 37.5 Q33 80 33 151 Q33 220 78 262 Q123 304 186 304 Q196 304 206 303 Q201 343 188 359 Q167 385 140 383 Q118 381 105.5 355.5 Q93 330 76 328 Q39 322 35 359 Q32 389 57.5 411 Q83 433 121 432 Q173 431 205.5 389 Q238 347 239 278 Z " />
<glyph glyph-name="La" unicode="&#xdc5;" horiz-adv-x="636" d="M576 271 L249 271 Q178 271 163 265 Q167 212 226 173 Q282 136 352 136 Q464 136 499 188 L530 188 Q498 52 342 43 Q259 38 196 103 Q136 164 131 247 Q121 216 121 184 Q121 115 166 46 Q197 -1 260.5 -30 Q324 -59 400 -58 Q490 -56 540 -21 Q590 14 591 74 L618 74 Q618 -25 532 -90 Q454 -149 342 -153 Q213 -158 121.5 -80 Q30 -2 31 114 Q31 170 57.5 217.5 Q84 265 127 287 Q126 343 164 387.5 Q202 432 260 432 Q326 432 350 375 Q377 433 451 432 Q510 431 544 384 Q575 340 576 271 Z M541 296 Q540 338 516 369.5 Q492 401 451 401 Q416 401 392 380.5 Q368 360 364 330 L333 330 Q331 358 311 381 Q291 404 259 402 Q218 400 190.5 370 Q163 340 163 295 Q183 301 541 296 Z " />
<glyph glyph-name="fa" unicode="&#xdc6;" horiz-adv-x="616" d="M506 38 Q471 0 420 0 Q404 0 388 4 L388 29 Q400 26 412 26 Q464 26 496 81 Q524 126 523 174 Q521 306 412 317 Q373 321 344 305 Q312 288 312 254 L312 212 L280 212 L280 254 Q280 282 257.5 300.5 Q235 319 198 319 Q186 319 173 317 Q73 300 72 178 Q71 122 105.5 74 Q140 26 188 26 Q204 26 220 32 L220 6 Q200 -1 182 -1 Q150 -1 115 21 Q37 71 33 210 Q31 291 67 356 Q108 431 178 431 Q262 431 296 359 Q324 427 418 431 Q484 434 528 367 Q569 303 568 212 Q566 103 506 38 Z " />
<glyph glyph-name="al" unicode="&#xdca;" horiz-adv-x="8" d="M-140 377 L-140 681 Q-123 667 -79 647 Q-35 627 -18 611 Q9 585 10 544 Q11 513 -11.5 490.5 Q-34 468 -68 468 Q-90 468 -113 478 L-113 331 L-140 377 Z M-113 638 L-113 503 Q-101 497 -84 497 Q-26 497 -30 549 Q-34 593 -113 638 Z " />
<glyph glyph-name="aa" unicode="&#xdcf;" horiz-adv-x="312" d="M51 256 L23 256 Q19 317 53 358.5 Q87 400 143 401 Q207 402 241 346 Q272 293 270 199 Q265 -1 134 -1 Q84 -1 53 28 Q22 57 22 109 Q22 120 23 131 L49 131 Q44 94 64 71.5 Q84 49 120 47 Q180 43 182 195 Q184 354 131 354 Q91 354 69 326.5 Q47 299 51 256 Z " />
<glyph glyph-name="ae" unicode="&#xdd0;" horiz-adv-x="334" d="M3 339 L249 339 Q248 336 246 323 Q161 199 161 73 Q161 44 166 16 Q183 -84 300 -84 Q298 -87 302.5 -93 Q307 -99 305 -101 Q260 -152 200 -147 Q142 -142 112 -97.5 Q82 -53 84 16 Q87 100 127 183 Q170 272 211 313 L3 313 L3 339 Z " />
<glyph glyph-name="aee" unicode="&#xdd1;" horiz-adv-x="336" d="M4 339 L249 339 L249 317 L111 221 L269 221 L269 201 Q249 190 214 139 Q182 92 186 19 Q189 -32 230 -69 Q254 -91 301 -97 L305 -124 Q272 -145 227 -145 Q214 -145 201 -143 Q92 -126 92 -8 Q92 4 93 16 Q99 74 156 137 Q197 183 232 199 L64 199 L64 218 L205 315 L4 315 L4 339 Z " />
<glyph glyph-name="i" unicode="&#xdd2;" horiz-adv-x="8" d="M-430 396 Q-542 405 -542 518 Q-542 594 -471 635 Q-409 671 -310 671 Q-213 671 -151 632 Q-85 591 -85 519 Q-85 472 -109 440 Q-140 397 -203 396 L-203 417 Q-165 418 -143 442 Q-124 462 -124 489 Q-124 498 -126 505 Q-139 545 -187 561 Q-229 575 -310 575 Q-471 575 -498 510 Q-502 499 -502 487 Q-502 427 -430 417 L-430 396 Z " />
<glyph glyph-name="ii" unicode="&#xdd3;" horiz-adv-x="8" d="M-479 388 Q-521 400 -540 443 Q-556 479 -552 522 Q-544 598 -475 637 Q-414 671 -313 671 Q-215 671 -153 635 Q-85 595 -85 524 Q-85 486 -115 457 Q-148 426 -194 429 Q-227 431 -252 450 Q-281 472 -282 505 Q-283 524 -272.5 544.5 Q-262 565 -249 571 Q-264 574 -316 574 Q-512 574 -512 480 Q-512 435 -479 415 L-479 388 Z M-239 513 Q-239 491 -223 475 Q-207 459 -185 459 Q-163 459 -147 474.5 Q-131 490 -131 512 Q-131 534 -147 549.5 Q-163 565 -185 565 Q-207 565 -223 549.5 Q-239 534 -239 513 Z " />
<glyph glyph-name="u" unicode="&#xdd4;" horiz-adv-x="8" d="M-76 -235 L-499 -235 Q-543 -235 -571 -216 Q-604 -194 -605 -150 Q-606 -111 -578.5 -82.5 Q-551 -54 -506 -51 Q-439 -47 -410 -110 L-440 -122 Q-455 -81 -498 -81 Q-525 -81 -546 -96 Q-567 -111 -568 -137 Q-571 -202 -487 -202 L-109 -202 L-109 149 L-76 206 L-76 -235 Z " />
<glyph glyph-name="uu" unicode="&#xdd6;" horiz-adv-x="8" d="M-76 -232 L-98 -232 Q-111 -196 -155.5 -171 Q-200 -146 -241 -146 Q-284 -146 -357 -190.5 Q-430 -235 -473 -236 Q-528 -237 -559 -204 Q-590 -171 -584 -124 Q-579 -87 -551 -64.5 Q-523 -42 -484 -40 Q-420 -37 -386 -91 L-414 -101 Q-434 -68 -479 -68 Q-502 -68 -522 -80 Q-542 -92 -547 -113 Q-549 -120 -549 -127 Q-549 -155 -523 -170 Q-502 -184 -471 -185 Q-434 -187 -355 -150 Q-279 -114 -231 -118 Q-157 -125 -106 -171 L-106 149 L-76 206 L-76 -232 Z " />
<glyph glyph-name="gp" unicode="&#xdd8;" horiz-adv-x="312" d="M57 242 L33 242 Q31 307 59.5 350 Q88 393 143 393 Q204 393 236 328 Q264 273 263 191 Q263 157 255 100.5 Q247 44 247 24 Q247 12 248 3 L207 3 Q199 14 189 14 Q185 14 164 6 Q143 -2 122 -1 Q94 1 69 22.5 Q44 44 37 73 Q33 90 33 107 Q33 176 99 205 Q134 220 180 220 Q172 300 171 307 Q161 355 131 354 Q93 353 72 316 Q54 284 57 242 Z M178 193 Q164 193 123 185 Q75 171 66 129 Q64 118 64 107 Q64 75 81.5 53 Q99 31 126 33 Q140 34 152.5 39 Q165 44 171 44 Q175 44 181 42 Q175 73 175 120 Q175 136 178 193 Z " />
<glyph glyph-name="e" unicode="&#xdd9;" horiz-adv-x="603" d="M584 206 L555 206 Q547 285 473 344 Q399 403 301 403 Q214 403 154 363 Q90 320 90 252 Q90 241 92 230 Q111 111 280 113 Q418 115 437 179 Q441 192 441 204 Q441 234 419 257 Q397 280 360 287 Q379 266 379 242 Q379 211 352.5 188.5 Q326 166 289 166 Q256 166 230 188 Q204 210 203 242 Q202 275 229.5 297.5 Q257 320 296 322 Q378 327 437.5 279 Q497 231 491 162 Q476 -2 264 0 Q162 1 97.5 60 Q33 119 33 212 Q33 314 118 376 Q195 432 301 432 Q415 432 495 368.5 Q575 305 584 206 Z M248 275 Q236 263 236 246 Q236 224 252.5 211 Q269 198 293 198 Q319 198 332 212 Q345 226 345 244 Q345 269 323 283 Q309 292 289 292 Q262 292 248 275 Z " />
<glyph glyph-name="ei" unicode="&#xdda;" horiz-adv-x="370" d="" />
<glyph glyph-name="ee" unicode="&#xddb;" horiz-adv-x="1188" d="M584 206 L555 206 Q547 285 473 344 Q399 403 301 403 Q214 403 154 363 Q90 320 90 252 Q90 241 92 230 Q111 111 280 113 Q418 115 437 179 Q441 192 441 204 Q441 234 419 257 Q397 280 360 287 Q379 266 379 242 Q379 211 352.5 188.5 Q326 166 289 166 Q256 166 230 188 Q204 210 203 242 Q202 275 229.5 297.5 Q257 320 296 322 Q378 327 437.5 279 Q497 231 491 162 Q476 -2 264 0 Q162 1 97.5 60 Q33 119 33 212 Q33 314 118 376 Q195 432 301 432 Q415 432 495 368.5 Q575 305 584 206 Z M248 275 Q236 263 236 246 Q236 224 252.5 211 Q269 198 293 198 Q319 198 332 212 Q345 226 345 244 Q345 269 323 283 Q309 292 289 292 Q262 292 248 275 Z M1163 211 L1134 211 Q1126 290 1052 349 Q978 408 880 408 Q793 408 733 368 Q669 325 669 257 Q669 246 671 235 Q690 116 859 118 Q997 120 1016 184 Q1020 197 1020 209 Q1020 239 998 262 Q976 285 939 292 Q958 271 958 247 Q958 216 931.5 193.5 Q905 171 868 171 Q835 171 809 193 Q783 215 782 247 Q781 280 808.5 302.5 Q836 325 875 327 Q957 332 1016.5 284 Q1076 236 1070 167 Q1055 3 843 5 Q741 6 676.5 65 Q612 124 612 217 Q612 319 697 381 Q774 437 880 437 Q994 437 1074 373.5 Q1154 310 1163 211 Z M827 280 Q815 268 815 251 Q815 229 831.5 216 Q848 203 872 203 Q898 203 911 217 Q924 231 924 249 Q924 274 902 288 Q888 297 868 297 Q841 297 827 280 Z " />
<glyph glyph-name="o" unicode="&#xddc;" horiz-adv-x="370" d="" />
<glyph glyph-name="oo" unicode="&#xddd;" horiz-adv-x="370" d="" />
<glyph glyph-name="ou" unicode="&#xdde;" horiz-adv-x="370" d="" />
<glyph glyph-name="gk" unicode="&#xddf;" horiz-adv-x="441" d="M105 428 Q62 401 62 322 Q62 289 81.5 269 Q101 249 132 249 Q153 249 168 263.5 Q183 278 183 299 Q183 319 166 337 Q161 383 194 413 Q215 432 270 432 Q330 432 364 362 Q394 301 393 220 Q392 132 355 70 Q313 -2 239 -2 Q192 -2 163 33 Q134 68 134 120 Q134 138 138 157 L164 157 Q161 143 161 130 Q161 91 180.5 66 Q200 41 229 41 Q235 41 241 42 Q271 47 286 108 Q298 160 297 236 Q294 392 251 392 Q223 392 212 387 Q191 377 193 343 Q229 324 229 288 Q229 277 225 266 Q217 239 190 225 Q163 211 132 212 Q88 213 60.5 244.5 Q33 276 33 321 Q33 394 70 428 L105 428 L105 428 Z " />
<glyph glyph-name="dgp" unicode="&#xdf2;" horiz-adv-x="560" d="M57 242 L33 242 Q31 307 59.5 350 Q88 393 143 393 Q204 393 236 328 Q264 273 263 191 Q263 157 255 100.5 Q247 44 247 24 Q247 12 248 3 L207 3 Q199 14 189 14 Q185 14 164 6 Q143 -2 122 -1 Q94 1 69 22.5 Q44 44 37 73 Q33 90 33 107 Q33 176 99 205 Q134 220 180 220 Q172 300 171 307 Q161 355 131 354 Q93 353 72 316 Q54 284 57 242 Z M178 193 Q164 193 123 185 Q75 171 66 129 Q64 118 64 107 Q64 75 81.5 53 Q99 31 126 33 Q140 34 152.5 39 Q165 44 171 44 Q175 44 181 42 Q175 73 175 120 Q175 136 178 193 Z M300 243 L276 243 Q274 308 302.5 351 Q331 394 386 394 Q447 394 479 329 Q507 274 506 192 Q506 158 498 101.5 Q490 45 490 25 Q490 13 491 4 L450 4 Q442 15 432 15 Q428 15 407 7 Q386 -1 365 0 Q337 2 312 23.5 Q287 45 280 74 Q276 91 276 108 Q276 177 342 206 Q377 221 423 221 Q415 301 414 308 Q404 356 374 355 Q336 354 315 317 Q297 285 300 243 Z M421 194 Q407 194 366 186 Q318 172 309 130 Q307 119 307 108 Q307 76 324.5 54 Q342 32 369 34 Q383 35 395.5 40 Q408 45 414 45 Q418 45 424 43 Q418 74 418 121 Q418 137 421 194 Z " />
<glyph glyph-name="dgk" unicode="&#xdf3;" horiz-adv-x="442" d="M105 428 Q62 401 62 322 Q62 289 81.5 269 Q101 249 132 249 Q153 249 168 263.5 Q183 278 183 299 Q183 319 166 337 Q161 383 194 413 Q215 432 270 432 Q330 432 364 362 Q394 301 393 220 Q392 132 355 70 Q313 -2 239 -2 Q192 -2 163 33 Q134 68 134 120 Q134 138 169 175 L219 187 Q270 140 225 90 Q161 91 180.5 66 Q200 41 229 41 Q235 41 241 42 Q271 47 286 108 Q298 160 297 236 Q294 392 251 392 Q223 392 212 387 Q191 377 193 343 Q229 324 229 288 Q229 277 225 266 Q217 239 190 225 Q163 211 132 212 Q88 213 60.5 244.5 Q33 276 33 321 Q33 394 70 428 L105 428 L105 428 Z " />
<glyph glyph-name="space" unicode="&#x20;" horiz-adv-x="370" d="" />
<glyph glyph-name="comma" unicode="&#x2c;" horiz-adv-x="202" d="M42 41 Q38 50 38 60 Q38 84 59.5 99 Q81 114 108 110 Q163 101 163 20 Q163 5 160 -9 Q156 -30 132 -63 Q112 -90 95 -105 L57 -99 Q101 -55 101 -21 Q101 -9 95.5 0 Q90 9 70 15.5 Q50 22 42 41 Z " />
<glyph glyph-name="slash" unicode="&#x2f;" horiz-adv-x="407" d="M315 607 L356 607 L89 -32 L49 -32 L315 607 Z " />
<glyph glyph-name="bracket1" unicode="&#x29;" horiz-adv-x="261" d="M36 627 Q241 486 236 248 Q231 12 37 -122 L37 -101 Q104 -22 127 78 Q142 143 143 257 Q145 476 36 610 L36 627 L36 627 Z " />
<glyph glyph-name="dot" unicode="&#x2e;" horiz-adv-x="208" d="M49 84 Q66 108 98 108 Q118 108 133 98 Q157 81 157 50 Q157 31 147 16 Q130 -8 98 -8 Q78 -8 63 2 Q39 19 39 50 Q39 69 49 84 Z " />
<glyph glyph-name="colon" unicode="&#x3a;" horiz-adv-x="202" d="M53 157 Q67 176 93 176 Q110 176 122 167 Q143 151 143 126 Q143 106 128.5 93 Q114 80 94 80 Q77 80 63 90 Q44 104 44 129 Q44 145 53 157 Z M53 323 Q68 343 94 343 Q110 343 122 334 Q143 318 143 293 Q143 277 134 265 Q117 246 92 246 Q76 246 63 255 Q44 269 44 294 Q44 311 53 323 Z " />
<glyph glyph-name="asterisk" unicode="&#x2a;" horiz-adv-x="383" d="M193 641 Q225 641 224 601 Q223 585 216 570 Q207 551 205 543 Q198 513 197 489 Q209 496 236 520 Q245 534 275 565 Q287 575 305 575 Q339 575 339 546 Q339 527 323 516 Q312 508 292 505.5 Q272 503 254 500 Q231 495 203 481 Q222 469 254 463 Q274 460 294 456 Q314 452 326 441.5 Q338 431 338 415 Q338 383 307 383 Q290 383 277 395 Q269 402 258 417.5 Q247 433 238 441 Q224 454 198 470 Q197 448 202 422 Q204 411 214 390 Q223 373 223 360 Q223 321 193 320 Q162 319 158 358 Q156 374 164 391 Q175 418 177 424 Q181 439 186 469 Q163 461 146 440 Q133 423 99 391 Q89 385 77 385 Q46 385 46 414 Q46 437 65 447 Q78 454 95 456 Q112 458 129 460 Q143 462 182 480 Q169 488 138 498 Q127 502 99 505 Q76 507 63 515 Q45 526 45 546 Q45 576 77 576 Q97 576 108 564 Q122 547 149 517 Q157 509 186 489 Q188 518 181 544 Q179 552 168 571 Q160 586 160 602 Q160 641 193 641 Z " />
<glyph glyph-name="short_dash1" unicode="&#x2d;" horiz-adv-x="297" d="M43 226 L245 226 L245 187 L43 187 L43 226 Z " />
<glyph glyph-name="short_dash2" unicode="&#x2010;" horiz-adv-x="297" d="M43 226 L245 226 L245 187 L43 187 L43 226 Z " />
<glyph glyph-name="0" unicode="0" horiz-adv-x="454" d="M286 86 Q307 145 308 276 Q309 375 295.5 434 Q282 493 266 516.5 Q250 540 220 540 Q189 540 171 512 Q155 488 141 427 Q126 363 126 268 Q126 179 141 120 Q155 67 171.5 46 Q188 25 221 25 Q248 25 262 39 Q273 51 286 86 Z M371 466 Q412 389 412 283 Q412 198 387 130 Q337 -4 217 -4 Q134 -4 83 67 Q27 144 27 281 Q27 387 64 462 Q115 564 222 565 Q318 566 371 466 Z " />
<glyph glyph-name="1" unicode="1" horiz-adv-x="358" d="M223 71 Q223 48 244 38 Q253 32 261 26 Q273 20 293 19 L293 1 L73 1 L73 20 Q108 22 124 34 Q140 43 140 79 L140 433 Q140 459 137 465 Q128 478 121 478 Q114 478 99 473 Q89 469 68 462 L68 481 L206 557 L223 557 L223 71 Z " />
<glyph glyph-name="2" unicode="2" horiz-adv-x="447" d="M28 9 Q184 168 227 240 Q264 301 264 357 Q264 411 230 446 Q196 481 151 481 Q115 481 89 460 Q60 436 51 392 L29 396 Q63 563 206 563 Q273 563 317.5 522 Q362 481 362 414 Q362 347 315 283 Q268 219 125 77 L300 77 Q339 77 359 90 Q366 94 372 98.5 Q378 103 388 118 L407 113 L360 -1 L28 -1 L28 9 Z " />
<glyph glyph-name="3" unicode="3" horiz-adv-x="401" d="M177 30 Q243 30 265.5 61.5 Q288 93 287 140 Q285 197 252 231 Q214 270 164 276 Q164 276 133 276 Q132 276 120 273 L119 295 Q162 310 177 316 Q203 327 220 342 Q245 364 249 404 Q252 439 224 471 Q201 497 157 497 Q115 497 84 473 Q64 458 47 419 L29 427 Q45 488 89.5 525 Q134 562 197 563 Q252 564 290.5 533.5 Q329 503 329 449 Q329 410 300 376 Q282 355 244 327 Q293 315 314 295 Q359 252 360 186 Q361 93 284 39 Q217 -9 120 -9 Q71 -9 49.5 5 Q28 19 28 38 Q28 47 34 57 Q48 71 63 71 Q82 71 117 50.5 Q152 30 177 30 Z " />
<glyph glyph-name="4" unicode="4" horiz-adv-x="461" d="M240 428 L63 190 L240 190 L240 428 Z M293 561 L333 561 L333 190 L419 190 L419 139 L333 139 L333 -1 L240 -1 L240 139 L25 139 L25 192 L293 561 Z " />
<glyph glyph-name="5" unicode="5" horiz-adv-x="407" d="M122 55 Q160 33 186 34 Q243 36 263 72 Q281 104 281 143 Q281 184 261.5 227 Q242 270 211 293 Q166 326 113 332 Q101 333 63 323 Q48 334 50 339 L148 555 L327 555 Q348 555 366 576 L373 570 L344 500 Q338 485 330 484 Q328 484 320.5 479.5 Q313 475 310 475 L146 475 L112 405 Q173 408 219 393 Q274 375 305.5 345 Q337 315 351.5 280.5 Q366 246 366 203 Q366 108 297 49 Q232 -7 135 -8 Q99 -8 69 0 Q27 12 28 45 Q29 62 42 68 Q67 80 78 76 Q86 73 122 55 Z " />
<glyph glyph-name="6" unicode="6" horiz-adv-x="431" d="M220 -8 Q149 -8 90 57 Q31 122 31 234 Q31 379 145 476 Q243 559 373 561 L378 540 Q346 535 288 520 Q253 506 221 478 Q204 463 170 409 Q159 391 154 367.5 Q149 344 145 323 Q187 352 241 352 Q313 352 354 302 Q393 256 393 182 Q393 107 344 51 Q294 -8 220 -8 Z M285 250 Q262 313 205 313 Q175 313 153 261 Q144 240 142 191 Q140 138 156 92 Q183 18 224 18 Q246 18 259 32 Q267 41 279 67 Q294 100 297 158 Q300 210 285 250 Z " />
<glyph glyph-name="7" unicode="7" horiz-adv-x="422" d="M381 549 L381 535 L205 -1 L154 -1 L301 451 L146 451 Q96 451 84.5 443.5 Q73 436 46 405 L22 418 Q36 453 54 498 Q65 531 72 549 L381 549 Z " />
<glyph glyph-name="8" unicode="8" horiz-adv-x="399" d="M272 38 Q286 51 290 63 Q292 70 293 93 Q294 127 259 165 Q215 213 154 254 Q132 236 127 231 Q113 217 104 202 Q86 171 86 132 Q86 85 119 49 Q152 13 197 13 Q245 13 272 38 Z M257 368 Q283 401 284 444 Q286 487 259 514 Q239 535 184 535 Q148 535 120 512 Q96 492 96 470 Q96 438 142 388 Q171 356 208 332 Q227 344 257 368 Z M63 342 Q33 375 33 432 Q33 494 86 530 Q132 562 197 562 Q255 562 296 532 Q343 499 343 443 Q343 395 303 358 Q277 334 231 309 Q290 266 328 218 Q359 179 359 128 Q359 62 308 24 Q262 -11 194 -11 Q124 -11 76.5 25 Q29 61 28 123 Q27 174 62 215 Q90 248 133 276 Q98 303 63 342 Z " />
<glyph glyph-name="9" unicode="9" horiz-adv-x="431" d="M200 562 Q287 562 342 482 Q390 411 390 320 Q390 176 275 78 Q177 -5 47 -7 L42 14 Q75 19 133 34 Q166 47 199 76 Q218 93 250 145 Q261 163 267 188 Q271 210 275 231 Q234 202 180 202 Q107 202 66 251 Q28 297 28 372 Q28 447 77 504.5 Q126 562 200 562 Z M136 304 Q159 241 215 241 Q245 241 267 293 Q276 314 278 363 Q280 416 264 462 Q237 536 196 536 Q174 536 161 522 Q152 513 141 487 Q126 453 123 396 Q120 347 136 304 Z " />
<glyph glyph-name="question" unicode="&#x3f;" horiz-adv-x="385" d="M343 455 Q343 421 325 381 Q302 332 261 304 Q185 252 185 168 Q185 151 188 134 L166 134 Q150 175 159 229 Q167 280 213 356 Q236 394 238 446 Q240 493 224 524 Q205 564 163 566 Q134 567 107 547 Q86 530 76 510 Q64 485 64 462 Q64 427 89 417 Q131 400 131 378 Q131 369 125 359 Q117 345 96 345 Q79 345 65 357.5 Q51 370 44 385 Q30 412 30 455 Q29 506 67.5 550.5 Q106 595 186 595 Q253 595 296 559 Q343 520 343 455 Z M180 94 Q200 94 214.5 79 Q229 64 229 43 Q229 23 213.5 8.5 Q198 -6 177 -6 Q157 -6 142.5 9 Q128 24 128 45 Q128 65 143.5 79.5 Q159 94 180 94 Z " />
<glyph glyph-name="quoteright" unicode="&#x2019;" horiz-adv-x="238" d="M59 593 Q57 599 57 605 Q57 624 72.5 639.5 Q88 655 112 655 Q142 655 159 632 Q173 611 173 579 Q173 564 170 548 Q159 497 115 466 L83 466 Q123 508 123 533 Q123 546 116 557 Q111 564 89 568.5 Q67 573 59 593 Z " />
<glyph glyph-name="percentage" unicode="&#x25;" horiz-adv-x="554" d="M41 -1 L441 677 L492 677 L94 -1 L41 -1 Z M147 636 Q178 673 228 673 Q264 673 291 652 Q328 623 328 574 Q328 538 306 511 Q276 475 227 475 Q191 475 163 496 Q125 525 125 575 Q125 610 147 636 Z M222 162 Q251 198 300 198 Q337 198 365 176 Q403 147 403 98 Q403 63 381 36 Q352 0 301 0 Q265 0 238 21 Q200 51 200 100 Q200 135 222 162 Z M176 577 Q176 557 190.5 542.5 Q205 528 225 528 Q245 528 259.5 542 Q274 556 274 576 Q274 596 260 610 Q246 624 226 624 Q206 624 191 610 Q176 596 176 577 Z M253 100 Q253 80 267.5 65.5 Q282 51 302 51 Q322 51 336.5 65 Q351 79 351 98 Q351 118 336.5 132.5 Q322 147 302 147 Q282 147 267.5 133 Q253 119 253 100 Z " />
<glyph glyph-name="bracket2" unicode="&#x28;" horiz-adv-x="261" d="M231 627 L231 610 Q121 476 123 257 Q124 144 139 78 Q163 -22 229 -101 L229 -122 Q36 11 31 248 Q26 487 231 627 Z " />
<glyph glyph-name="quoteleft" unicode="&#x2018;" horiz-adv-x="238" d="M163 593 Q155 573 133 569 Q111 565 106 557 Q99 546 99 534 Q99 507 140 466 L107 466 Q62 499 52 548 Q49 563 49 578 Q49 644 97 654 Q104 655 111 655 Q134 655 151 639 Q165 624 165 605 Q165 599 163 593 Z " />
<glyph glyph-name="equals" unicode="&#x3d;" horiz-adv-x="374" d="M42 184 L315 184 L315 139 L42 139 L42 184 Z M42 285 L315 285 L315 242 L42 242 L42 285 Z " />
<glyph glyph-name="apostrophe" unicode="&#x27;" horiz-adv-x="60" d="M18 522 L159 522 L159 349 L18 349 L18 522 Z " />
<glyph glyph-name="finedash" unicode="&#x2013;" horiz-adv-x="254" d="M37 22 L200 22 L200 -2 L37 -2 L37 22 Z " />
<glyph glyph-name="semicolon" unicode="&#x3b;" horiz-adv-x="202" d="M42 41 Q38 50 38 60 Q38 84 59.5 99 Q81 114 108 110 Q163 101 163 20 Q163 5 160 -9 Q156 -30 132 -63 Q112 -90 95 -105 L57 -99 Q101 -55 101 -21 Q101 -9 95.5 0 Q90 9 70 15.5 Q50 22 42 41 Z M103 290 Q128 290 145.5 272.5 Q163 255 163 231 Q163 207 145 189.5 Q127 172 103 172 Q79 172 61 189.5 Q43 207 43 232 Q43 256 61 273 Q79 290 103 290 Z " />
<glyph glyph-name="multiply" unicode="&#xd7;" horiz-adv-x="488" d="M56 330 L91 365 L229 225 L371 362 L407 329 L263 188 L412 46 L374 11 L228 155 L81 10 L47 43 L199 194 L56 330 Z " />
<glyph glyph-name="plus" unicode="&#x2b;" horiz-adv-x="436" d="M46 230 L182 230 L182 354 L236 354 L236 230 L373 230 L373 183 L236 183 L236 60 L182 60 L182 183 L46 183 L46 230 Z " />
<glyph glyph-name="divide" unicode="&#xf7;" horiz-adv-x="448" d="M50 182 L50 234 L375 234 L375 182 L50 182 Z M214 361 Q230 361 241.5 350 Q253 339 253 323 Q253 308 242 296.5 Q231 285 215 285 Q199 285 187 296 Q175 307 175 322 Q175 338 187 349.5 Q199 361 214 361 Z M214 133 Q230 133 241.5 122 Q253 111 253 95 Q253 80 242 68.5 Q231 57 215 57 Q199 57 187 68 Q175 79 175 94 Q175 110 187 121.5 Q199 133 214 133 Z " />
<glyph glyph-name="black_circle" unicode="&#x25cf;" horiz-adv-x="425" d="M78 292 Q131 350 210 350 Q279 350 330 304 Q389 251 389 170 Q389 101 343 50 Q290 -8 211 -8 Q142 -8 90 39 Q31 92 31 171 Q31 240 78 292 Z " />
<glyph glyph-name="roman_i" unicode="i" horiz-adv-x="301" d="M247 21 L247 0 L50 0 L50 22 Q80 22 94 34 Q103 42 103 64 L103 344 Q103 367 92.5 373 Q82 379 48 380 L48 406 L193 416 L193 64 Q193 39 202 33 Q211 22 247 21 Z M106 568 Q123 582 144 582 Q171 582 189 561 Q203 545 203 524 Q203 497 182 480 Q165 466 144 466 Q117 466 99 487 Q85 504 85 524 Q85 551 106 568 Z " />
<glyph glyph-name="roman_v" unicode="v" horiz-adv-x="470" d="M365 322 L245 -5 L220 -5 L85 345 Q76 369 66 377 Q60 383 33 389 L33 411 L207 411 L207 389 Q185 389 179.5 384.5 Q174 380 170 367 Q167 356 177 328 L257 114 L335 319 Q341 335 341 348 Q341 374 331 380 Q316 389 290 390 L290 411 L435 411 L435 388 Q389 388 365 322 Z " />
<glyph glyph-name="roman_x" unicode="x" horiz-adv-x="462" d="M186 22 L186 0 L25 0 L25 22 Q42 20 65 35 Q78 43 95 67 L183 190 L80 352 Q58 387 30 388 L30 412 L207 412 L207 389 Q173 389 166 371 Q162 359 174 340 L231 252 L287 331 Q302 353 301 372 Q300 385 252 387 L252 412 L403 412 L403 388 Q383 386 362 372 Q349 367 334 347 L246 232 L343 74 Q357 51 369 42 Q381 33 385 31 Q398 24 411 23 L411 0 L234 0 L234 26 Q258 25 266 36 Q274 47 260 68 L197 166 L138 82 Q124 63 124 50 Q124 40 133 33 Q158 22 186 22 Z " />
<glyph glyph-name="roman_I" unicode="I" horiz-adv-x="301" d="M261 25 L261 -1 L37 -1 L37 25 Q69 25 88 36 Q102 44 102 69 L102 540 Q102 569 89.5 575.5 Q77 582 53 582 L37 582 L37 612 L261 612 L261 582 L233 582 Q215 582 205 575 Q195 568 195 540 L195 67 Q195 36 211 31 Q216 29 261 25 Z " />
<glyph glyph-name="roman_V" unicode="V" horiz-adv-x="654" d="M526 500 L329 -13 L302 -13 L106 533 Q95 563 83 570 Q66 580 31 581 L31 611 L280 611 L280 581 Q238 581 221 572 Q206 567 206 540 Q206 529 210 518 L345 133 L479 474 Q489 500 490 527 Q491 582 417 583 L417 611 L616 611 L616 583 Q582 583 563 565 Q544 547 526 500 Z " />
<glyph glyph-name="roman_X" unicode="X" horiz-adv-x="654" d="M244 27 L244 -1 L31 -1 L31 27 Q68 27 94.5 51.5 Q121 76 161 135 L269 294 L119 536 Q109 553 86 567 Q70 577 67 578 Q57 582 36 583 L36 613 L266 613 L266 581 Q239 581 231 571 Q220 557 220 554 Q220 547 229 532 L327 371 L417 502 Q431 522 433 545 Q433 581 366 583 L366 613 L576 613 L576 585 Q561 584 511 559 Q488 550 455 502 L347 343 L514 84 Q524 68 546 43 Q569 28 614 27 L614 -1 L353 -1 L353 27 Q389 27 401.5 36 Q414 45 414 55 Q414 66 403 84 L289 267 L200 132 Q175 94 175 71 Q175 46 190 37 Q205 28 244 27 Z " />
<glyph glyph-name="not_used_da_yansa" unicode="&#xb5;" horiz-adv-x="924" d="M286 294 Q232 294 186 267 Q140 240 140 160 Q140 107 167 71 Q199 30 255 27 Q324 23 384 92 L407 75 Q379 47 368 32 Q342 -15 333 -39 Q319 -67 319 -95 Q319 -133 344 -164 Q359 -183 375 -191 Q384 -196 409 -204 L409 -238 Q388 -242 355 -242 Q319 -241 306 -234 Q249 -204 249 -142 Q249 -84 319 10 Q265 -1 224 -1 Q191 -1 165 6 Q38 41 31 158 Q26 252 101 296 Q137 317 248 317 L343 317 Q336 348 311 371 Q290 390 247 383 Q230 380 214.5 360 Q199 340 177 337 Q140 331 140 368 Q140 375 142 382 Q161 433 232 433 Q245 433 261 431 Q355 420 379 294 L286 294 Z M427 421 Q453 431 478 431 Q531 431 567.5 389 Q604 347 608 285 Q614 204 578 131 Q647 111 697 111 Q725 111 748 117 Q840 142 832 212 Q826 265 754 276 Q728 279 700.5 283.5 Q673 288 659 302 Q641 320 641 347 Q641 378 662 401 Q687 429 746 431 Q792 433 822.5 407 Q853 381 853 340 Q853 330 851 320 L820 320 Q822 329 822 338 Q822 366 802 386 Q782 406 750 406 Q720 406 696 391.5 Q672 377 672 352 Q672 340 678 327 Q687 309 741 306 Q805 301 833 281 Q895 236 888 146 Q883 85 836 45 Q789 5 723 -1 Q607 -11 539 82 Q516 56 493 39 Q455 11 421 0 L404 18 Q479 47 532 120 Q578 183 578 267 Q578 320 554 359 Q525 405 476 405 Q453 405 427 394 L427 421 Z " />
<glyph glyph-name="unknown_al" unicode="&#xb6;" horiz-adv-x="249" d="M60 0 L33 0 L33 269 Q33 415 149 408 Q196 405 216 356 Q221 344 221 325 Q221 292 207 272 Q186 242 131 242 Q112 242 94 247 L94 269 Q146 265 155 301 Q158 314 149 330.5 Q140 347 119 347 Q60 347 60 268 L60 0 Z " />
<glyph glyph-name="unknown_8" unicode="&#xb7;" horiz-adv-x="255" d="M69 269 Q68 237 120 208 Q197 165 199 163 Q222 142 222 94 Q222 70 216 54 Q192 -3 128 -3 Q120 -3 112 -2 Q74 3 51 33 Q30 60 30 96 Q30 110 34 123 L59 123 Q60 105 78.5 93.5 Q97 82 123 82 Q142 82 156 92.5 Q170 103 170 122 Q170 153 118 177 Q48 210 37 274 Q35 288 35 302 Q35 351 62 379 Q93 411 152 408 Q198 405 219 355 Q223 345 223 328 Q223 294 208 273 Q187 245 142 245 Q126 245 109 249 Q99 252 69 269 Z M91 359 Q81 345 81 327 Q81 299 103 283 Q117 273 135 273 Q164 273 181 296 Q191 310 191 327 Q191 355 168 371 Q154 381 136 381 Q107 381 91 359 Z " />
<glyph glyph-name="black_triangle" unicode="&#x25b2;" horiz-adv-x="445" d="M397 -1 L25 -1 L210 371 L397 -1 Z " />
<glyph glyph-name="exclaim" unicode="&#x21;" horiz-adv-x="228" d="M120 185 L90 185 Q86 222 74 345 Q73 358 58 499 Q50 581 50 624 Q50 648 65 665 Q80 682 107 682 Q161 682 159 623 Q157 569 136 354 Q132 310 120 185 Z M107 121 Q132 121 152 103 Q172 85 172 57 Q172 32 155 14 Q135 -7 107 -7 Q82 -7 62 11 Q42 29 42 57 Q42 82 60.5 101.5 Q79 121 107 121 Z " />
<glyph glyph-name="brace_close" unicode="&#x7d;" horiz-adv-x="416" d="M97 670 Q161 669 211 627 Q253 592 253 510 L253 449 Q253 386 275 365 Q301 340 371 328 L371 304 Q299 295 274 266 Q253 241 253 184 L253 123 Q253 80 240 45.5 Q227 11 208 -2 Q160 -36 117 -36 L97 -36 L97 -13 Q129 0 144 19 Q167 49 167 105 L167 170 Q167 220 214 276 Q233 298 320 316 Q259 327 253 328 Q221 338 200.5 361.5 Q180 385 174 407 Q169 425 169 466 L169 525 Q169 592 151 611 Q134 634 132 636 Q118 649 97 650 L97 670 Z " />
<glyph glyph-name="top_white_circle" unicode="&#x2da;" horiz-adv-x="248" d="M53 684 Q79 711 117 711 Q148 711 171 691 Q199 666 199 629 Q199 598 177 574 Q152 547 115 547 Q84 547 60 568 Q31 593 31 630 Q31 661 53 684 Z M70 661 Q59 647 59 629 Q59 601 82 584 Q96 573 115 573 Q144 573 161 595 Q172 609 172 627 Q172 655 149 672 Q134 683 115 683 Q87 683 70 661 Z " />
<glyph glyph-name="dblquote_right" unicode="&#x201d;" horiz-adv-x="377" d="M206 595 Q203 620 216.5 637 Q230 654 254 654 Q262 654 270 652 Q317 641 317 578 Q317 511 258 463 L222 463 Q262 501 262 533 Q262 543 257 549 Q252 555 227 568 Q208 577 206 595 Z M62 595 Q59 620 72.5 637 Q86 654 110 654 Q118 654 126 652 Q174 641 174 578 Q174 511 114 463 L79 463 Q118 502 118 533 Q118 543 112 550 Q108 554 83 567 Q64 577 62 595 Z " />
<glyph glyph-name="dblquote_left" unicode="&#x201c;" horiz-adv-x="377" d="M171 595 Q169 577 150 568 Q125 555 120 549 Q115 543 115 534 Q115 503 155 463 L119 463 Q77 498 64 546 Q60 562 60 578 Q60 641 107 652 Q115 654 123 654 Q147 654 160.5 637 Q174 620 171 595 Z M315 595 Q313 577 294 568 Q269 555 264 549 Q259 543 259 533 Q259 501 299 463 L263 463 Q221 498 208 546 Q204 562 204 578 Q204 641 251 652 Q259 654 267 654 Q291 654 304.5 637 Q318 620 315 595 Z " />
<glyph glyph-name="white_square" unicode="&#x25a1;" horiz-adv-x="466" d="M369 -3 L36 -3 L36 328 L90 328 L90 380 L420 380 L420 48 L369 48 L369 -3 Z M107 361 L107 64 L405 64 L405 361 L107 361 Z " />
<glyph glyph-name="black_square" unicode="&#x25a0;" horiz-adv-x="416" d="M372 342 L372 0 L33 0 L33 342 L372 342 Z " />
<glyph glyph-name="brace_open" unicode="&#x7b;" horiz-adv-x="416" d="M315 670 L315 650 Q294 649 281 636 Q277 633 260 612.5 Q243 592 243 525 L243 466 Q243 425 238 407 Q232 385 211.5 361.5 Q191 338 159 329 Q153 327 92 316 Q180 298 198 276 Q245 219 245 170 L245 105 Q245 49 268 19 Q283 0 315 -13 L315 -36 L295 -36 Q251 -36 204 -2 Q186 11 173 44 Q159 81 159 123 L159 184 Q159 241 138 266 Q113 295 41 304 L41 328 Q111 340 137 365 Q159 386 159 449 L159 510 Q159 592 201 627 Q251 669 315 670 Z " />
<glyph glyph-name="black_star" unicode="&#x22c6;" horiz-adv-x="541" d="M211 260 L265 421 L316 260 L488 260 L349 160 L404 0 L265 99 L126 0 L180 160 L42 260 L211 260 Z " />
</font>
</svg>
